<svg id="svg" version="1.1" xmlns="http://www.w3.org/2000/svg" xmlns:xlink="http://www.w3.org/1999/xlink" width="400" height="432.65306122448976" viewBox="0, 0, 400,432.65306122448976"><g id="svgg"><path id="path0" d="M225.320 111.990 C 205.268 112.204,203.768 112.328,205.103 113.663 C 205.600 114.160,252.679 114.150,263.000 113.651 C 267.850 113.417,268.200 113.346,268.200 112.600 C 268.200 111.672,262.564 111.591,225.320 111.990 M41.920 194.560 C 39.969 196.061,35.426 201.420,30.499 208.034 C 26.861 212.918,23.980 215.597,16.786 220.784 C 5.057 229.242,2.943 232.651,4.377 240.800 C 6.780 254.465,24.866 261.395,38.777 253.980 C 45.486 250.404,46.460 247.746,50.424 222.202 C 51.107 217.802,51.810 214.022,51.987 213.802 C 52.164 213.581,52.630 211.204,53.022 208.521 C 53.719 203.750,53.762 203.630,54.925 203.148 C 57.773 201.969,59.251 199.599,58.104 198.050 C 55.082 193.970,45.401 191.882,41.920 194.560 M105.797 203.914 C 95.515 207.496,94.751 221.548,104.557 226.722 L 106.600 227.800 135.979 227.913 C 162.163 228.013,165.581 227.954,167.420 227.376 C 178.241 223.973,179.165 209.025,168.849 204.255 C 166.206 203.033,109.210 202.725,105.797 203.914 M166.751 205.823 C 175.454 208.407,176.468 220.504,168.322 224.564 L 166.243 225.600 136.800 225.600 L 107.357 225.600 105.278 224.564 C 97.310 220.593,98.204 208.449,106.656 205.853 C 109.636 204.938,163.680 204.910,166.751 205.823 M111.745 215.000 C 111.035 216.850,110.306 216.800,137.738 216.800 C 164.927 216.800,164.838 216.806,164.164 215.051 C 163.798 214.096,112.111 214.046,111.745 215.000 M290.764 305.843 C 289.839 306.958,291.316 307.600,294.810 307.600 L 297.868 307.600 299.749 314.900 C 308.936 350.542,308.053 348.000,311.258 348.000 L 313.164 348.000 312.182 348.982 C 309.423 351.740,313.131 356.004,316.336 353.760 C 318.148 352.490,318.223 349.866,316.484 348.545 C 315.916 348.113,317.152 348.025,323.800 348.025 C 329.200 348.025,331.582 348.151,331.130 348.415 C 328.718 349.822,329.893 354.347,332.681 354.387 C 335.808 354.432,337.509 351.073,335.418 348.982 L 334.436 348.000 336.369 348.000 C 338.591 348.000,339.646 347.219,338.800 346.200 C 338.375 345.687,336.245 345.600,324.179 345.600 L 310.057 345.600 309.434 343.457 C 309.091 342.278,308.763 340.901,308.705 340.396 L 308.600 339.478 325.825 339.570 C 339.754 339.645,343.130 339.561,343.470 339.131 C 344.066 338.378,350.133 317.249,350.170 315.800 L 350.200 314.600 326.000 314.400 L 301.800 314.200 300.747 310.138 C 300.168 307.904,299.573 305.879,299.424 305.638 C 298.960 304.888,291.409 305.066,290.764 305.843 M311.831 326.683 C 314.187 338.165,314.285 337.200,310.757 337.200 C 307.468 337.200,308.105 338.349,305.191 327.163 C 303.850 322.013,302.659 317.478,302.544 317.085 C 302.353 316.428,302.643 316.379,306.050 316.485 L 309.763 316.600 311.831 326.683 M323.907 326.915 L 324.014 337.229 320.117 337.115 L 316.220 337.000 314.337 327.600 C 313.302 322.430,312.442 317.790,312.427 317.289 L 312.400 316.378 318.100 316.489 L 323.800 316.600 323.907 326.915 M336.939 316.702 C 337.141 317.028,333.378 336.188,332.989 336.818 C 332.859 337.028,331.323 337.200,329.576 337.200 L 326.400 337.200 326.400 327.067 C 326.400 321.493,326.520 316.813,326.667 316.667 C 327.037 316.297,336.709 316.330,336.939 316.702 M347.601 316.700 C 347.601 316.865,346.310 321.545,344.732 327.100 L 341.862 337.200 338.731 337.200 C 336.413 337.200,335.600 337.064,335.600 336.675 C 335.600 336.204,338.874 319.515,339.401 317.300 C 339.616 316.397,347.599 315.813,347.601 316.700 M315.400 351.005 C 315.400 351.525,315.088 351.844,314.500 351.928 C 313.608 352.055,313.195 350.939,313.880 350.253 C 314.411 349.722,315.400 350.212,315.400 351.005 M333.889 350.449 C 334.503 351.063,334.076 352.000,333.181 352.000 C 332.299 352.000,331.847 351.376,332.152 350.581 C 332.418 349.889,333.264 349.824,333.889 350.449 M21.390 425.660 L 21.130 427.200 12.165 427.200 C 3.467 427.200,3.200 427.224,3.200 428.000 C 3.200 428.799,3.467 428.800,198.629 428.800 C 384.537 428.800,394.052 428.766,393.924 428.100 C 393.797 427.439,392.012 427.406,362.194 427.500 C 304.539 427.683,153.555 427.625,116.600 427.406 L 80.200 427.191 77.956 426.002 C 75.727 424.821,75.708 424.818,74.994 425.606 C 74.100 426.595,73.442 426.595,68.980 425.609 C 64.141 424.539,64.000 424.550,64.000 426.000 L 64.000 427.200 51.565 427.200 L 39.130 427.200 36.627 425.800 C 33.901 424.276,33.200 424.103,33.200 424.957 C 33.200 426.298,30.185 426.337,25.269 425.060 L 21.650 424.120 21.390 425.660 " stroke="none" fill="#22a45d" fill-rule="evenodd"></path><path id="path1" d="M178.200 0.466 C 177.760 0.708,176.889 1.378,176.264 1.954 C 173.821 4.205,173.931 2.377,174.242 35.627 L 174.527 66.011 186.963 65.906 L 199.400 65.800 199.502 32.900 L 199.605 0.000 189.302 0.012 C 182.563 0.020,178.723 0.177,178.200 0.466 M228.098 32.900 L 228.200 65.800 263.600 65.920 C 283.070 65.986,300.305 65.925,301.900 65.786 L 304.800 65.532 304.800 61.846 C 304.800 59.819,304.984 57.976,305.209 57.751 C 305.480 57.480,305.581 48.583,305.509 31.142 L 305.400 4.941 304.300 3.278 C 301.976 -0.232,304.826 0.000,264.014 0.000 L 227.995 0.000 228.098 32.900 M285.911 17.085 C 289.249 18.655,291.512 23.024,290.837 26.600 C 288.798 37.403,273.060 35.906,273.122 24.915 C 273.159 18.459,279.966 14.291,285.911 17.085 M209.815 120.699 C 205.405 120.830,204.365 121.194,205.275 122.290 C 205.885 123.026,231.934 122.551,232.747 121.789 C 234.227 120.403,228.717 120.141,209.815 120.699 M182.394 138.730 C 179.252 140.374,179.177 140.863,179.296 158.994 L 179.400 175.000 188.869 175.200 C 198.287 175.399,198.343 175.405,199.420 176.400 C 201.687 178.493,201.600 176.871,201.600 217.187 L 201.600 254.400 248.106 254.400 C 300.741 254.400,296.513 254.671,298.300 251.186 L 299.200 249.430 299.200 202.682 C 299.200 176.970,299.065 156.001,298.900 156.084 C 286.616 162.254,273.758 153.331,276.955 140.853 C 277.310 139.468,277.600 138.260,277.600 138.168 C 277.600 137.495,183.693 138.049,182.394 138.730 M293.000 143.200 C 290.700 145.535,290.264 145.613,288.586 143.987 C 287.269 142.710,286.000 142.696,286.000 143.958 C 286.000 144.744,289.582 148.400,290.353 148.400 C 291.323 148.400,296.400 143.140,296.400 142.134 C 296.400 140.618,295.160 141.007,293.000 143.200 M231.802 167.573 C 237.110 173.071,240.778 173.032,244.974 167.434 L 246.949 164.800 249.921 164.800 C 252.841 164.800,252.922 164.828,254.447 166.353 L 256.000 167.906 256.000 173.485 C 256.000 178.720,255.909 179.382,254.520 184.232 C 253.259 188.636,253.040 189.991,253.037 193.400 L 253.034 197.400 258.517 210.882 C 264.583 225.797,264.767 226.562,262.758 228.440 L 261.515 229.600 239.727 229.600 L 217.938 229.600 216.769 228.431 C 214.913 226.575,215.124 225.536,220.259 211.200 L 224.916 198.200 224.922 194.400 C 224.926 190.829,224.802 190.252,222.863 184.838 L 220.800 179.075 220.800 173.699 C 220.800 166.272,221.750 164.832,226.662 164.811 L 229.125 164.800 231.802 167.573 M224.344 167.964 C 223.474 168.668,223.390 169.067,223.273 173.064 L 223.146 177.400 225.373 184.050 C 226.598 187.708,227.600 191.068,227.600 191.518 C 227.600 193.666,227.237 193.600,238.991 193.600 L 249.897 193.600 250.166 191.223 C 250.314 189.915,251.057 186.663,251.817 183.996 C 253.625 177.654,253.892 168.930,252.311 167.823 C 250.338 166.441,248.799 166.985,246.399 169.914 C 245.035 171.579,243.514 172.945,242.399 173.506 L 240.600 174.413 240.400 179.664 C 240.191 185.164,239.849 186.088,238.254 185.476 C 237.694 185.261,237.600 184.459,237.600 179.876 L 237.600 174.527 235.906 174.019 C 234.694 173.656,233.290 172.612,230.978 170.356 C 227.443 166.905,226.205 166.459,224.344 167.964 M49.680 177.211 C 49.174 177.419,47.490 177.895,45.938 178.270 C 42.017 179.217,42.008 180.978,45.907 184.411 C 48.192 186.422,48.092 186.436,50.832 183.696 C 54.818 179.710,54.054 175.414,49.680 177.211 M227.600 197.200 C 227.600 197.981,227.867 198.000,239.000 198.000 C 250.133 198.000,250.400 197.981,250.400 197.200 C 250.400 196.419,250.133 196.400,239.000 196.400 C 227.867 196.400,227.600 196.419,227.600 197.200 M226.442 201.700 C 226.041 202.766,224.239 207.839,220.629 218.061 C 219.180 222.164,218.100 225.795,218.228 226.130 C 218.710 227.384,259.255 227.732,260.782 226.495 L 261.680 225.768 257.081 214.384 C 254.551 208.123,252.254 202.505,251.977 201.900 L 251.472 200.800 239.126 200.800 L 226.780 200.800 226.442 201.700 M55.364 202.902 L 53.727 203.696 53.022 208.473 C 52.244 213.746,52.315 214.107,53.907 212.955 C 55.913 211.504,57.255 208.146,57.119 204.918 L 57.000 202.108 55.364 202.902 M86.123 250.396 L 76.046 257.973 74.816 256.420 L 73.586 254.867 71.293 256.248 C 69.170 257.526,63.527 259.600,62.172 259.600 C 59.769 259.600,68.649 272.212,72.042 273.617 C 74.601 274.677,83.135 266.903,94.926 252.770 C 96.392 251.013,97.692 242.773,96.498 242.809 C 96.334 242.814,91.665 246.228,86.123 250.396 M21.116 261.418 C 20.996 261.538,18.886 261.641,16.427 261.648 L 11.956 261.660 12.217 265.530 C 12.638 271.787,13.846 275.426,15.661 275.900 C 16.318 276.072,16.390 276.301,16.120 277.352 C 15.303 280.535,15.719 284.991,16.846 285.121 C 18.068 285.263,18.400 284.257,18.400 280.406 C 18.400 278.644,18.623 277.783,19.359 276.698 C 21.278 273.870,23.810 263.017,22.827 261.832 C 22.301 261.198,21.523 261.010,21.116 261.418 M124.908 282.383 C 121.540 283.917,121.572 283.735,121.694 300.668 L 121.800 315.536 122.800 316.606 C 124.979 318.937,121.629 318.800,176.480 318.799 C 232.450 318.799,228.584 318.979,230.572 316.271 C 231.367 315.187,231.405 314.580,231.515 300.871 C 231.644 284.888,231.609 284.644,228.912 282.796 L 227.459 281.800 177.029 281.706 C 127.991 281.615,126.553 281.634,124.908 282.383 M221.626 292.014 C 222.573 292.521,222.841 307.399,221.920 308.320 C 221.581 308.659,219.253 308.800,214.000 308.800 C 208.747 308.800,206.419 308.659,206.080 308.320 C 205.218 307.458,205.420 292.545,206.300 292.032 C 207.234 291.488,220.614 291.472,221.626 292.014 M195.057 295.005 C 195.748 296.804,195.807 296.800,169.400 296.800 C 143.127 296.800,143.164 296.803,143.836 295.051 C 144.204 294.092,194.690 294.047,195.057 295.005 M10.400 296.800 C 10.400 296.957,9.421 297.051,8.224 297.008 L 6.048 296.930 5.796 298.565 C 5.657 299.464,5.299 301.460,5.000 303.000 C 3.148 312.547,3.647 313.200,12.797 313.200 C 19.992 313.200,19.425 313.957,19.284 304.550 L 19.167 296.800 17.484 296.776 C 16.558 296.762,14.585 296.698,13.100 296.633 C 11.615 296.568,10.400 296.643,10.400 296.800 M194.796 304.995 C 196.258 306.757,195.735 306.816,179.516 306.705 C 164.899 306.605,164.204 306.566,164.066 305.848 C 163.986 305.434,164.164 304.942,164.461 304.754 C 165.505 304.092,194.236 304.320,194.796 304.995 M212.531 351.783 C 209.099 353.276,210.206 358.800,213.939 358.800 C 217.892 358.800,219.022 353.288,215.381 351.766 C 213.789 351.101,214.104 351.099,212.531 351.783 M215.000 355.200 C 215.000 355.933,214.759 356.234,214.098 356.328 C 213.115 356.468,212.557 355.610,212.955 354.572 C 213.361 353.516,215.000 354.019,215.000 355.200 M212.257 360.811 C 210.464 361.349,208.400 363.686,208.400 365.180 C 208.400 366.161,210.603 365.590,211.258 364.439 C 212.439 362.362,215.896 362.457,216.869 364.592 C 217.455 365.878,219.600 366.066,219.600 364.831 C 219.600 362.207,215.354 359.883,212.257 360.811 M66.726 374.376 C 63.276 374.507,60.325 374.741,60.169 374.897 C 59.804 375.263,59.828 375.741,60.738 386.200 C 61.159 391.040,61.626 396.620,61.776 398.600 C 61.925 400.580,62.121 402.830,62.210 403.600 C 62.299 404.370,62.656 409.050,63.003 414.000 C 63.350 418.950,63.709 423.363,63.801 423.806 C 63.942 424.486,64.681 424.756,68.565 425.541 C 73.958 426.633,74.154 426.574,73.798 423.986 C 73.652 422.926,73.732 414.891,73.976 406.130 C 74.220 397.368,74.400 388.760,74.376 387.000 C 74.352 385.240,74.346 381.740,74.363 379.222 C 74.392 374.960,74.126 373.784,73.200 374.075 C 73.090 374.110,70.177 374.245,66.726 374.376 M21.600 399.224 C 21.600 414.546,21.743 423.959,21.975 423.816 C 22.181 423.688,22.347 423.273,22.343 422.892 C 22.340 422.511,22.533 420.970,22.772 419.467 C 23.011 417.964,23.099 416.561,22.969 416.349 C 22.838 416.138,22.893 415.748,23.091 415.482 C 23.289 415.217,23.498 414.280,23.556 413.400 C 23.613 412.520,23.840 411.080,24.060 410.200 C 24.279 409.320,24.467 407.655,24.477 406.500 C 24.486 405.345,24.608 404.400,24.747 404.400 C 24.886 404.399,24.999 403.634,24.999 402.700 C 24.998 401.765,25.131 400.100,25.295 399.000 C 25.858 395.218,26.414 390.997,26.612 389.000 C 26.720 387.900,27.092 385.020,27.436 382.600 C 28.662 374.001,28.831 374.416,24.100 374.405 L 21.600 374.400 21.600 399.224 " stroke="none" fill="#22a45d" fill-rule="evenodd"></path><path id="path2" d="M207.348 9.500 C 207.493 14.725,207.676 19.450,207.754 20.000 C 208.109 22.492,208.517 24.000,208.835 24.000 C 209.025 24.000,209.075 24.527,208.946 25.170 C 208.799 25.907,208.968 26.833,209.403 27.670 C 209.784 28.402,210.152 29.450,210.221 30.000 C 210.291 30.550,210.561 31.810,210.822 32.800 C 211.082 33.790,211.355 35.050,211.427 35.600 C 211.500 36.150,212.038 38.670,212.624 41.200 C 213.210 43.730,213.742 46.314,213.808 46.943 C 213.873 47.572,214.123 48.283,214.363 48.523 C 214.603 48.763,214.800 49.554,214.800 50.280 C 214.800 51.006,214.969 51.600,215.175 51.600 C 215.578 51.600,215.659 52.107,215.650 54.593 C 215.647 55.469,215.908 56.478,216.232 56.835 C 216.555 57.192,216.706 57.780,216.567 58.142 C 216.417 58.532,216.514 58.800,216.804 58.800 C 217.111 58.800,217.222 59.175,217.100 59.810 C 216.994 60.365,217.063 60.915,217.254 61.033 C 217.444 61.151,217.600 61.764,217.600 62.395 C 217.600 63.026,217.899 63.842,218.265 64.208 C 219.246 65.189,218.365 65.576,215.000 65.645 C 213.460 65.676,211.750 65.762,211.200 65.834 C 210.650 65.907,202.147 66.093,192.304 66.248 L 174.408 66.529 174.304 47.965 L 174.200 29.400 171.858 29.481 C 163.075 29.786,132.138 37.733,126.946 41.018 C 126.476 41.315,123.652 42.551,120.669 43.765 C 114.748 46.174,107.224 49.852,101.049 53.357 C 98.876 54.591,97.029 55.600,96.944 55.600 C 96.762 55.600,90.473 59.525,89.840 60.034 C 87.746 61.718,86.501 62.639,83.200 64.946 C 81.110 66.407,79.057 67.827,78.638 68.101 C 71.188 72.980,44.400 99.152,44.400 101.552 C 44.400 101.798,44.259 102.000,44.086 102.000 C 43.914 102.000,43.459 102.530,43.076 103.179 C 42.693 103.827,41.513 105.312,40.455 106.479 C 38.560 108.566,37.082 110.568,33.206 116.294 C 29.210 122.197,20.378 138.175,17.227 145.200 C 16.289 147.290,15.252 149.606,14.920 150.347 C -1.044 186.049,-4.535 237.790,6.255 278.800 C 7.881 284.981,8.214 285.800,8.611 284.600 C 9.702 281.298,10.215 280.881,13.397 280.708 L 15.394 280.600 15.671 278.652 C 15.928 276.841,15.867 276.636,14.802 275.740 C 12.982 274.209,10.948 264.964,11.891 262.507 C 12.198 261.708,11.298 261.213,9.524 261.206 C 7.510 261.198,7.484 261.088,8.206 255.557 L 8.841 250.687 7.845 249.643 C 5.217 246.893,3.361 240.640,3.721 235.752 C 4.112 230.435,6.071 228.077,16.200 220.731 C 24.904 214.418,25.628 213.724,31.483 206.090 C 41.909 192.495,43.133 191.690,50.504 193.575 C 57.053 195.250,60.374 198.397,58.167 200.837 C 57.707 201.344,57.506 202.526,57.432 205.147 C 57.301 209.775,56.220 212.193,53.740 213.400 L 52.097 214.200 51.446 218.400 C 50.728 223.034,50.650 224.396,51.100 224.407 C 52.014 224.429,58.723 225.574,59.400 225.823 C 62.285 226.887,63.967 229.280,66.159 235.442 L 67.597 239.485 64.174 246.242 C 62.292 249.959,60.493 253.200,60.176 253.444 C 59.448 254.006,59.454 254.428,60.236 257.213 L 60.871 259.478 63.736 258.731 C 65.311 258.320,68.130 257.222,70.000 256.292 C 71.870 255.361,73.490 254.557,73.600 254.505 C 73.710 254.453,74.216 255.053,74.725 255.838 C 75.268 256.676,75.873 257.181,76.189 257.060 C 76.653 256.882,108.400 233.257,109.348 232.385 C 109.539 232.209,108.986 231.703,108.120 231.261 C 107.254 230.819,105.864 229.680,105.031 228.729 C 104.198 227.778,102.543 225.982,101.353 224.737 C 94.636 217.714,96.391 207.874,105.062 203.943 L 107.582 202.800 136.691 202.800 C 165.213 202.800,165.844 202.817,168.000 203.633 C 171.981 205.141,174.673 207.928,175.795 211.706 C 176.117 212.793,176.880 214.698,177.491 215.941 C 180.396 221.857,177.791 228.905,171.649 231.745 C 169.815 232.593,169.564 232.600,140.923 232.610 C 125.041 232.616,111.903 232.764,111.727 232.940 C 111.552 233.115,111.406 234.086,111.404 235.097 C 111.400 236.888,111.336 236.983,108.903 238.768 C 107.285 239.955,103.332 244.120,97.674 250.600 C 88.797 260.767,77.248 272.386,74.658 273.755 C 72.146 275.083,68.934 272.566,64.334 265.664 C 61.744 261.779,61.447 261.473,61.773 263.024 C 62.049 264.339,60.877 265.942,60.025 265.416 C 59.791 265.271,59.600 265.345,59.600 265.579 C 59.600 266.068,54.050 271.600,53.559 271.600 C 53.382 271.600,52.814 272.005,52.298 272.500 C 50.212 274.501,48.021 276.400,47.798 276.400 C 47.668 276.400,47.165 276.816,46.681 277.325 C 45.822 278.227,41.450 281.893,39.549 283.305 C 37.892 284.535,35.138 286.929,32.767 289.200 C 29.584 292.248,28.440 293.259,26.661 294.597 L 25.121 295.755 30.061 296.674 C 40.373 298.592,43.717 298.354,49.885 295.263 C 56.683 291.855,64.240 290.172,66.053 291.663 C 66.552 292.073,67.386 296.600,69.580 310.800 C 71.161 321.030,73.073 333.360,73.830 338.200 C 74.586 343.040,75.474 348.754,75.803 350.897 C 76.131 353.041,76.400 357.280,76.400 360.317 C 76.400 363.618,76.568 366.008,76.817 366.257 C 77.830 367.270,77.094 373.389,75.942 373.522 L 74.885 373.645 74.716 378.322 C 74.488 384.618,74.049 383.916,81.335 388.902 C 82.864 389.948,84.314 391.059,84.557 391.370 C 86.278 393.574,103.191 403.441,113.400 408.198 C 116.040 409.428,118.513 410.606,118.895 410.817 C 119.277 411.028,119.834 411.200,120.133 411.200 C 120.433 411.200,121.093 411.560,121.600 412.000 C 122.107 412.440,122.720 412.800,122.961 412.799 C 123.203 412.798,124.660 413.326,126.200 413.971 C 131.091 416.020,134.132 417.103,139.536 418.721 L 144.800 420.297 144.799 408.049 C 144.799 401.312,144.680 391.345,144.535 385.900 L 144.272 376.000 127.821 376.000 C 104.248 376.000,105.916 377.473,106.086 356.800 C 106.212 341.509,106.224 341.436,108.894 339.532 L 110.200 338.600 127.500 338.488 L 144.800 338.376 144.707 328.813 L 144.613 319.251 135.207 319.125 C 120.612 318.931,121.400 320.015,121.400 300.129 C 121.400 280.672,120.505 281.898,134.928 281.600 L 144.600 281.400 144.708 272.500 L 144.815 263.600 149.255 263.600 L 153.695 263.600 153.547 272.500 L 153.400 281.400 190.671 281.600 C 227.780 281.799,227.947 281.804,229.071 282.642 C 231.695 284.598,231.710 284.688,231.897 299.946 L 232.066 313.800 231.133 315.600 C 230.457 316.904,229.708 317.648,228.415 318.300 L 226.630 319.200 190.170 319.200 L 153.709 319.200 153.418 328.379 C 153.258 333.428,153.244 337.748,153.387 337.979 C 153.566 338.268,164.800 338.403,189.324 338.410 C 226.414 338.420,227.774 338.478,229.538 340.124 C 231.551 342.003,231.576 342.202,231.691 357.263 L 231.800 371.400 230.838 372.947 C 228.840 376.162,231.255 375.981,190.164 375.991 L 153.728 376.000 153.464 386.265 C 152.876 409.130,153.074 412.742,155.078 415.686 C 157.237 418.857,156.484 418.770,182.608 418.876 C 215.481 419.009,216.931 419.057,216.683 420.003 C 216.574 420.420,216.691 420.831,216.942 420.916 C 217.267 421.025,217.240 421.263,216.851 421.735 C 216.549 422.101,216.477 422.400,216.690 422.400 C 216.904 422.400,217.095 422.981,217.115 423.692 C 217.135 424.403,217.343 425.048,217.576 425.125 C 217.809 425.203,218.000 425.787,218.000 426.424 L 218.000 427.581 266.900 427.590 L 315.800 427.598 317.875 426.405 C 322.699 423.632,323.160 422.092,323.182 408.700 L 323.200 398.000 319.000 398.000 L 314.800 398.000 314.800 388.263 L 314.800 378.525 321.100 378.264 C 330.426 377.877,337.514 377.937,337.804 378.406 C 338.133 378.939,387.753 378.930,389.613 378.396 C 391.403 377.883,392.988 376.285,393.543 374.434 C 394.259 372.041,394.161 284.142,393.440 282.841 C 392.980 282.011,393.037 281.415,393.858 278.441 C 407.160 230.233,399.411 171.996,373.848 128.048 C 372.391 125.545,371.200 123.394,371.200 123.270 C 371.200 122.439,362.266 109.597,358.868 105.543 C 355.954 102.067,355.726 101.774,355.552 101.287 C 355.193 100.284,345.850 89.954,342.000 86.304 L 337.800 82.323 337.699 180.971 L 337.598 279.618 330.499 279.509 L 323.400 279.400 323.400 176.800 L 323.400 74.200 322.554 72.372 C 321.526 70.149,319.148 67.741,317.031 66.779 L 315.462 66.066 316.631 65.933 C 317.788 65.801,314.967 63.243,310.446 60.325 C 309.871 59.953,309.220 59.497,309.000 59.312 C 305.662 56.498,305.200 56.809,305.200 61.867 L 305.200 66.000 276.300 66.018 C 260.405 66.028,243.147 66.136,237.949 66.259 C 230.263 66.440,228.432 66.380,228.149 65.941 C 227.955 65.640,227.866 50.906,227.948 32.700 L 228.096 -0.000 217.591 -0.000 L 207.085 -0.000 207.348 9.500 M278.197 17.124 C 273.721 19.218,271.959 24.554,274.236 29.121 C 275.354 31.366,275.569 31.488,276.914 30.643 C 277.702 30.147,278.242 30.231,281.800 31.396 C 286.298 32.870,286.935 32.781,288.937 30.402 C 294.638 23.626,286.309 13.330,278.197 17.124 M153.029 67.372 C 153.454 67.797,153.502 68.205,153.216 68.958 C 152.968 69.612,152.969 70.057,153.220 70.212 C 153.434 70.344,153.598 70.936,153.585 71.526 C 153.552 72.992,153.804 74.689,154.340 76.625 C 154.728 78.024,154.680 78.466,153.995 79.809 C 153.215 81.340,153.200 82.253,153.200 128.085 L 153.200 174.800 148.957 174.800 L 144.713 174.800 144.873 124.675 L 145.033 74.549 146.148 72.271 C 147.239 70.041,148.603 68.681,151.003 67.429 C 152.457 66.671,152.332 66.675,153.029 67.372 M197.511 108.623 C 198.561 109.358,198.926 123.714,197.920 124.720 C 196.946 125.694,195.828 125.229,195.000 123.506 C 192.792 118.912,186.501 118.966,184.649 123.595 C 184.142 124.863,183.799 125.200,183.017 125.200 C 181.416 125.200,181.200 124.158,181.200 116.449 C 181.200 107.325,180.513 108.000,189.800 108.000 C 195.327 108.000,196.791 108.118,197.511 108.623 M188.800 111.082 C 185.848 112.162,185.284 115.696,187.747 117.691 C 190.675 120.063,194.998 116.160,193.188 112.778 C 192.451 111.400,190.254 110.551,188.800 111.082 M268.550 112.092 C 268.885 112.625,268.835 112.936,268.332 113.439 C 267.250 114.522,205.079 114.540,204.869 113.458 C 204.553 111.828,204.812 111.808,228.520 111.590 C 265.636 111.248,268.037 111.279,268.550 112.092 M191.000 114.556 C 191.000 114.972,190.674 115.512,190.277 115.756 C 189.309 116.350,188.145 114.989,188.872 114.114 C 189.526 113.325,191.000 113.632,191.000 114.556 M233.000 121.200 L 233.000 122.200 227.200 122.450 C 215.105 122.971,205.197 122.857,204.943 122.195 C 204.319 120.570,205.214 120.419,216.144 120.292 C 233.962 120.087,233.000 120.035,233.000 121.200 M191.326 122.865 C 192.226 123.345,193.165 124.371,193.187 124.900 C 193.194 125.065,191.648 125.200,189.751 125.200 L 186.302 125.200 186.894 124.300 C 187.992 122.631,189.792 122.048,191.326 122.865 M277.315 139.700 C 273.376 151.014,285.886 161.883,296.905 156.720 L 299.210 155.640 299.105 203.120 L 299.000 250.600 298.068 251.906 C 296.002 254.804,299.867 254.588,247.900 254.706 L 201.200 254.813 201.199 216.906 C 201.197 169.998,202.841 175.200,188.013 175.200 L 179.200 175.200 179.201 158.900 C 179.201 140.725,179.197 140.753,181.959 138.908 L 183.318 138.000 230.612 138.000 L 277.906 138.000 277.315 139.700 M296.669 141.835 C 296.894 142.421,291.102 148.800,290.345 148.800 C 289.611 148.800,285.979 144.545,286.085 143.809 C 286.273 142.503,287.564 142.608,289.051 144.049 L 290.417 145.373 292.504 143.287 C 294.642 141.149,296.197 140.606,296.669 141.835 M223.800 165.182 C 221.416 166.168,221.009 167.272,220.872 173.131 L 220.744 178.600 222.842 184.400 C 224.872 190.014,224.939 190.334,224.936 194.400 L 224.933 198.600 220.267 211.530 C 213.115 231.347,211.206 229.600,240.002 229.600 L 261.280 229.600 262.640 228.240 C 264.600 226.280,264.517 225.902,259.353 213.200 C 251.543 193.992,251.622 194.452,254.400 184.400 C 258.006 171.354,256.445 164.822,249.717 164.806 L 247.234 164.800 245.007 167.591 C 240.544 173.185,237.621 173.268,232.178 167.955 L 228.945 164.800 226.773 164.825 C 225.578 164.839,224.240 165.000,223.800 165.182 M230.563 169.963 C 232.991 172.409,234.463 173.383,236.900 174.154 C 237.519 174.349,237.600 174.972,237.600 179.538 C 237.600 184.911,237.935 186.017,239.395 185.457 C 239.891 185.267,240.001 184.303,240.006 180.113 C 240.013 174.338,239.972 174.455,242.350 173.406 C 243.549 172.876,244.791 171.778,246.295 169.917 C 252.608 162.104,255.793 169.890,252.032 183.942 C 251.170 187.164,250.349 190.655,250.208 191.700 L 249.951 193.600 238.775 193.600 L 227.600 193.600 227.596 192.300 C 227.594 191.585,226.604 188.051,225.396 184.447 C 220.637 170.243,223.335 162.679,230.563 169.963 M52.640 176.933 C 54.638 178.651,53.813 181.527,50.510 184.357 C 47.869 186.621,46.223 186.037,43.435 181.844 C 41.166 178.433,43.905 174.835,47.203 176.894 C 47.853 177.301,48.191 177.267,49.097 176.705 C 50.589 175.780,51.358 175.830,52.640 176.933 M250.404 196.808 C 251.215 198.322,250.658 198.400,238.976 198.400 L 227.600 198.400 227.600 197.467 C 227.600 195.995,227.562 196.000,239.053 196.000 C 249.600 196.000,249.987 196.028,250.404 196.808 M253.248 204.600 C 254.048 206.580,256.254 212.039,258.151 216.731 C 261.983 226.208,261.838 225.705,260.971 226.571 C 260.017 227.526,219.583 227.526,218.629 226.571 C 217.781 225.724,217.478 226.840,222.291 213.098 L 226.600 200.797 239.196 200.898 L 251.793 201.000 253.248 204.600 M105.688 206.631 C 100.775 209.079,98.653 214.742,100.875 219.471 L 101.750 221.332 102.196 219.101 C 103.047 214.837,106.384 211.109,110.329 210.013 C 112.460 209.421,168.657 209.452,170.361 210.046 C 173.169 211.025,171.189 208.264,167.912 206.631 L 165.843 205.600 136.800 205.600 L 107.757 205.600 105.688 206.631 M19.005 277.726 C 18.329 279.344,18.213 280.800,18.760 280.800 C 19.191 280.800,20.194 276.861,19.850 276.517 C 19.718 276.385,19.338 276.929,19.005 277.726 M206.489 292.223 C 205.314 293.045,205.086 307.029,206.229 308.171 C 207.165 309.108,207.880 308.935,208.184 307.700 C 209.537 302.212,217.735 302.077,219.629 307.511 C 220.122 308.926,220.806 309.137,221.771 308.171 C 222.297 307.646,222.400 306.341,222.400 300.194 C 222.400 290.917,223.067 291.600,214.000 291.600 C 208.654 291.600,207.207 291.720,206.489 292.223 M144.267 294.667 C 142.528 296.406,142.445 296.400,169.376 296.400 C 195.001 296.400,195.919 296.349,194.785 294.982 C 194.275 294.367,144.875 294.058,144.267 294.667 M216.602 295.301 C 219.330 297.647,217.615 302.182,214.000 302.182 C 211.815 302.182,210.000 300.359,210.000 298.163 C 210.000 294.965,214.130 293.174,216.602 295.301 M213.467 297.467 C 212.889 298.044,213.217 299.200,213.957 299.200 C 214.872 299.200,215.310 298.270,214.689 297.649 C 214.175 297.135,213.847 297.086,213.467 297.467 M164.000 305.557 C 164.000 306.761,164.499 306.800,179.784 306.800 C 194.709 306.800,195.912 306.675,195.011 305.218 C 194.468 304.339,164.000 304.673,164.000 305.557 M299.514 305.300 C 299.896 305.763,300.643 308.154,301.701 312.300 L 302.135 314.000 304.094 314.000 C 305.775 314.000,306.024 313.900,305.842 313.300 C 305.725 312.915,305.462 311.835,305.257 310.900 L 304.885 309.200 332.689 309.200 L 360.493 309.200 360.302 310.100 C 360.197 310.595,358.088 317.300,355.616 325.000 C 353.144 332.700,350.771 340.127,350.343 341.504 L 349.565 344.008 331.085 343.904 L 312.606 343.800 312.184 341.800 C 311.779 339.884,311.701 339.795,310.319 339.678 L 308.877 339.556 309.564 342.278 L 310.251 345.000 324.625 345.200 L 339.000 345.400 339.000 346.600 C 339.000 347.751,338.922 347.805,337.059 347.924 C 335.189 348.043,335.143 348.074,335.798 348.798 C 338.233 351.488,333.653 357.357,330.500 355.587 C 328.663 354.555,328.059 353.038,328.900 351.563 C 329.285 350.888,329.600 350.139,329.600 349.899 C 329.600 349.659,329.898 349.134,330.262 348.731 C 330.901 348.025,330.671 348.000,323.646 348.000 L 316.369 348.000 317.184 348.875 C 318.743 350.548,318.067 353.180,315.614 354.990 C 311.782 357.817,308.625 353.166,311.615 349.100 L 312.424 348.000 310.461 348.000 C 307.673 348.000,308.600 350.535,302.202 325.400 C 300.970 320.560,299.410 314.575,298.736 312.100 L 297.509 307.600 293.981 307.600 C 290.156 307.600,288.789 306.675,290.627 305.330 C 291.604 304.616,298.930 304.591,299.514 305.300 M212.000 307.200 C 210.665 308.535,211.032 308.800,214.224 308.800 C 217.381 308.800,217.468 308.720,216.077 307.100 C 215.252 306.139,213.006 306.194,212.000 307.200 M43.422 313.700 C 43.304 314.415,42.464 322.395,41.554 331.433 L 39.900 347.866 41.409 350.033 C 43.434 352.940,49.555 360.221,53.454 364.360 C 57.123 368.255,58.646 368.459,58.221 365.000 C 58.113 364.120,57.918 361.420,57.787 359.000 C 57.522 354.099,57.458 353.874,48.547 326.500 C 43.662 311.497,43.749 311.714,43.422 313.700 M303.200 317.230 C 303.200 317.466,304.309 321.966,305.665 327.230 L 308.131 336.800 309.596 336.800 L 311.060 336.800 308.830 326.802 L 306.600 316.805 304.900 316.802 C 303.953 316.801,303.200 316.990,303.200 317.230 M19.293 334.800 C 19.293 335.570,19.375 335.885,19.476 335.500 C 19.576 335.115,19.576 334.485,19.476 334.100 C 19.375 333.715,19.293 334.030,19.293 334.800 M19.701 342.200 C 19.705 343.080,19.787 343.393,19.883 342.895 C 19.979 342.398,19.975 341.678,19.875 341.295 C 19.775 340.913,19.696 341.320,19.701 342.200 M19.744 349.600 C 19.744 351.690,19.812 352.545,19.894 351.500 C 19.976 350.455,19.976 348.745,19.894 347.700 C 19.812 346.655,19.744 347.510,19.744 349.600 M208.610 348.698 C 205.530 348.935,205.600 348.736,205.600 357.258 L 205.600 364.817 206.668 365.304 C 207.373 365.625,207.783 365.650,207.874 365.379 C 209.912 359.265,217.725 358.520,219.619 364.259 C 219.894 365.090,220.324 365.600,220.751 365.600 C 222.263 365.600,222.400 364.877,222.400 356.910 L 222.400 349.180 221.374 348.790 C 220.401 348.420,212.909 348.366,208.610 348.698 M119.300 351.465 C 119.025 351.576,118.800 352.012,118.800 352.433 C 118.800 353.183,119.585 353.200,154.544 353.200 C 174.203 353.200,191.078 353.304,192.044 353.431 C 194.237 353.720,195.702 352.887,194.836 351.843 C 194.314 351.215,120.832 350.847,119.300 351.465 M215.964 351.781 C 219.258 353.485,218.003 358.811,214.282 358.917 C 211.391 358.998,209.566 356.651,210.384 353.905 C 211.095 351.519,213.607 350.562,215.964 351.781 M213.480 354.253 C 212.795 354.939,213.208 356.055,214.100 355.928 C 214.688 355.844,215.000 355.525,215.000 355.005 C 215.000 354.212,214.011 353.722,213.480 354.253 M138.262 361.131 C 135.754 363.902,137.420 364.400,149.200 364.400 C 161.103 364.400,162.149 364.104,160.177 361.289 C 159.290 360.023,139.395 359.880,138.262 361.131 M164.189 361.212 C 163.607 361.855,163.534 362.251,163.836 363.112 L 164.218 364.200 178.809 364.502 C 194.806 364.833,194.902 364.827,195.841 363.394 C 196.443 362.475,196.442 362.324,195.837 361.400 L 195.182 360.400 180.053 360.400 C 165.357 360.400,164.903 360.423,164.189 361.212 M212.089 363.823 C 210.313 365.066,210.954 365.600,214.224 365.600 C 217.381 365.600,217.468 365.520,216.077 363.900 C 215.331 363.031,213.276 362.991,212.089 363.823 M218.800 424.000 C 218.800 424.660,218.620 425.200,218.400 425.200 C 218.180 425.200,218.000 424.660,218.000 424.000 C 218.000 423.340,218.180 422.800,218.400 422.800 C 218.620 422.800,218.800 423.340,218.800 424.000 " stroke="none" fill="#f6f4fb" fill-rule="evenodd"></path><path id="path3" d="M304.882 61.676 L 304.800 65.552 303.300 65.709 L 301.800 65.866 303.313 65.933 C 305.196 66.016,305.267 65.835,305.099 61.368 L 304.965 57.800 304.882 61.676 M182.017 108.979 C 181.117 110.064,180.895 122.875,181.754 124.186 C 182.686 125.609,183.737 125.482,184.318 123.877 C 186.258 118.512,195.587 119.028,195.599 124.500 C 195.601 125.449,196.897 125.398,197.788 124.414 C 198.389 123.749,198.473 123.074,198.328 120.047 L 198.157 116.467 195.778 113.788 C 194.470 112.315,192.907 110.545,192.303 109.855 C 190.960 108.317,183.120 107.650,182.017 108.979 M192.945 112.095 C 194.318 113.556,194.247 115.859,192.783 117.419 C 189.304 121.121,183.739 115.949,187.014 112.057 C 188.679 110.077,191.063 110.093,192.945 112.095 M264.500 111.487 C 265.105 111.578,266.095 111.578,266.700 111.487 C 267.305 111.395,266.810 111.320,265.600 111.320 C 264.390 111.320,263.895 111.395,264.500 111.487 M221.474 111.899 C 225.694 111.964,232.714 111.964,237.074 111.900 C 241.433 111.835,237.980 111.782,229.400 111.782 C 220.820 111.782,217.253 111.835,221.474 111.899 M263.800 113.600 L 259.400 113.842 263.676 113.921 C 266.185 113.967,268.055 113.835,268.200 113.600 C 268.336 113.380,268.392 113.236,268.324 113.279 C 268.256 113.323,266.220 113.467,263.800 113.600 M189.166 114.241 C 188.811 114.669,188.795 114.955,189.110 115.270 C 189.662 115.822,190.800 115.409,190.800 114.655 C 190.800 113.822,189.738 113.552,189.166 114.241 M217.900 114.299 C 222.135 114.364,229.065 114.364,233.300 114.299 C 237.535 114.235,234.070 114.182,225.600 114.182 C 217.130 114.182,213.665 114.235,217.900 114.299 M211.905 120.683 C 212.402 120.779,213.122 120.775,213.505 120.675 C 213.887 120.575,213.480 120.496,212.600 120.501 C 211.720 120.505,211.407 120.587,211.905 120.683 M187.616 123.675 C 186.349 125.035,186.586 125.200,189.800 125.200 C 192.983 125.200,193.158 125.089,192.177 123.689 C 191.316 122.459,188.756 122.452,187.616 123.675 M49.376 176.995 C 48.671 177.535,48.728 177.548,50.000 177.135 C 51.736 176.572,51.957 176.400,50.943 176.400 C 50.509 176.400,49.804 176.668,49.376 176.995 M44.300 178.121 C 43.475 178.352,42.800 178.680,42.800 178.849 C 42.800 179.018,43.655 178.911,44.700 178.610 C 45.745 178.310,46.960 177.980,47.400 177.878 C 47.901 177.762,47.751 177.694,47.000 177.697 C 46.340 177.699,45.125 177.890,44.300 178.121 M44.705 193.083 C 45.202 193.179,45.922 193.175,46.305 193.075 C 46.687 192.975,46.280 192.896,45.400 192.901 C 44.520 192.905,44.207 192.987,44.705 193.083 M39.775 196.100 L 38.600 197.400 39.900 196.225 C 40.615 195.579,41.200 194.994,41.200 194.925 C 41.200 194.616,40.870 194.888,39.775 196.100 M123.329 203.100 C 130.990 203.161,143.410 203.161,150.929 203.100 C 158.448 203.039,152.180 202.989,137.000 202.989 C 121.820 202.989,115.668 203.039,123.329 203.100 M122.500 205.500 C 130.365 205.560,143.235 205.560,151.100 205.500 C 158.965 205.439,152.530 205.390,136.800 205.390 C 121.070 205.390,114.635 205.439,122.500 205.500 M29.970 208.300 C 29.021 209.565,28.513 210.383,28.841 210.118 C 29.515 209.575,32.146 206.000,31.873 206.000 C 31.776 206.000,30.919 207.035,29.970 208.300 M170.600 208.400 C 171.459 209.280,172.252 210.000,172.362 210.000 C 172.472 210.000,171.859 209.280,171.000 208.400 C 170.141 207.520,169.348 206.800,169.238 206.800 C 169.128 206.800,169.741 207.520,170.600 208.400 M56.209 209.972 C 56.064 210.430,55.468 211.388,54.886 212.102 C 53.973 213.222,53.955 213.291,54.755 212.601 C 55.757 211.737,56.980 209.646,56.666 209.333 C 56.560 209.227,56.354 209.514,56.209 209.972 M141.800 210.301 C 128.157 210.384,124.924 210.505,124.594 210.949 C 124.371 211.249,123.606 211.623,122.894 211.779 C 121.923 211.993,121.598 212.280,121.594 212.932 C 121.589 213.645,121.516 213.693,121.187 213.200 C 120.831 212.668,120.744 212.669,120.422 213.212 C 120.142 213.684,119.123 213.849,115.938 213.938 C 111.145 214.073,110.650 214.327,111.012 216.469 L 111.270 218.000 109.635 218.000 C 108.087 218.000,107.217 218.770,108.700 218.827 C 109.515 218.859,107.086 219.986,104.819 220.628 C 104.279 220.780,103.599 221.144,103.307 221.436 C 103.015 221.727,102.467 221.855,102.088 221.719 C 100.630 221.196,103.361 223.609,105.346 224.598 L 107.357 225.600 136.800 225.600 L 166.243 225.600 168.322 224.564 C 172.102 222.681,174.313 218.740,173.889 214.645 C 173.649 212.339,172.800 210.152,172.397 210.804 C 172.213 211.103,171.784 211.088,170.967 210.753 C 169.643 210.210,166.074 210.155,141.800 210.301 M99.709 215.600 C 99.709 216.590,99.787 216.995,99.882 216.500 C 99.978 216.005,99.978 215.195,99.882 214.700 C 99.787 214.205,99.709 214.610,99.709 215.600 M164.164 215.051 C 164.830 216.786,164.876 216.783,137.738 216.894 L 111.965 217.000 111.745 216.123 C 111.307 214.378,110.974 214.400,137.981 214.400 C 161.562 214.400,163.937 214.459,164.164 215.051 M176.218 216.600 C 175.209 222.254,172.333 225.760,167.376 227.380 C 165.617 227.955,162.177 228.013,136.000 227.913 L 106.600 227.800 104.800 226.858 L 103.000 225.915 104.963 227.936 C 106.043 229.047,107.708 230.371,108.663 230.877 C 110.946 232.088,111.155 231.780,105.100 236.123 C 102.185 238.213,99.107 240.448,98.261 241.088 L 96.722 242.252 96.607 246.572 L 96.493 250.891 94.949 252.746 C 94.099 253.766,91.811 256.355,89.864 258.500 C 87.917 260.645,86.419 262.400,86.535 262.400 C 86.824 262.400,97.156 250.955,102.443 244.778 C 104.808 242.015,107.700 239.038,108.871 238.160 C 110.886 236.651,111.000 236.470,111.000 234.783 C 111.000 233.802,111.146 232.775,111.324 232.500 C 111.578 232.108,117.906 232.000,140.745 232.000 L 169.843 232.000 171.837 231.006 C 177.323 228.272,179.868 221.948,177.472 217.000 L 176.504 215.000 176.218 216.600 M201.385 234.800 C 201.385 245.690,201.437 250.145,201.500 244.700 C 201.563 239.255,201.563 230.345,201.500 224.900 C 201.437 219.455,201.385 223.910,201.385 234.800 M50.493 222.000 C 50.493 222.770,50.575 223.085,50.676 222.700 C 50.776 222.315,50.776 221.685,50.676 221.300 C 50.575 220.915,50.493 221.230,50.493 222.000 M100.800 224.200 C 101.546 224.970,102.247 225.600,102.357 225.600 C 102.467 225.600,101.946 224.970,101.200 224.200 C 100.454 223.430,99.753 222.800,99.643 222.800 C 99.533 222.800,100.054 223.430,100.800 224.200 M50.032 224.485 C 49.948 227.343,46.309 245.525,45.448 247.382 C 40.521 258.016,20.142 260.148,9.778 251.114 C 8.203 249.741,7.995 249.639,8.733 250.600 C 10.881 253.398,16.058 256.001,21.245 256.890 C 23.312 257.245,23.968 257.507,23.811 257.916 C 23.695 258.218,23.600 259.283,23.600 260.282 C 23.600 261.928,23.538 262.047,22.936 261.549 C 22.329 261.048,22.319 261.077,22.820 261.881 C 23.357 262.743,22.991 266.675,22.154 269.035 C 21.969 269.555,22.014 269.672,22.293 269.400 C 22.519 269.180,22.932 268.280,23.211 267.400 C 23.490 266.520,24.097 265.426,24.559 264.968 C 25.022 264.511,25.681 263.791,26.024 263.368 C 26.367 262.946,27.513 261.880,28.570 261.000 C 29.628 260.120,31.137 258.817,31.924 258.105 C 32.711 257.393,33.995 256.604,34.778 256.350 C 40.912 254.365,45.810 249.835,46.953 245.090 C 47.188 244.115,48.480 242.400,48.979 242.400 C 50.163 242.400,51.167 240.333,51.324 237.575 C 51.515 234.196,50.943 225.904,50.414 224.400 L 50.063 223.400 50.032 224.485 M7.663 227.765 C 6.309 229.176,5.200 230.466,5.200 230.632 C 5.200 230.798,5.253 230.858,5.318 230.767 C 5.383 230.675,6.581 229.385,7.981 227.900 C 9.381 226.415,10.437 225.200,10.327 225.200 C 10.217 225.200,9.018 226.354,7.663 227.765 M53.044 226.213 C 52.449 226.808,51.732 229.465,52.074 229.807 C 52.168 229.901,52.727 228.993,53.318 227.789 C 54.371 225.642,54.259 224.998,53.044 226.213 M4.249 232.615 C 4.112 232.973,4.021 233.746,4.046 234.333 C 4.080 235.132,4.170 234.998,4.404 233.800 C 4.735 232.100,4.662 231.540,4.249 232.615 M3.693 237.200 C 3.693 237.970,3.775 238.285,3.876 237.900 C 3.976 237.515,3.976 236.885,3.876 236.500 C 3.775 236.115,3.693 236.430,3.693 237.200 M5.205 245.022 C 5.199 245.558,7.496 249.200,7.840 249.200 C 7.982 249.200,7.911 248.974,7.682 248.698 C 7.453 248.423,6.803 247.388,6.238 246.398 C 5.672 245.409,5.207 244.790,5.205 245.022 M75.361 257.099 C 76.055 257.918,77.200 257.777,77.200 256.871 C 77.200 256.744,76.986 256.854,76.725 257.115 C 76.359 257.481,76.062 257.430,75.425 256.895 C 74.602 256.202,74.602 256.202,75.361 257.099 M13.100 261.482 C 13.595 261.578,14.405 261.578,14.900 261.482 C 15.395 261.387,14.990 261.309,14.000 261.309 C 13.010 261.309,12.605 261.387,13.100 261.482 M18.700 261.482 C 19.195 261.578,20.005 261.578,20.500 261.482 C 20.995 261.387,20.590 261.309,19.600 261.309 C 18.610 261.309,18.205 261.387,18.700 261.482 M12.101 266.200 C 12.105 267.080,12.187 267.393,12.283 266.895 C 12.379 266.398,12.375 265.678,12.275 265.295 C 12.175 264.913,12.096 265.320,12.101 266.200 M7.542 294.282 C 6.581 294.430,5.569 296.654,6.369 296.859 C 7.160 297.062,10.400 296.996,10.400 296.777 C 10.400 296.631,12.425 296.565,14.900 296.630 C 17.375 296.695,18.957 296.619,18.415 296.460 C 17.837 296.290,17.336 295.775,17.203 295.215 C 16.970 294.227,14.643 293.974,10.500 294.485 C 9.785 294.574,9.200 294.501,9.200 294.323 C 9.200 294.145,9.065 294.027,8.900 294.060 C 8.735 294.093,8.124 294.193,7.542 294.282 M211.631 295.436 C 208.994 297.655,210.491 302.000,213.893 302.000 C 216.775 302.000,218.490 299.697,217.605 297.017 C 216.750 294.426,213.769 293.637,211.631 295.436 M28.959 298.500 C 29.102 299.215,29.394 299.860,29.608 299.933 C 29.823 300.006,29.894 300.482,29.767 300.989 C 29.639 301.497,29.710 302.021,29.924 302.153 C 30.137 302.285,30.435 301.738,30.585 300.938 C 30.766 299.973,30.696 299.383,30.378 299.186 C 30.114 299.023,30.034 298.669,30.200 298.400 C 30.370 298.125,30.260 297.757,29.951 297.561 C 28.958 296.932,28.696 297.180,28.959 298.500 M215.067 297.831 C 215.200 298.178,215.015 298.757,214.655 299.117 C 213.836 299.935,212.599 298.988,213.028 297.871 C 213.354 297.022,214.746 296.995,215.067 297.831 M211.200 304.301 C 210.287 304.757,209.483 305.626,208.889 306.800 L 207.979 308.600 209.236 308.729 C 210.248 308.833,210.705 308.605,211.575 307.562 C 213.064 305.779,214.880 305.769,216.457 307.533 C 218.097 309.369,220.110 309.377,219.584 307.545 C 218.622 304.189,214.566 302.619,211.200 304.301 M19.334 309.200 C 19.334 310.850,19.405 311.525,19.491 310.700 C 19.578 309.875,19.578 308.525,19.491 307.700 C 19.405 306.875,19.334 307.550,19.334 309.200 M305.748 311.165 C 305.886 312.026,306.115 313.033,306.257 313.403 C 306.485 313.998,306.229 314.061,304.076 313.938 C 302.734 313.862,301.771 313.934,301.935 314.097 C 302.099 314.260,313.026 314.440,326.217 314.497 L 350.200 314.600 350.170 315.800 C 350.134 317.210,344.074 338.367,343.496 339.100 C 343.193 339.485,339.545 339.600,327.700 339.600 L 312.298 339.600 312.563 341.262 C 312.710 342.176,312.923 343.076,313.038 343.262 C 313.153 343.448,321.330 343.600,331.208 343.600 L 349.169 343.600 354.364 327.700 C 357.222 318.955,359.678 311.305,359.823 310.700 L 360.087 309.600 332.792 309.600 L 305.498 309.600 305.748 311.165 M302.399 316.685 C 302.399 316.858,303.446 316.941,304.725 316.868 L 307.052 316.736 309.167 326.243 C 310.331 331.472,311.373 335.986,311.484 336.275 C 311.732 336.920,308.182 337.033,307.863 336.390 C 307.752 336.165,307.706 336.210,307.762 336.490 C 307.864 337.004,312.373 337.449,313.417 337.049 C 313.795 336.904,313.407 334.366,311.841 326.728 L 309.763 316.600 306.081 316.485 C 304.057 316.422,302.400 316.512,302.399 316.685 M312.427 317.289 C 312.442 317.790,313.302 322.430,314.337 327.600 L 316.220 337.000 320.117 337.115 L 324.014 337.229 323.907 326.915 L 323.800 316.600 318.100 316.489 L 312.400 316.378 312.427 317.289 M326.667 316.667 C 326.520 316.813,326.400 321.493,326.400 327.067 L 326.400 337.200 329.576 337.200 C 331.323 337.200,332.859 337.028,332.989 336.818 C 333.378 336.188,337.141 317.028,336.939 316.702 C 336.709 316.330,327.037 316.297,326.667 316.667 M339.401 317.300 C 338.874 319.515,335.600 336.204,335.600 336.675 C 335.600 337.064,336.413 337.200,338.731 337.200 L 341.862 337.200 344.732 327.100 C 346.310 321.545,347.601 316.865,347.601 316.700 C 347.599 315.813,339.616 316.397,339.401 317.300 M146.900 319.096 C 148.165 319.175,150.235 319.175,151.500 319.096 C 152.765 319.016,151.730 318.951,149.200 318.951 C 146.670 318.951,145.635 319.016,146.900 319.096 M19.693 339.600 C 19.693 340.370,19.775 340.685,19.876 340.300 C 19.976 339.915,19.976 339.285,19.876 338.900 C 19.775 338.515,19.693 338.830,19.693 339.600 M109.600 339.501 C 106.554 341.022,106.400 341.896,106.400 357.626 C 106.400 371.339,106.409 371.495,107.301 372.819 C 109.392 375.922,103.752 375.664,168.835 375.630 L 226.892 375.599 228.382 374.762 C 231.320 373.111,231.494 372.337,231.297 361.763 L 231.200 356.527 229.500 355.975 C 228.565 355.672,227.539 355.449,227.220 355.481 C 226.901 355.512,226.147 355.283,225.545 354.972 C 223.314 353.818,222.800 354.919,222.800 360.850 C 222.800 366.055,223.096 365.892,213.812 365.815 C 204.415 365.737,205.200 366.528,205.200 357.138 C 205.200 349.446,205.128 349.200,202.860 349.200 C 202.424 349.200,202.007 349.036,201.933 348.836 C 201.860 348.635,198.380 347.644,194.200 346.633 C 187.076 344.910,183.571 343.968,181.200 343.137 C 180.650 342.944,179.660 342.715,179.000 342.627 C 177.749 342.461,170.025 340.443,166.654 339.401 C 163.476 338.419,111.583 338.510,109.600 339.501 M308.667 339.467 C 308.520 339.613,308.403 339.928,308.406 340.167 C 308.410 340.446,308.518 340.433,308.711 340.130 C 308.876 339.871,309.728 339.586,310.605 339.497 L 312.200 339.334 310.567 339.267 C 309.668 339.230,308.813 339.320,308.667 339.467 M19.693 344.800 C 19.693 345.570,19.775 345.885,19.876 345.500 C 19.976 345.115,19.976 344.485,19.876 344.100 C 19.775 343.715,19.693 344.030,19.693 344.800 M313.880 350.253 C 313.195 350.939,313.608 352.055,314.500 351.928 C 315.088 351.844,315.400 351.525,315.400 351.005 C 315.400 350.212,314.411 349.722,313.880 350.253 M332.126 350.648 C 332.018 350.930,332.046 351.350,332.188 351.581 C 332.574 352.205,333.881 352.087,334.143 351.405 C 334.275 351.061,334.166 350.850,333.886 350.905 C 333.619 350.957,333.435 350.805,333.478 350.567 C 333.588 349.953,332.365 350.026,332.126 350.648 M310.841 352.071 C 310.777 354.993,313.167 356.527,315.208 354.874 L 316.104 354.149 314.738 354.308 C 313.001 354.511,311.651 353.472,311.209 351.590 C 310.884 350.207,310.882 350.209,310.841 352.071 M195.127 352.300 L 195.000 353.400 157.151 353.502 C 123.855 353.592,119.241 353.532,118.802 353.002 C 117.285 351.175,116.753 351.200,157.276 351.200 L 195.253 351.200 195.127 352.300 M328.990 352.103 C 328.646 353.465,329.607 355.086,330.959 355.425 C 331.820 355.641,335.200 354.328,335.200 353.778 C 335.200 353.665,334.852 353.758,334.426 353.986 C 332.638 354.943,330.997 354.296,329.898 352.200 L 329.269 351.000 328.990 352.103 M160.069 360.662 C 160.979 361.486,161.012 363.102,160.138 364.069 C 159.175 365.132,139.500 365.195,138.331 364.138 C 137.310 363.213,137.391 361.391,138.489 360.623 C 139.860 359.662,159.002 359.697,160.069 360.662 M195.669 360.662 C 196.579 361.486,196.612 363.102,195.738 364.069 C 194.769 365.139,165.510 365.204,164.331 364.138 C 163.421 363.314,163.388 361.698,164.262 360.731 C 165.231 359.661,194.490 359.596,195.669 360.662 M73.804 373.993 C 73.666 374.217,73.731 374.400,73.950 374.400 C 74.168 374.400,74.422 374.895,74.513 375.500 C 74.671 376.542,74.683 376.533,74.740 375.324 C 74.801 374.025,74.260 373.256,73.804 373.993 M23.600 374.245 C 28.970 374.623,28.668 373.963,27.436 382.600 C 27.092 385.020,26.720 387.900,26.612 389.000 C 26.414 390.997,25.858 395.218,25.295 399.000 C 25.131 400.100,24.998 401.765,24.999 402.700 C 24.999 403.634,24.886 404.399,24.747 404.400 C 24.608 404.400,24.486 405.345,24.477 406.500 C 24.467 407.655,24.279 409.320,24.060 410.200 C 23.840 411.080,23.613 412.520,23.556 413.400 C 23.498 414.280,23.289 415.217,23.091 415.482 C 22.893 415.748,22.838 416.138,22.969 416.349 C 23.175 416.683,23.052 417.802,22.213 423.243 C 22.058 424.250,22.177 424.317,25.545 425.143 C 30.531 426.366,33.214 426.265,33.188 424.857 C 33.177 424.274,33.130 424.279,32.768 424.900 C 31.931 426.338,29.778 425.818,29.666 424.151 C 29.588 422.989,29.690 422.749,30.184 422.939 C 30.928 423.224,30.986 422.761,30.300 422.021 C 29.900 421.590,29.900 421.539,30.300 421.765 C 30.931 422.121,30.954 421.514,30.333 420.893 C 29.977 420.537,30.020 420.367,30.514 420.178 C 31.037 419.977,31.135 419.453,31.022 417.464 C 30.934 415.912,31.004 415.296,31.213 415.800 C 31.489 416.468,31.548 416.391,31.572 415.333 C 31.587 414.637,31.375 413.976,31.100 413.865 C 30.715 413.710,30.721 413.656,31.124 413.632 C 31.412 413.614,31.536 413.420,31.400 413.200 C 31.264 412.980,31.318 412.800,31.520 412.800 C 31.722 412.800,31.865 411.975,31.837 410.966 C 31.810 409.957,31.907 409.058,32.053 408.967 C 32.199 408.877,32.281 408.037,32.236 407.102 C 32.190 406.166,32.318 405.178,32.519 404.908 C 32.721 404.637,32.816 403.692,32.732 402.808 C 32.648 401.923,32.697 401.200,32.842 401.200 C 32.987 401.200,33.228 399.805,33.376 398.100 C 33.525 396.395,33.733 394.280,33.840 393.400 C 35.185 382.305,35.873 374.935,35.589 374.642 C 35.399 374.445,32.129 374.240,28.322 374.187 C 24.515 374.133,22.390 374.159,23.600 374.245 M66.700 374.295 C 67.855 374.376,69.745 374.376,70.900 374.295 C 72.055 374.214,71.110 374.148,68.800 374.148 C 66.490 374.148,65.545 374.214,66.700 374.295 M74.128 380.800 C 74.128 382.230,74.201 382.815,74.289 382.100 C 74.378 381.385,74.378 380.215,74.289 379.500 C 74.201 378.785,74.128 379.370,74.128 380.800 M337.709 404.000 C 337.709 404.990,337.787 405.395,337.882 404.900 C 337.978 404.405,337.978 403.595,337.882 403.100 C 337.787 402.605,337.709 403.010,337.709 404.000 M337.761 412.400 C 337.761 415.810,337.822 417.205,337.897 415.500 C 337.972 413.795,337.972 411.005,337.897 409.300 C 337.822 407.595,337.761 408.990,337.761 412.400 M73.800 425.051 C 73.800 426.611,74.001 426.703,75.000 425.600 C 75.670 424.859,75.673 424.800,75.038 424.800 C 74.661 424.800,74.452 424.639,74.574 424.442 C 74.696 424.245,74.571 423.998,74.298 423.893 C 73.961 423.764,73.800 424.139,73.800 425.051 M316.800 427.635 C 315.590 427.764,317.840 427.878,321.800 427.887 C 325.760 427.897,329.540 427.787,330.200 427.641 C 331.679 427.316,319.842 427.310,316.800 427.635 M164.729 427.900 C 171.179 427.962,181.619 427.962,187.929 427.900 C 194.238 427.838,188.960 427.787,176.200 427.787 C 163.440 427.787,158.278 427.838,164.729 427.900 " stroke="none" fill="#c4a8e4" fill-rule="evenodd"></path><path id="path4" d="M199.600 32.994 L 199.600 65.989 187.100 66.132 C 180.225 66.210,182.610 66.205,192.400 66.120 C 202.190 66.036,210.650 65.907,211.200 65.834 C 211.750 65.762,213.460 65.676,215.000 65.645 C 218.365 65.576,219.246 65.189,218.265 64.208 C 217.899 63.842,217.600 63.026,217.600 62.395 C 217.600 61.764,217.444 61.151,217.254 61.033 C 217.063 60.915,216.994 60.365,217.100 59.810 C 217.222 59.175,217.111 58.800,216.804 58.800 C 216.514 58.800,216.417 58.532,216.567 58.142 C 216.706 57.780,216.555 57.192,216.232 56.835 C 215.908 56.478,215.647 55.469,215.650 54.593 C 215.659 52.107,215.578 51.600,215.175 51.600 C 214.969 51.600,214.800 51.006,214.800 50.280 C 214.800 49.554,214.603 48.763,214.363 48.523 C 214.123 48.283,213.873 47.572,213.808 46.943 C 213.742 46.314,213.210 43.730,212.624 41.200 C 212.038 38.670,211.500 36.150,211.427 35.600 C 211.355 35.050,211.082 33.790,210.822 32.800 C 210.561 31.810,210.291 30.550,210.221 30.000 C 210.152 29.450,209.784 28.402,209.403 27.670 C 208.968 26.833,208.799 25.907,208.946 25.170 C 209.075 24.527,209.027 24.000,208.840 24.000 C 207.927 24.000,207.277 16.402,207.224 5.100 L 207.200 0.000 203.400 0.000 L 199.600 0.000 199.600 32.994 M276.600 30.800 L 275.535 31.499 276.667 32.269 C 280.650 34.977,285.554 34.498,288.624 31.101 L 289.800 29.800 288.600 30.851 C 287.007 32.247,285.685 32.900,285.137 32.561 C 283.005 31.243,277.618 30.132,276.600 30.800 M227.714 56.200 C 227.717 57.300,227.795 57.703,227.887 57.095 C 227.979 56.486,227.977 55.586,227.882 55.095 C 227.787 54.603,227.711 55.100,227.714 56.200 M227.677 61.820 C 227.579 66.446,227.550 66.420,232.580 66.322 L 236.600 66.243 232.400 66.022 L 228.200 65.800 227.977 62.000 L 227.753 58.200 227.677 61.820 M316.631 65.893 L 315.462 66.066 317.031 66.779 C 319.148 67.741,321.526 70.149,322.554 72.372 L 323.400 74.200 323.400 176.800 L 323.400 279.400 330.500 279.509 L 337.600 279.618 337.700 180.909 C 337.755 126.619,337.783 80.310,337.763 78.000 C 337.674 67.839,330.651 63.815,316.631 65.893 M240.700 66.282 C 241.195 66.378,242.005 66.378,242.500 66.282 C 242.995 66.187,242.590 66.109,241.600 66.109 C 240.610 66.109,240.205 66.187,240.700 66.282 M151.003 67.429 C 148.603 68.681,147.239 70.041,146.148 72.271 L 145.033 74.549 144.873 124.675 L 144.713 174.800 148.957 174.800 L 153.200 174.800 153.200 128.085 C 153.200 82.253,153.215 81.340,153.995 79.809 C 154.680 78.466,154.728 78.024,154.340 76.625 C 153.804 74.689,153.552 72.992,153.585 71.526 C 153.598 70.936,153.434 70.344,153.220 70.212 C 152.969 70.057,152.968 69.612,153.216 68.958 C 153.879 67.214,152.819 66.482,151.003 67.429 M186.903 108.368 C 191.104 108.595,191.232 108.630,192.303 109.855 C 192.906 110.545,194.415 112.255,195.655 113.655 C 196.895 115.055,197.999 116.560,198.109 117.000 C 198.218 117.440,198.328 115.875,198.354 113.523 C 198.416 107.766,198.758 107.979,189.611 108.068 C 183.194 108.131,182.965 108.156,186.903 108.368 M181.623 108.972 C 181.362 109.287,181.220 110.232,181.307 111.072 L 181.466 112.600 181.533 110.980 C 181.570 110.089,181.816 109.144,182.080 108.880 C 182.344 108.616,182.456 108.400,182.329 108.400 C 182.202 108.400,181.884 108.657,181.623 108.972 M187.170 111.900 L 186.200 113.000 187.200 112.151 C 187.750 111.684,188.470 111.203,188.800 111.082 C 189.314 110.895,189.309 110.859,188.770 110.832 C 188.423 110.814,187.703 111.295,187.170 111.900 M191.889 111.589 C 192.598 112.021,193.266 112.786,193.374 113.288 C 193.481 113.789,193.645 114.560,193.738 115.000 C 193.841 115.487,193.925 115.303,193.954 114.531 C 194.006 113.094,192.351 110.799,191.264 110.801 C 190.856 110.802,191.097 111.106,191.889 111.589 M254.319 111.498 C 256.144 111.572,259.024 111.572,260.719 111.497 C 262.414 111.422,260.920 111.361,257.400 111.362 C 253.880 111.362,252.494 111.424,254.319 111.498 M207.900 111.895 C 209.055 111.976,210.945 111.976,212.100 111.895 C 213.255 111.814,212.310 111.748,210.000 111.748 C 207.690 111.748,206.745 111.814,207.900 111.895 M190.358 113.929 C 191.218 114.530,190.573 115.739,189.538 115.468 C 188.886 115.297,188.795 115.355,189.153 115.713 C 189.495 116.055,189.808 116.065,190.311 115.747 C 191.159 115.212,191.215 113.925,190.400 113.703 C 189.901 113.567,189.894 113.605,190.358 113.929 M243.700 114.297 C 245.405 114.372,248.195 114.372,249.900 114.297 C 251.605 114.222,250.210 114.161,246.800 114.161 C 243.390 114.161,241.995 114.222,243.700 114.297 M192.326 117.288 C 191.735 117.899,191.388 118.400,191.556 118.400 C 191.935 118.400,193.799 116.445,193.568 116.289 C 193.476 116.226,192.916 116.676,192.326 117.288 M227.200 120.248 C 229.516 120.545,233.112 120.577,232.939 120.300 C 232.837 120.135,231.278 120.027,229.476 120.060 C 227.674 120.093,226.650 120.178,227.200 120.248 M206.900 120.691 C 207.725 120.778,209.075 120.778,209.900 120.691 C 210.725 120.605,210.050 120.534,208.400 120.534 C 206.750 120.534,206.075 120.605,206.900 120.691 M216.700 122.695 C 217.855 122.776,219.745 122.776,220.900 122.695 C 222.055 122.614,221.110 122.548,218.800 122.548 C 216.490 122.548,215.545 122.614,216.700 122.695 M292.585 143.300 L 290.600 145.400 292.700 143.415 C 294.651 141.571,294.983 141.200,294.685 141.200 C 294.622 141.200,293.677 142.145,292.585 143.300 M276.514 144.200 C 276.517 145.300,276.595 145.703,276.687 145.095 C 276.779 144.486,276.777 143.586,276.682 143.095 C 276.587 142.603,276.511 143.100,276.514 144.200 M287.600 142.925 C 287.600 142.994,288.185 143.579,288.900 144.225 L 290.200 145.400 289.025 144.100 C 287.930 142.888,287.600 142.616,287.600 142.925 M289.091 158.289 C 289.801 158.377,291.061 158.379,291.891 158.292 C 292.721 158.205,292.140 158.133,290.600 158.131 C 289.060 158.129,288.381 158.200,289.091 158.289 M253.354 174.000 C 253.354 176.750,253.418 177.875,253.496 176.500 C 253.574 175.125,253.574 172.875,253.496 171.500 C 253.418 170.125,253.354 171.250,253.354 174.000 M240.155 179.800 C 240.156 182.660,240.220 183.778,240.297 182.283 C 240.374 180.789,240.374 178.449,240.296 177.083 C 240.218 175.718,240.155 176.940,240.155 179.800 M49.097 176.705 C 48.191 177.267,47.853 177.301,47.203 176.894 C 45.084 175.571,42.167 177.165,42.509 179.458 C 42.670 180.534,42.684 180.541,42.740 179.583 C 42.803 178.512,44.941 177.617,47.506 177.587 C 48.108 177.580,48.949 177.310,49.376 176.987 C 50.497 176.140,51.498 176.262,52.618 177.382 C 53.158 177.922,53.600 178.205,53.600 178.011 C 53.600 176.520,50.736 175.689,49.097 176.705 M201.383 196.200 C 201.383 205.440,201.436 209.163,201.500 204.473 C 201.564 199.783,201.564 192.223,201.499 187.673 C 201.435 183.123,201.383 186.960,201.383 196.200 M233.524 196.299 C 236.673 196.367,241.713 196.367,244.724 196.299 C 247.736 196.231,245.160 196.176,239.000 196.176 C 232.840 196.176,230.376 196.232,233.524 196.299 M250.400 197.533 C 250.400 197.876,247.342 198.025,238.900 198.094 L 227.400 198.187 238.774 198.300 C 249.417 198.405,251.565 198.232,250.673 197.340 C 250.523 197.190,250.400 197.277,250.400 197.533 M57.324 204.600 C 57.326 205.920,57.401 206.412,57.490 205.693 C 57.579 204.974,57.577 203.894,57.486 203.293 C 57.395 202.692,57.322 203.280,57.324 204.600 M107.700 203.076 C 108.085 203.176,108.715 203.176,109.100 203.076 C 109.485 202.975,109.170 202.893,108.400 202.893 C 107.630 202.893,107.315 202.975,107.700 203.076 M109.953 210.148 C 105.578 211.723,102.933 214.869,102.092 219.495 C 101.691 221.703,102.210 222.533,103.307 221.436 C 103.599 221.144,104.279 220.780,104.819 220.628 C 107.086 219.986,109.515 218.859,108.700 218.827 C 107.217 218.770,108.087 218.000,109.635 218.000 L 111.270 218.000 111.012 216.469 C 110.650 214.327,111.145 214.073,115.938 213.938 C 119.123 213.849,120.142 213.684,120.422 213.212 C 120.744 212.669,120.831 212.668,121.187 213.200 C 121.516 213.693,121.589 213.645,121.594 212.932 C 121.598 212.280,121.923 211.993,122.894 211.779 C 123.606 211.623,124.371 211.260,124.594 210.973 C 125.155 210.251,169.212 210.023,170.926 210.734 C 171.545 210.990,172.130 211.200,172.226 211.200 C 172.606 211.200,172.371 210.030,171.938 209.762 C 171.632 209.573,171.586 209.654,171.801 210.001 C 172.054 210.411,171.914 210.449,171.163 210.173 C 169.489 209.559,111.654 209.536,109.953 210.148 M176.400 214.560 C 176.400 214.648,176.848 215.683,177.396 216.860 C 177.944 218.037,178.390 218.730,178.387 218.400 C 178.381 217.680,176.932 214.400,176.620 214.400 C 176.499 214.400,176.400 214.472,176.400 214.560 M178.514 221.000 C 178.517 222.100,178.595 222.503,178.687 221.895 C 178.779 221.286,178.777 220.386,178.682 219.895 C 178.587 219.403,178.511 219.900,178.514 221.000 M50.648 224.800 C 51.952 236.908,51.431 242.400,48.979 242.400 C 48.480 242.400,47.188 244.115,46.953 245.090 C 45.810 249.835,40.912 254.365,34.778 256.350 C 33.995 256.604,32.711 257.393,31.924 258.105 C 31.137 258.817,29.628 260.120,28.570 261.000 C 27.513 261.880,26.367 262.946,26.024 263.368 C 25.681 263.791,25.020 264.511,24.556 264.968 C 24.091 265.426,23.576 266.250,23.411 266.800 C 23.246 267.350,22.873 268.340,22.581 269.000 C 22.290 269.660,21.677 271.442,21.220 272.960 C 20.763 274.478,20.076 275.976,19.695 276.290 C 19.313 276.603,19.225 276.745,19.500 276.606 C 20.116 276.294,20.126 276.746,19.553 279.023 C 19.306 280.000,18.946 280.800,18.753 280.800 C 18.559 280.800,18.400 281.597,18.400 282.571 C 18.400 284.714,17.547 285.814,16.372 285.185 C 15.761 284.858,15.600 284.338,15.600 282.686 L 15.600 280.600 13.500 280.719 C 10.800 280.873,9.764 281.409,9.186 282.953 C 8.929 283.639,8.559 284.560,8.364 285.000 C 7.976 285.874,6.800 292.419,6.800 293.702 C 6.800 294.375,6.988 294.462,8.000 294.260 C 8.660 294.128,9.200 294.161,9.200 294.333 C 9.200 294.505,9.785 294.574,10.500 294.485 C 14.670 293.970,16.970 294.225,17.205 295.229 C 17.340 295.805,17.767 296.249,18.254 296.320 C 19.189 296.456,20.119 312.027,19.211 312.330 C 18.985 312.405,18.800 312.642,18.800 312.857 C 18.800 313.072,18.980 313.136,19.200 313.000 C 19.420 312.864,19.600 313.044,19.600 313.400 C 19.600 313.756,19.437 313.946,19.237 313.823 C 19.038 313.700,18.953 313.914,19.049 314.299 C 19.145 314.685,19.281 318.780,19.350 323.400 C 19.419 328.020,19.698 339.505,19.970 348.922 C 20.422 364.609,20.408 366.128,19.809 367.042 C 18.593 368.898,19.673 374.800,21.229 374.800 C 21.433 374.800,21.600 374.620,21.600 374.400 C 21.600 373.854,30.206 373.883,34.372 374.444 C 38.704 375.027,38.527 375.314,38.659 367.505 C 38.720 363.927,39.056 358.660,39.407 355.800 C 39.757 352.940,40.043 349.790,40.042 348.800 C 40.039 346.340,43.150 314.895,43.544 313.400 C 43.859 312.202,47.629 323.128,55.344 347.600 C 58.080 356.282,59.115 365.892,57.458 367.234 C 56.366 368.119,56.401 373.851,57.504 374.700 C 58.251 375.276,60.000 375.374,60.000 374.840 C 60.000 374.642,62.295 374.371,65.100 374.237 C 74.085 373.808,76.411 373.641,76.810 373.394 C 77.325 373.076,77.316 366.519,76.800 366.200 C 76.564 366.054,76.400 363.662,76.400 360.374 C 76.400 357.305,76.131 353.041,75.803 350.897 C 75.474 348.754,74.586 343.040,73.830 338.200 C 73.073 333.360,71.161 321.030,69.580 310.800 C 67.386 296.600,66.552 292.073,66.053 291.663 C 64.240 290.172,56.683 291.855,49.885 295.263 C 43.717 298.354,40.373 298.592,30.061 296.674 L 25.121 295.755 26.661 294.597 C 28.440 293.259,29.584 292.248,32.767 289.200 C 35.138 286.929,37.892 284.535,39.549 283.305 C 41.450 281.893,45.822 278.227,46.681 277.325 C 47.165 276.816,47.668 276.400,47.798 276.400 C 48.021 276.400,50.212 274.501,52.298 272.500 C 52.814 272.005,53.382 271.600,53.559 271.600 C 54.027 271.600,59.600 266.079,59.600 265.615 C 59.600 265.401,59.841 265.318,60.136 265.431 C 61.147 265.819,61.800 264.369,61.800 261.735 C 61.800 259.998,61.656 259.248,61.344 259.367 C 60.368 259.740,59.265 254.147,60.176 253.444 C 60.493 253.200,62.292 249.959,64.174 246.242 L 67.597 239.485 66.159 235.442 C 63.967 229.280,62.285 226.887,59.400 225.823 C 58.737 225.579,52.033 224.431,51.129 224.407 C 50.980 224.403,50.768 224.085,50.656 223.700 C 50.545 223.315,50.541 223.810,50.648 224.800 M176.993 226.158 C 176.150 227.935,173.629 230.244,171.455 231.231 C 169.885 231.944,168.309 231.983,140.724 231.991 C 117.910 231.998,111.578 232.108,111.324 232.500 C 111.146 232.775,111.000 233.798,111.000 234.773 C 111.000 236.455,110.885 236.633,108.770 238.248 C 107.543 239.185,105.675 240.997,104.619 242.275 L 102.700 244.600 105.250 242.000 C 106.652 240.570,108.677 238.803,109.749 238.074 C 111.672 236.765,111.695 236.724,111.497 234.967 C 111.216 232.473,109.308 232.626,141.000 232.612 C 173.331 232.598,171.320 232.777,174.944 229.596 C 176.389 228.326,178.263 225.330,177.862 224.929 C 177.756 224.822,177.364 225.375,176.993 226.158 M53.318 227.789 C 52.727 228.993,52.168 229.901,52.074 229.807 C 51.732 229.465,52.449 226.808,53.044 226.213 C 54.259 224.998,54.371 225.642,53.318 227.789 M7.578 227.500 L 6.200 229.000 7.700 227.622 C 9.096 226.338,9.384 226.000,9.078 226.000 C 9.012 226.000,8.337 226.675,7.578 227.500 M103.586 227.000 C 104.905 228.844,106.698 230.521,108.151 231.269 C 110.015 232.230,110.796 231.422,100.900 238.771 C 96.665 241.917,93.200 244.582,93.200 244.694 C 93.200 244.806,93.425 244.724,93.700 244.512 C 96.087 242.670,102.970 237.604,106.300 235.238 C 110.943 231.939,110.910 231.991,108.966 231.064 C 108.177 230.688,106.515 229.440,105.272 228.290 C 104.030 227.141,103.271 226.560,103.586 227.000 M220.300 227.089 C 221.015 227.178,222.185 227.178,222.900 227.089 C 223.615 227.001,223.030 226.928,221.600 226.928 C 220.170 226.928,219.585 227.001,220.300 227.089 M101.375 246.100 L 100.200 247.400 101.500 246.225 C 102.712 245.130,102.984 244.800,102.675 244.800 C 102.606 244.800,102.021 245.385,101.375 246.100 M98.378 249.500 L 97.000 251.000 98.500 249.622 C 99.896 248.338,100.184 248.000,99.878 248.000 C 99.812 248.000,99.137 248.675,98.378 249.500 M8.635 252.347 C 7.792 257.917,7.581 260.541,7.946 260.906 C 8.379 261.339,21.061 261.473,21.485 261.049 C 21.623 260.910,22.156 261.072,22.668 261.408 C 23.596 262.016,23.600 262.010,23.600 260.242 C 23.600 259.265,23.691 258.226,23.803 257.933 C 23.951 257.543,23.077 257.220,20.536 256.728 C 16.730 255.990,12.166 253.947,10.127 252.068 L 8.854 250.895 8.635 252.347 M93.573 254.900 C 91.736 256.935,88.249 260.670,85.823 263.200 C 81.491 267.719,81.479 267.737,85.142 264.200 C 88.601 260.861,97.476 251.200,97.085 251.200 C 96.990 251.200,95.409 252.865,93.573 254.900 M224.331 254.700 C 237.163 254.759,258.043 254.759,270.731 254.700 C 283.419 254.641,272.920 254.593,247.400 254.593 C 221.880 254.593,211.499 254.641,224.331 254.700 M69.200 256.800 C 68.430 257.222,67.944 257.574,68.120 257.583 C 68.544 257.605,70.800 256.432,70.800 256.190 C 70.800 255.928,70.777 255.937,69.200 256.800 M65.600 258.200 C 64.830 258.497,64.470 258.745,64.800 258.752 C 65.130 258.758,65.940 258.517,66.600 258.214 C 68.145 257.507,67.426 257.497,65.600 258.200 M144.715 272.600 L 144.600 281.601 149.000 281.600 L 153.400 281.600 153.543 272.600 L 153.686 263.600 149.258 263.600 L 144.829 263.600 144.715 272.600 M121.380 300.200 C 121.380 307.680,121.434 310.683,121.499 306.874 C 121.565 303.065,121.565 296.945,121.499 293.274 C 121.433 289.603,121.379 292.720,121.380 300.200 M231.776 302.800 C 231.776 309.070,231.832 311.635,231.899 308.500 C 231.967 305.365,231.967 300.235,231.899 297.100 C 231.832 293.965,231.776 296.530,231.776 302.800 M156.929 296.700 C 163.930 296.761,175.270 296.761,182.129 296.700 C 188.988 296.638,183.260 296.588,169.400 296.588 C 155.540 296.588,149.928 296.639,156.929 296.700 M210.101 298.200 C 210.105 299.080,210.187 299.393,210.283 298.895 C 210.379 298.398,210.375 297.678,210.275 297.295 C 210.175 296.913,210.096 297.320,210.101 298.200 M29.951 297.561 C 30.260 297.757,30.370 298.125,30.200 298.400 C 30.034 298.669,30.114 299.023,30.378 299.186 C 30.696 299.383,30.766 299.973,30.585 300.938 C 30.435 301.738,30.137 302.285,29.924 302.153 C 29.710 302.021,29.639 301.497,29.767 300.989 C 29.894 300.482,29.823 300.006,29.608 299.933 C 29.109 299.763,28.584 297.198,29.050 297.206 C 29.243 297.209,29.648 297.369,29.951 297.561 M172.100 304.699 C 176.225 304.764,182.975 304.764,187.100 304.699 C 191.225 304.634,187.850 304.581,179.600 304.581 C 171.350 304.581,167.975 304.634,172.100 304.699 M294.978 305.099 C 297.283 305.175,299.217 305.435,299.578 305.715 C 300.125 306.142,300.134 306.116,299.651 305.500 C 299.184 304.905,298.497 304.813,295.051 304.884 L 291.000 304.967 294.978 305.099 M305.388 311.418 C 305.671 312.639,306.044 313.764,306.216 313.918 C 306.387 314.073,306.408 313.869,306.263 313.465 C 306.117 313.061,305.886 312.026,305.748 311.165 L 305.498 309.600 332.792 309.600 L 360.087 309.600 359.831 310.700 C 359.642 311.516,359.680 311.645,359.982 311.200 C 361.403 309.100,362.772 309.200,332.636 309.200 L 304.872 309.200 305.388 311.418 M306.796 317.233 C 306.786 318.470,310.922 336.226,311.307 336.600 C 311.585 336.870,311.649 336.802,311.506 336.390 C 311.390 336.055,310.353 331.555,309.203 326.390 C 307.224 317.501,306.806 315.910,306.796 317.233 M135.607 319.107 L 144.613 319.215 144.707 328.795 L 144.800 338.376 127.420 338.488 C 113.719 338.576,109.929 338.711,109.520 339.125 C 109.091 339.558,109.197 339.576,110.126 339.225 C 112.078 338.488,164.225 338.651,166.654 339.401 C 170.025 340.443,177.749 342.461,179.000 342.627 C 179.660 342.715,180.650 342.944,181.200 343.137 C 183.571 343.968,187.076 344.910,194.200 346.633 C 198.380 347.644,201.860 348.635,201.933 348.836 C 202.007 349.036,202.467 349.200,202.957 349.200 C 205.053 349.200,205.181 349.646,205.305 357.400 L 205.420 364.600 205.510 357.149 C 205.582 351.226,205.718 349.600,206.177 349.219 C 206.974 348.558,219.806 348.157,221.300 348.746 L 222.400 349.180 222.469 356.890 C 222.535 364.284,222.550 364.412,222.817 360.000 C 222.970 357.470,223.118 355.284,223.147 355.143 C 223.271 354.538,224.533 354.448,225.545 354.972 C 226.147 355.283,226.901 355.512,227.220 355.481 C 227.539 355.449,228.565 355.672,229.500 355.975 L 231.200 356.527 231.297 361.763 C 231.492 372.231,231.289 373.180,228.544 374.658 C 227.822 375.047,227.298 375.431,227.379 375.512 C 227.785 375.918,230.037 374.236,230.861 372.910 L 231.800 371.400 231.691 357.263 C 231.576 342.202,231.551 342.003,229.538 340.124 C 227.774 338.478,226.414 338.420,189.324 338.410 C 164.800 338.403,153.566 338.268,153.387 337.979 C 153.244 337.748,153.258 333.429,153.418 328.381 L 153.709 319.204 190.154 319.094 C 213.276 319.025,208.321 318.987,176.600 318.992 C 149.100 318.996,130.653 319.048,135.607 319.107 M356.436 321.236 C 356.166 322.139,356.018 322.952,356.108 323.042 C 356.198 323.132,356.493 322.466,356.764 321.564 C 357.034 320.661,357.182 319.848,357.092 319.758 C 357.002 319.668,356.707 320.334,356.436 321.236 M354.846 326.039 C 354.601 326.743,354.413 327.518,354.428 327.760 C 354.444 328.002,354.714 327.496,355.030 326.635 C 355.345 325.774,355.533 325.000,355.448 324.915 C 355.362 324.829,355.092 325.335,354.846 326.039 M351.655 336.023 L 349.138 343.608 331.069 343.504 L 313.000 343.400 312.633 341.500 C 312.431 340.455,312.135 339.600,311.976 339.600 C 311.817 339.600,311.896 340.545,312.152 341.700 L 312.619 343.800 331.065 343.904 L 349.510 344.008 351.981 336.363 C 353.340 332.158,354.388 328.655,354.311 328.578 C 354.234 328.501,353.039 331.851,351.655 336.023 M107.913 340.300 C 107.096 341.237,106.396 342.626,106.416 343.274 C 106.424 343.563,106.702 343.175,107.033 342.412 C 107.365 341.648,107.925 340.703,108.280 340.312 C 108.634 339.920,108.834 339.600,108.724 339.600 C 108.614 339.600,108.249 339.915,107.913 340.300 M106.180 357.400 C 106.180 364.880,106.234 367.883,106.299 364.074 C 106.365 360.265,106.365 354.145,106.299 350.474 C 106.233 346.803,106.179 349.920,106.180 357.400 M310.330 345.290 C 310.489 345.449,317.041 345.629,324.890 345.690 C 332.739 345.750,339.030 345.670,338.870 345.510 C 338.711 345.351,332.159 345.171,324.310 345.110 C 316.461 345.050,310.170 345.130,310.330 345.290 M328.814 351.574 C 327.499 354.031,330.833 357.071,333.024 355.412 C 333.729 354.878,333.684 354.866,332.540 355.284 C 330.270 356.114,328.065 353.721,329.180 351.637 C 329.427 351.177,329.538 350.800,329.428 350.800 C 329.318 350.800,329.042 351.148,328.814 351.574 M310.464 352.718 C 310.388 354.273,311.860 356.000,313.260 356.000 C 314.022 356.000,317.200 354.182,317.200 353.746 C 317.200 353.470,316.952 353.603,315.600 354.600 C 313.386 356.234,311.015 355.312,310.689 352.690 L 310.528 351.400 310.464 352.718 M137.070 353.500 C 147.008 353.559,163.388 353.559,173.470 353.500 C 183.551 353.440,175.420 353.392,155.400 353.392 C 135.380 353.392,127.131 353.440,137.070 353.500 M149.200 360.292 C 159.027 360.395,159.426 360.430,160.100 361.244 C 160.485 361.708,160.800 361.917,160.800 361.706 C 160.800 360.159,159.637 359.997,149.169 360.093 L 139.000 360.186 149.200 360.292 M164.162 360.900 C 163.401 361.799,163.401 361.799,164.231 361.100 C 164.991 360.460,166.363 360.400,180.109 360.400 L 195.155 360.400 195.777 361.289 C 196.120 361.778,196.400 361.986,196.400 361.751 C 196.400 360.084,195.608 360.000,179.930 360.000 L 164.924 360.000 164.162 360.900 M195.314 363.880 C 194.827 364.386,194.574 364.800,194.752 364.800 C 195.142 364.800,196.598 363.245,196.364 363.077 C 196.274 363.013,195.801 363.374,195.314 363.880 M138.662 364.500 C 138.764 364.665,143.506 364.800,149.200 364.800 C 154.894 364.800,159.636 364.665,159.738 364.500 C 159.840 364.335,155.098 364.200,149.200 364.200 C 143.302 364.200,138.560 364.335,138.662 364.500 M169.700 364.699 C 172.505 364.768,177.095 364.768,179.900 364.699 C 182.705 364.630,180.410 364.574,174.800 364.574 C 169.190 364.574,166.895 364.630,169.700 364.699 M210.902 365.200 C 211.028 365.666,211.773 365.807,214.232 365.830 L 217.400 365.860 214.412 365.711 C 212.705 365.625,211.277 365.355,211.081 365.081 C 210.840 364.741,210.787 364.776,210.902 365.200 M127.636 375.904 L 144.272 376.009 144.535 385.904 C 144.680 391.347,144.799 401.443,144.799 408.340 C 144.800 422.293,144.805 422.324,147.551 425.072 C 150.290 427.814,143.517 427.593,233.308 427.864 C 278.239 428.000,314.897 427.998,314.771 427.860 C 314.646 427.722,292.821 427.603,266.271 427.595 L 218.000 427.581 218.000 426.391 C 218.000 425.736,218.180 425.200,218.400 425.200 C 218.620 425.200,218.800 424.660,218.800 424.000 C 218.800 423.340,218.620 422.800,218.400 422.800 C 218.180 422.800,218.000 423.340,218.000 424.000 C 218.000 424.660,217.820 425.200,217.600 425.200 C 217.229 425.200,217.018 424.072,217.170 422.900 C 217.206 422.625,217.025 422.400,216.769 422.400 C 216.446 422.400,216.472 422.194,216.851 421.735 C 217.240 421.263,217.267 421.025,216.942 420.916 C 216.691 420.831,216.574 420.420,216.683 420.003 C 216.931 419.057,215.481 419.009,182.608 418.876 C 156.484 418.770,157.237 418.857,155.078 415.686 C 153.074 412.742,152.876 409.130,153.464 386.267 L 153.728 376.004 190.164 375.900 C 210.204 375.842,200.590 375.796,168.800 375.798 C 137.010 375.799,118.486 375.847,127.636 375.904 M74.531 379.000 C 74.533 380.540,74.605 381.121,74.692 380.291 C 74.779 379.461,74.777 378.201,74.689 377.491 C 74.600 376.781,74.529 377.460,74.531 379.000 M319.100 378.294 L 314.800 378.427 314.800 388.214 L 314.800 398.000 319.000 398.000 L 323.200 398.000 323.182 408.700 C 323.160 422.094,322.696 423.642,317.875 426.399 L 315.800 427.585 323.647 427.456 L 331.493 427.326 333.247 426.065 C 334.211 425.371,335.540 423.948,336.200 422.903 L 337.400 421.002 337.600 413.401 C 337.710 409.221,337.800 399.590,337.800 392.000 L 337.800 378.200 330.600 378.181 C 326.640 378.170,321.465 378.221,319.100 378.294 M29.671 424.224 C 29.781 425.865,31.995 426.304,32.779 424.840 C 33.169 424.110,32.417 423.342,31.500 423.536 C 31.335 423.571,31.200 423.458,31.200 423.285 C 31.200 423.112,30.835 422.943,30.389 422.909 C 29.704 422.858,29.593 423.061,29.671 424.224 " stroke="none" fill="#dbc9f3" fill-rule="evenodd"></path></g></svg>