<svg version="1.1" id="Uploaded to svgrepo.com" xmlns="http://www.w3.org/2000/svg" xmlns:xlink="http://www.w3.org/1999/xlink" x="0px" y="0px"
	 width="32px" height="32px" viewBox="0 0 32 32" style="enable-background:new 0 0 32 32;" xml:space="preserve">
<style type="text/css">
	.feather_een{fill:#0B1719;}
</style>
<path class="feather_een" d="M16,1C9.925,1,5,5.925,5,12c0,6.494,5.727,12.988,8.916,16.101c1.159,1.131,3.009,1.131,4.167,0
	C21.273,24.988,27,18.494,27,12C27,5.925,22.075,1,16,1z M17.392,27.373c-0.775,0.758-2.008,0.758-2.783,0
	C11.523,24.353,6,18.096,6,12C6,6.486,10.486,2,16,2s10,4.486,10,10C26,18.096,20.477,24.353,17.392,27.373z M16,6
	c-3.314,0-6,2.686-6,6s2.686,6,6,6s6-2.686,6-6S19.314,6,16,6z M16,17c-2.757,0-5-2.243-5-5s2.243-5,5-5s5,2.243,5,5
	S18.757,17,16,17z"/>
</svg>