<svg id="svg" version="1.1" xmlns="http://www.w3.org/2000/svg" xmlns:xlink="http://www.w3.org/1999/xlink" width="400" height="400" viewBox="0, 0, 400,400"><g id="svgg"><path id="path0" d="M188.000 0.272 C 187.010 0.370,186.029 0.619,185.820 0.825 C 185.611 1.031,184.936 1.200,184.320 1.200 C 183.704 1.200,183.200 1.380,183.200 1.600 C 183.200 1.820,182.761 2.000,182.224 2.000 C 181.687 2.000,181.136 2.180,181.000 2.400 C 180.864 2.620,180.403 2.800,179.976 2.800 C 179.549 2.800,179.200 2.980,179.200 3.200 C 179.200 3.420,178.840 3.600,178.400 3.600 C 177.960 3.600,177.600 3.736,177.600 3.902 C 177.600 4.069,177.015 4.460,176.300 4.772 C 175.585 5.084,174.709 5.668,174.353 6.070 C 173.997 6.471,173.478 6.800,173.200 6.800 C 172.922 6.800,172.403 7.116,172.047 7.503 C 171.691 7.889,170.908 8.458,170.306 8.767 C 168.916 9.481,164.866 13.367,163.603 15.200 C 163.072 15.970,162.314 16.891,161.919 17.247 C 161.524 17.603,161.200 18.188,161.200 18.547 C 161.200 18.906,161.058 19.200,160.884 19.200 C 160.462 19.200,158.400 23.301,158.400 24.140 C 158.400 24.503,158.220 24.800,158.000 24.800 C 157.780 24.800,157.600 25.160,157.600 25.600 C 157.600 26.040,157.420 26.400,157.200 26.400 C 156.980 26.400,156.800 26.670,156.800 27.000 C 156.800 27.523,154.847 27.600,141.624 27.600 C 131.937 27.600,126.358 27.745,126.200 28.000 C 126.064 28.220,125.333 28.400,124.576 28.400 C 123.819 28.400,123.200 28.580,123.200 28.800 C 123.200 29.020,122.924 29.200,122.587 29.200 C 121.791 29.200,119.200 31.791,119.200 32.587 C 119.200 32.924,119.020 33.200,118.800 33.200 C 118.545 33.200,118.400 36.600,118.400 42.600 L 118.400 52.000 97.000 52.000 C 83.000 52.000,75.600 52.138,75.600 52.400 C 75.600 52.620,74.801 52.800,73.824 52.800 C 72.847 52.800,71.936 52.980,71.800 53.200 C 71.664 53.420,71.023 53.600,70.376 53.600 C 69.729 53.600,69.200 53.780,69.200 54.000 C 69.200 54.220,68.840 54.400,68.400 54.400 C 67.960 54.400,67.600 54.580,67.600 54.800 C 67.600 55.020,67.161 55.200,66.624 55.200 C 66.087 55.200,65.536 55.380,65.400 55.600 C 65.264 55.820,64.803 56.000,64.376 56.000 C 63.949 56.000,63.600 56.180,63.600 56.400 C 63.600 56.620,63.330 56.800,63.000 56.800 C 62.670 56.800,62.400 56.980,62.400 57.200 C 62.400 57.420,62.130 57.600,61.800 57.600 C 61.470 57.600,61.200 57.780,61.200 58.000 C 61.200 58.220,60.944 58.400,60.631 58.400 C 60.318 58.400,59.527 58.850,58.873 59.400 C 58.219 59.950,57.564 60.400,57.418 60.400 C 56.947 60.400,50.400 67.255,50.400 67.748 C 50.400 68.010,50.040 68.483,49.600 68.800 C 49.160 69.117,48.800 69.657,48.800 70.000 C 48.800 70.343,48.440 70.883,48.000 71.200 C 47.560 71.517,47.200 72.097,47.200 72.488 C 47.200 72.880,47.020 73.200,46.800 73.200 C 46.580 73.200,46.400 73.560,46.400 74.000 C 46.400 74.440,46.220 74.800,46.000 74.800 C 45.780 74.800,45.600 75.160,45.600 75.600 C 45.600 76.040,45.420 76.400,45.200 76.400 C 44.980 76.400,44.800 76.839,44.800 77.376 C 44.800 77.913,44.620 78.464,44.400 78.600 C 44.180 78.736,44.000 79.276,44.000 79.800 C 44.000 80.324,43.839 80.852,43.642 80.974 C 43.273 81.202,43.041 82.458,42.420 87.600 C 41.948 91.499,41.944 363.913,42.415 368.200 C 42.907 372.675,43.231 374.372,43.644 374.627 C 43.840 374.748,44.000 375.287,44.000 375.824 C 44.000 376.361,44.180 376.800,44.400 376.800 C 44.620 376.800,44.800 377.160,44.800 377.600 C 44.800 378.040,44.980 378.400,45.200 378.400 C 45.420 378.400,45.600 378.760,45.600 379.200 C 45.600 379.640,45.780 380.000,46.000 380.000 C 46.220 380.000,46.400 380.360,46.400 380.800 C 46.400 381.240,46.580 381.600,46.800 381.600 C 47.020 381.600,47.200 381.843,47.200 382.141 C 47.200 382.438,47.740 383.246,48.400 383.937 C 49.060 384.628,49.600 385.371,49.600 385.588 C 49.600 386.237,55.298 391.600,55.987 391.600 C 56.337 391.600,56.883 391.960,57.200 392.400 C 57.517 392.840,57.924 393.200,58.105 393.200 C 58.286 393.200,58.820 393.560,59.292 394.000 C 59.764 394.440,60.387 394.800,60.675 394.800 C 60.964 394.800,61.200 394.980,61.200 395.200 C 61.200 395.420,61.560 395.600,62.000 395.600 C 62.440 395.600,62.800 395.780,62.800 396.000 C 62.800 396.220,63.160 396.400,63.600 396.400 C 64.040 396.400,64.400 396.580,64.400 396.800 C 64.400 397.020,64.760 397.200,65.200 397.200 C 65.640 397.200,66.000 397.380,66.000 397.600 C 66.000 397.820,66.540 398.000,67.200 398.000 C 67.860 398.000,68.400 398.180,68.400 398.400 C 68.400 398.620,68.925 398.800,69.567 398.800 C 70.208 398.800,70.808 399.025,70.900 399.300 C 71.145 400.036,328.855 400.036,329.100 399.300 C 329.192 399.025,329.792 398.800,330.433 398.800 C 331.075 398.800,331.600 398.620,331.600 398.400 C 331.600 398.180,332.140 398.000,332.800 398.000 C 333.460 398.000,334.000 397.820,334.000 397.600 C 334.000 397.380,334.360 397.200,334.800 397.200 C 335.240 397.200,335.600 397.020,335.600 396.800 C 335.600 396.580,335.960 396.400,336.400 396.400 C 336.840 396.400,337.200 396.220,337.200 396.000 C 337.200 395.780,337.560 395.600,338.000 395.600 C 338.440 395.600,338.800 395.420,338.800 395.200 C 338.800 394.980,339.036 394.800,339.325 394.800 C 339.613 394.800,340.236 394.440,340.708 394.000 C 341.180 393.560,341.714 393.200,341.895 393.200 C 342.076 393.200,342.483 392.840,342.800 392.400 C 343.117 391.960,343.663 391.600,344.013 391.600 C 344.702 391.600,350.400 386.237,350.400 385.588 C 350.400 385.371,350.940 384.628,351.600 383.937 C 352.260 383.246,352.800 382.438,352.800 382.141 C 352.800 381.843,352.980 381.600,353.200 381.600 C 353.420 381.600,353.600 381.240,353.600 380.800 C 353.600 380.360,353.780 380.000,354.000 380.000 C 354.220 380.000,354.400 379.640,354.400 379.200 C 354.400 378.760,354.580 378.400,354.800 378.400 C 355.020 378.400,355.200 378.040,355.200 377.600 C 355.200 377.160,355.380 376.800,355.600 376.800 C 355.820 376.800,356.000 376.361,356.000 375.824 C 356.000 375.287,356.160 374.748,356.356 374.627 C 356.736 374.392,356.972 373.254,357.684 368.200 C 358.321 363.686,358.305 91.422,357.667 87.400 C 357.423 85.860,357.109 83.834,356.970 82.897 C 356.830 81.961,356.555 81.095,356.358 80.974 C 356.161 80.852,356.000 80.401,356.000 79.971 C 356.000 79.541,355.820 78.832,355.600 78.395 C 355.380 77.958,355.020 77.242,354.800 76.805 C 354.580 76.368,354.400 75.738,354.400 75.405 C 354.400 75.072,354.220 74.800,354.000 74.800 C 353.780 74.800,353.600 74.440,353.600 74.000 C 353.600 73.560,353.420 73.200,353.200 73.200 C 352.980 73.200,352.800 72.880,352.800 72.488 C 352.800 72.097,352.440 71.517,352.000 71.200 C 351.560 70.883,351.200 70.343,351.200 70.000 C 351.200 69.657,350.840 69.117,350.400 68.800 C 349.960 68.483,349.600 68.012,349.600 67.753 C 349.600 66.580,340.628 58.400,339.342 58.400 C 339.044 58.400,338.800 58.220,338.800 58.000 C 338.800 57.780,338.530 57.600,338.200 57.600 C 337.870 57.600,337.600 57.420,337.600 57.200 C 337.600 56.980,337.330 56.800,337.000 56.800 C 336.670 56.800,336.400 56.620,336.400 56.400 C 336.400 56.180,336.128 56.000,335.795 56.000 C 335.462 56.000,334.832 55.820,334.395 55.600 C 333.958 55.380,333.242 55.020,332.805 54.800 C 332.368 54.580,331.738 54.400,331.405 54.400 C 331.072 54.400,330.800 54.220,330.800 54.000 C 330.800 53.780,330.271 53.600,329.624 53.600 C 328.977 53.600,328.336 53.420,328.200 53.200 C 328.064 52.980,327.153 52.800,326.176 52.800 C 325.199 52.800,324.400 52.620,324.400 52.400 C 324.400 52.138,317.000 52.000,303.000 52.000 L 281.600 52.000 281.600 42.600 C 281.600 36.600,281.455 33.200,281.200 33.200 C 280.980 33.200,280.800 32.922,280.800 32.582 C 280.800 31.199,276.616 28.400,274.548 28.400 C 274.053 28.400,273.536 28.220,273.400 28.000 C 273.242 27.745,267.653 27.600,257.948 27.600 C 241.859 27.600,241.600 27.571,241.600 25.758 C 241.600 24.840,238.807 19.200,238.352 19.200 C 238.159 19.200,238.000 18.880,238.000 18.488 C 238.000 18.097,237.640 17.517,237.200 17.200 C 236.760 16.883,236.400 16.397,236.400 16.121 C 236.400 15.428,229.267 8.400,228.563 8.400 C 228.249 8.400,227.428 7.860,226.737 7.200 C 226.046 6.540,225.238 6.000,224.941 6.000 C 224.643 6.000,224.400 5.820,224.400 5.600 C 224.400 5.380,224.130 5.200,223.800 5.200 C 223.470 5.200,223.200 5.020,223.200 4.800 C 223.200 4.580,222.840 4.400,222.400 4.400 C 221.960 4.400,221.600 4.220,221.600 4.000 C 221.600 3.780,221.240 3.600,220.800 3.600 C 220.360 3.600,220.000 3.420,220.000 3.200 C 220.000 2.980,219.460 2.800,218.800 2.800 C 218.140 2.800,217.600 2.620,217.600 2.400 C 217.600 2.180,217.060 2.000,216.400 2.000 C 215.740 2.000,215.200 1.820,215.200 1.600 C 215.200 1.380,214.675 1.200,214.033 1.200 C 213.392 1.200,212.794 0.982,212.705 0.715 C 212.542 0.225,192.151 -0.141,188.000 0.272 M204.100 19.019 C 205.145 19.163,206.000 19.442,206.000 19.640 C 206.000 19.838,206.525 20.000,207.167 20.000 C 207.808 20.000,208.393 20.135,208.467 20.300 C 208.540 20.465,209.500 21.050,210.600 21.599 C 211.700 22.149,212.960 22.929,213.400 23.333 C 213.840 23.737,214.740 24.350,215.400 24.695 C 216.680 25.364,219.200 27.907,219.200 28.531 C 219.200 28.737,219.516 29.197,219.903 29.553 C 220.289 29.909,220.860 30.695,221.170 31.300 C 221.481 31.905,221.885 32.400,222.068 32.400 C 222.250 32.400,222.400 32.760,222.400 33.200 C 222.400 33.640,222.580 34.000,222.800 34.000 C 223.020 34.000,223.200 34.540,223.200 35.200 C 223.200 35.860,223.380 36.400,223.600 36.400 C 223.820 36.400,224.000 36.940,224.000 37.600 C 224.000 38.260,224.180 38.800,224.400 38.800 C 224.620 38.800,224.800 39.349,224.800 40.020 C 224.800 42.217,228.540 47.200,230.189 47.200 C 230.525 47.200,230.800 47.380,230.800 47.600 C 230.800 47.860,236.133 48.000,246.000 48.000 L 261.200 48.000 261.200 66.400 L 261.200 84.800 200.000 84.800 L 138.800 84.800 138.800 66.400 L 138.800 48.000 153.200 48.000 C 162.533 48.000,167.600 47.859,167.600 47.600 C 167.600 47.380,167.868 47.200,168.195 47.200 C 169.457 47.200,173.200 43.473,173.200 42.217 C 173.200 41.878,173.380 41.600,173.600 41.600 C 173.820 41.600,174.000 41.071,174.000 40.424 C 174.000 39.777,174.163 39.146,174.363 39.023 C 174.562 38.900,174.849 37.899,175.000 36.800 C 175.151 35.700,175.438 34.800,175.638 34.800 C 175.837 34.800,176.000 34.440,176.000 34.000 C 176.000 33.560,176.180 33.200,176.400 33.200 C 176.620 33.200,176.800 32.880,176.800 32.488 C 176.800 32.097,177.160 31.517,177.600 31.200 C 178.040 30.883,178.400 30.383,178.400 30.090 C 178.400 28.821,185.772 22.467,188.100 21.729 C 188.485 21.607,188.800 21.348,188.800 21.153 C 188.800 20.959,189.250 20.800,189.800 20.800 C 190.350 20.800,190.800 20.620,190.800 20.400 C 190.800 20.180,191.239 20.000,191.776 20.000 C 192.313 20.000,192.864 19.820,193.000 19.600 C 193.136 19.380,193.957 19.200,194.824 19.200 C 195.691 19.200,196.400 19.006,196.400 18.768 C 196.400 18.335,199.964 18.451,204.100 19.019 M118.400 85.600 C 118.400 94.133,118.541 98.800,118.800 98.800 C 119.020 98.800,119.200 99.145,119.200 99.567 C 119.200 99.988,119.335 100.393,119.500 100.467 C 119.665 100.540,120.304 101.275,120.920 102.100 C 121.537 102.925,122.302 103.600,122.620 103.600 C 122.939 103.600,123.200 103.780,123.200 104.000 C 123.200 104.220,123.560 104.400,124.000 104.400 C 124.440 104.400,124.800 104.560,124.800 104.756 C 124.800 105.779,271.141 106.619,272.158 105.602 C 272.379 105.381,273.154 105.200,273.880 105.200 C 274.606 105.200,275.200 105.020,275.200 104.800 C 275.200 104.580,275.486 104.400,275.835 104.400 C 276.833 104.400,280.800 100.043,280.800 98.946 C 280.800 98.426,280.980 98.000,281.200 98.000 C 281.458 98.000,281.600 93.467,281.600 85.200 L 281.600 72.400 301.200 72.400 C 314.000 72.400,320.800 72.539,320.800 72.800 C 320.800 73.020,321.163 73.200,321.606 73.200 C 322.664 73.200,325.600 74.122,325.600 74.454 C 325.600 74.597,326.050 74.826,326.600 74.964 C 327.150 75.102,327.600 75.392,327.600 75.608 C 327.600 75.823,327.874 76.000,328.209 76.000 C 328.950 76.000,333.200 80.175,333.200 80.903 C 333.200 81.189,333.560 81.683,334.000 82.000 C 334.440 82.317,334.800 82.897,334.800 83.288 C 334.800 83.680,334.980 84.000,335.200 84.000 C 335.420 84.000,335.600 84.360,335.600 84.800 C 335.600 85.240,335.780 85.600,336.000 85.600 C 336.220 85.600,336.400 86.140,336.400 86.800 C 336.400 87.460,336.580 88.000,336.800 88.000 C 337.066 88.000,337.200 134.867,337.200 227.800 C 337.200 320.733,337.066 367.600,336.800 367.600 C 336.580 367.600,336.400 367.960,336.400 368.400 C 336.400 368.840,336.220 369.200,336.000 369.200 C 335.780 369.200,335.600 369.560,335.600 370.000 C 335.600 370.440,335.420 370.800,335.200 370.800 C 334.980 370.800,334.800 371.088,334.800 371.440 C 334.800 372.170,331.578 375.345,330.031 376.140 C 329.464 376.431,328.320 377.059,327.488 377.535 C 326.656 378.011,325.711 378.400,325.388 378.400 C 325.065 378.400,324.800 378.580,324.800 378.800 C 324.800 379.020,324.080 379.200,323.200 379.200 C 322.320 379.200,321.600 379.380,321.600 379.600 C 321.600 379.866,280.800 380.000,200.000 380.000 C 119.200 380.000,78.400 379.866,78.400 379.600 C 78.400 379.380,77.680 379.200,76.800 379.200 C 75.920 379.200,75.200 379.020,75.200 378.800 C 75.200 378.580,74.935 378.400,74.612 378.400 C 74.289 378.400,73.344 378.011,72.512 377.535 C 71.680 377.059,70.536 376.431,69.969 376.140 C 68.422 375.345,65.200 372.170,65.200 371.440 C 65.200 371.088,65.020 370.800,64.800 370.800 C 64.580 370.800,64.400 370.440,64.400 370.000 C 64.400 369.560,64.220 369.200,64.000 369.200 C 63.780 369.200,63.600 368.840,63.600 368.400 C 63.600 367.960,63.420 367.600,63.200 367.600 C 62.934 367.600,62.800 320.733,62.800 227.800 C 62.800 134.867,62.934 88.000,63.200 88.000 C 63.420 88.000,63.600 87.460,63.600 86.800 C 63.600 86.140,63.780 85.600,64.000 85.600 C 64.220 85.600,64.400 85.240,64.400 84.800 C 64.400 84.360,64.580 84.000,64.800 84.000 C 65.020 84.000,65.200 83.680,65.200 83.288 C 65.200 82.897,65.560 82.317,66.000 82.000 C 66.440 81.683,66.800 81.189,66.800 80.903 C 66.800 80.194,71.041 76.000,71.758 76.000 C 72.074 76.000,72.393 75.843,72.467 75.651 C 72.679 75.096,77.124 73.200,78.212 73.200 C 78.755 73.200,79.200 73.020,79.200 72.800 C 79.200 72.539,86.000 72.400,98.800 72.400 L 118.400 72.400 118.400 85.600 M152.600 133.600 C 152.464 133.820,152.017 134.000,151.607 134.000 C 151.196 134.000,148.991 135.845,146.706 138.100 C 144.421 140.355,141.676 142.920,140.605 143.800 C 139.535 144.680,135.655 148.370,131.982 152.000 C 128.310 155.630,124.445 159.320,123.394 160.200 C 122.342 161.080,121.066 162.206,120.557 162.702 L 119.632 163.604 116.988 161.102 C 113.880 158.161,109.181 153.465,107.200 151.317 C 106.430 150.483,105.260 149.554,104.600 149.253 C 103.940 148.953,103.087 148.548,102.705 148.353 C 101.749 147.867,97.200 147.905,97.200 148.400 C 97.200 148.620,96.660 148.800,96.000 148.800 C 95.340 148.800,94.800 148.980,94.800 149.200 C 94.800 149.420,94.559 149.600,94.264 149.600 C 93.558 149.600,91.200 152.208,91.200 152.989 C 91.200 153.325,91.020 153.600,90.800 153.600 C 90.580 153.600,90.400 154.500,90.400 155.600 C 90.400 156.700,90.220 157.600,90.000 157.600 C 89.780 157.600,89.600 157.949,89.600 158.376 C 89.600 158.803,89.780 159.264,90.000 159.400 C 90.220 159.536,90.400 160.357,90.400 161.224 C 90.400 162.091,90.580 162.800,90.800 162.800 C 91.020 162.800,91.200 163.078,91.200 163.417 C 91.200 163.756,91.381 164.251,91.602 164.517 C 93.277 166.527,97.910 171.446,102.800 176.403 C 105.990 179.638,109.590 183.345,110.800 184.642 C 116.587 190.845,122.254 190.524,129.199 183.600 C 131.075 181.730,133.327 179.667,134.205 179.016 C 135.082 178.364,138.531 175.100,141.868 171.760 C 145.206 168.421,148.626 165.174,149.468 164.545 C 152.020 162.638,166.000 148.502,166.000 147.828 C 166.000 147.483,166.180 147.200,166.400 147.200 C 166.639 147.200,166.800 145.667,166.800 143.400 C 166.800 141.133,166.639 139.600,166.400 139.600 C 166.180 139.600,166.000 139.318,166.000 138.974 C 166.000 138.630,165.022 137.370,163.826 136.174 C 162.630 134.978,161.370 134.000,161.026 134.000 C 160.682 134.000,160.400 133.820,160.400 133.600 C 160.400 133.362,158.875 133.200,156.624 133.200 C 154.537 133.200,152.737 133.379,152.600 133.600 M186.400 157.200 C 186.400 157.420,186.122 157.600,185.783 157.600 C 185.444 157.600,184.925 157.802,184.629 158.049 C 182.741 159.628,181.732 160.749,181.253 161.800 C 180.953 162.460,180.548 163.313,180.353 163.695 C 179.869 164.646,179.906 169.095,180.400 169.400 C 180.620 169.536,180.800 170.087,180.800 170.624 C 180.800 171.161,180.980 171.600,181.200 171.600 C 181.420 171.600,181.600 171.835,181.600 172.122 C 181.600 172.870,184.112 175.200,184.919 175.200 C 185.294 175.200,185.600 175.380,185.600 175.600 C 185.600 175.820,185.960 176.000,186.400 176.000 C 186.840 176.000,187.200 176.180,187.200 176.400 C 187.200 176.665,206.792 176.800,245.176 176.800 C 283.396 176.800,303.237 176.664,303.400 176.400 C 303.536 176.180,303.997 176.000,304.424 176.000 C 304.851 176.000,305.200 175.820,305.200 175.600 C 305.200 175.380,305.480 175.200,305.823 175.200 C 306.547 175.200,308.800 172.862,308.800 172.111 C 308.800 171.830,308.980 171.600,309.200 171.600 C 309.420 171.600,309.600 170.880,309.600 170.000 C 309.600 169.120,309.780 168.400,310.000 168.400 C 310.220 168.400,310.400 167.601,310.400 166.624 C 310.400 165.647,310.220 164.736,310.000 164.600 C 309.780 164.464,309.600 163.823,309.600 163.176 C 309.600 162.529,309.420 162.000,309.200 162.000 C 308.980 162.000,308.800 161.654,308.800 161.231 C 308.800 160.311,305.760 157.600,304.728 157.600 C 304.328 157.600,304.000 157.420,304.000 157.200 C 304.000 156.935,284.133 156.800,245.200 156.800 C 206.267 156.800,186.400 156.935,186.400 157.200 M153.800 209.244 C 150.462 210.397,150.037 210.739,141.971 218.786 C 138.545 222.204,134.765 225.795,133.571 226.767 C 132.377 227.739,128.745 231.213,125.500 234.486 L 119.600 240.437 118.700 239.516 C 118.205 239.009,117.281 237.901,116.647 237.054 C 114.581 234.296,106.238 226.189,104.740 225.486 C 102.870 224.608,96.489 224.526,94.880 225.359 C 93.500 226.074,91.200 228.593,91.200 229.389 C 91.200 229.725,91.020 230.000,90.800 230.000 C 90.580 230.000,90.400 230.709,90.400 231.576 C 90.400 232.443,90.220 233.264,90.000 233.400 C 89.780 233.536,89.600 234.087,89.600 234.624 C 89.600 235.161,89.780 235.600,90.000 235.600 C 90.220 235.600,90.400 236.410,90.400 237.400 C 90.400 238.390,90.580 239.200,90.800 239.200 C 91.020 239.200,91.200 239.478,91.200 239.817 C 91.200 240.652,90.994 240.427,101.400 250.962 C 106.460 256.085,110.988 260.710,111.461 261.238 C 113.256 263.242,114.848 264.400,115.807 264.400 C 116.353 264.400,116.800 264.580,116.800 264.800 C 116.800 265.026,117.933 265.200,119.400 265.200 C 120.867 265.200,122.000 265.026,122.000 264.800 C 122.000 264.580,122.416 264.400,122.925 264.400 C 123.433 264.400,124.236 264.040,124.708 263.600 C 125.180 263.160,125.730 262.800,125.930 262.800 C 126.310 262.800,127.620 261.600,136.317 253.284 C 143.753 246.174,148.101 242.038,153.015 237.400 C 160.542 230.297,165.200 225.638,165.200 225.214 C 165.200 224.986,165.380 224.800,165.600 224.800 C 165.820 224.800,166.000 224.440,166.000 224.000 C 166.000 223.560,166.180 223.200,166.400 223.200 C 166.637 223.200,166.800 221.741,166.800 219.624 C 166.800 217.657,166.620 215.936,166.400 215.800 C 166.180 215.664,166.000 215.203,166.000 214.776 C 166.000 214.349,165.820 214.000,165.600 214.000 C 165.380 214.000,165.200 213.799,165.200 213.554 C 165.200 212.956,162.381 210.400,161.722 210.400 C 161.435 210.400,161.200 210.240,161.200 210.044 C 161.200 209.300,155.440 208.677,153.800 209.244 M188.000 232.800 C 188.000 233.020,187.460 233.200,186.800 233.200 C 186.140 233.200,185.600 233.380,185.600 233.600 C 185.600 233.820,185.324 234.000,184.987 234.000 C 184.191 234.000,181.600 236.591,181.600 237.387 C 181.600 237.724,181.420 238.000,181.200 238.000 C 180.980 238.000,180.800 238.540,180.800 239.200 C 180.800 239.860,180.620 240.400,180.400 240.400 C 180.174 240.400,180.000 241.533,180.000 243.000 C 180.000 244.467,180.174 245.600,180.400 245.600 C 180.620 245.600,180.800 246.016,180.800 246.525 C 180.800 247.033,181.160 247.836,181.600 248.308 C 182.040 248.780,182.400 249.350,182.400 249.574 C 182.400 249.798,182.895 250.297,183.500 250.682 C 184.105 251.067,184.690 251.476,184.800 251.591 C 185.428 252.248,186.967 252.800,188.171 252.800 C 188.931 252.800,189.664 252.980,189.800 253.200 C 189.963 253.464,208.930 253.600,245.400 253.600 C 281.870 253.600,300.837 253.464,301.000 253.200 C 301.136 252.980,301.957 252.800,302.824 252.800 C 303.691 252.800,304.400 252.620,304.400 252.400 C 304.400 252.180,304.684 252.000,305.031 252.000 C 305.907 252.000,308.800 248.904,308.800 247.967 C 308.800 247.545,308.980 247.200,309.200 247.200 C 309.420 247.200,309.600 246.660,309.600 246.000 C 309.600 245.340,309.780 244.800,310.000 244.800 C 310.220 244.800,310.400 243.990,310.400 243.000 C 310.400 242.010,310.220 241.200,310.000 241.200 C 309.780 241.200,309.600 240.480,309.600 239.600 C 309.600 238.720,309.432 238.000,309.227 238.000 C 309.022 238.000,308.746 237.661,308.615 237.248 C 308.347 236.404,307.051 234.800,306.636 234.800 C 306.488 234.800,305.980 234.440,305.508 234.000 C 305.036 233.560,304.244 233.200,303.748 233.200 C 303.253 233.200,302.736 233.020,302.600 232.800 C 302.437 232.536,282.863 232.400,245.176 232.400 C 207.325 232.400,188.000 232.535,188.000 232.800 M152.600 286.000 C 152.464 286.220,152.003 286.400,151.576 286.400 C 151.149 286.400,150.800 286.580,150.800 286.800 C 150.800 287.020,150.629 287.200,150.420 287.200 C 150.211 287.200,148.186 289.014,145.920 291.230 C 143.654 293.447,141.002 295.922,140.026 296.730 C 139.050 297.539,135.360 301.058,131.826 304.550 C 128.292 308.043,124.590 311.553,123.600 312.350 C 122.610 313.148,121.313 314.305,120.718 314.923 L 119.636 316.046 115.822 312.323 C 109.495 306.147,108.657 305.303,107.200 303.637 C 106.430 302.757,105.485 302.029,105.100 302.018 C 104.715 302.008,104.400 301.820,104.400 301.600 C 104.400 301.380,103.950 301.200,103.400 301.200 C 102.850 301.200,102.400 301.020,102.400 300.800 C 102.400 300.574,101.267 300.400,99.800 300.400 C 98.333 300.400,97.200 300.574,97.200 300.800 C 97.200 301.020,96.660 301.200,96.000 301.200 C 95.340 301.200,94.800 301.380,94.800 301.600 C 94.800 301.820,94.602 302.000,94.360 302.000 C 93.682 302.000,91.200 304.639,91.200 305.360 C 91.200 305.712,91.020 306.000,90.800 306.000 C 90.580 306.000,90.400 306.900,90.400 308.000 C 90.400 309.100,90.220 310.000,90.000 310.000 C 89.780 310.000,89.600 310.349,89.600 310.776 C 89.600 311.203,89.780 311.664,90.000 311.800 C 90.220 311.936,90.400 312.757,90.400 313.624 C 90.400 314.491,90.580 315.200,90.800 315.200 C 91.020 315.200,91.200 315.478,91.200 315.817 C 91.200 316.156,91.378 316.651,91.596 316.917 C 93.117 318.773,97.872 323.823,102.800 328.815 C 105.990 332.046,109.644 335.796,110.920 337.147 C 116.574 343.135,122.286 342.897,128.798 336.400 C 130.452 334.750,132.792 332.590,133.999 331.600 C 135.205 330.610,138.718 327.280,141.805 324.200 C 144.892 321.120,148.100 318.087,148.934 317.461 C 151.545 315.498,166.000 300.912,166.000 300.240 C 166.000 299.888,166.180 299.600,166.400 299.600 C 166.639 299.600,166.800 298.067,166.800 295.800 C 166.800 293.533,166.639 292.000,166.400 292.000 C 166.180 292.000,166.000 291.718,166.000 291.374 C 166.000 290.559,161.841 286.400,161.026 286.400 C 160.682 286.400,160.400 286.220,160.400 286.000 C 160.400 285.762,158.875 285.600,156.624 285.600 C 154.537 285.600,152.737 285.779,152.600 286.000 M185.942 309.561 C 184.166 310.449,181.600 312.946,181.600 313.787 C 181.600 314.124,181.420 314.400,181.200 314.400 C 180.980 314.400,180.800 314.749,180.800 315.176 C 180.800 315.603,180.620 316.064,180.400 316.200 C 179.906 316.505,179.869 320.954,180.353 321.905 C 180.548 322.287,180.953 323.139,181.253 323.797 C 181.950 325.322,184.186 327.600,184.987 327.600 C 185.324 327.600,185.600 327.780,185.600 328.000 C 185.600 328.220,185.960 328.400,186.400 328.400 C 186.840 328.400,187.200 328.580,187.200 328.800 C 187.200 329.065,206.867 329.200,245.400 329.200 C 283.933 329.200,303.600 329.065,303.600 328.800 C 303.600 328.580,303.960 328.400,304.400 328.400 C 304.840 328.400,305.200 328.220,305.200 328.000 C 305.200 327.780,305.445 327.600,305.745 327.600 C 307.135 327.600,309.600 323.979,309.600 321.939 C 309.600 321.312,309.780 320.800,310.000 320.800 C 310.220 320.800,310.400 319.990,310.400 319.000 C 310.400 318.010,310.220 317.200,310.000 317.200 C 309.780 317.200,309.600 316.570,309.600 315.800 C 309.600 315.030,309.420 314.400,309.200 314.400 C 308.980 314.400,308.800 314.061,308.800 313.647 C 308.800 312.696,306.079 310.211,304.160 309.409 C 301.704 308.383,188.006 308.529,185.942 309.561 " stroke="none" fill="#22a45d" fill-rule="evenodd"></path><path id="path1" d="" stroke="none" fill="#080404" fill-rule="evenodd"></path><path id="path2" d="" stroke="none" fill="#080404" fill-rule="evenodd"></path><path id="path3" d="" stroke="none" fill="#080404" fill-rule="evenodd"></path><path id="path4" d="" stroke="none" fill="#080404" fill-rule="evenodd"></path></g></svg>