<svg id="svg" version="1.1" xmlns="http://www.w3.org/2000/svg" xmlns:xlink="http://www.w3.org/1999/xlink" width="400" height="400" viewBox="0, 0, 400,400"><g id="svgg"><path id="path0" d="M161.923 23.900 C 161.054 24.912,160.719 25.896,160.326 28.600 C 160.133 29.920,159.793 32.170,159.570 33.600 C 159.346 35.030,158.960 38.225,158.710 40.700 C 158.461 43.175,158.109 45.200,157.929 45.200 C 157.748 45.200,157.600 46.190,157.600 47.400 C 157.600 49.333,157.503 49.600,156.800 49.600 C 156.360 49.600,156.000 49.780,156.000 50.000 C 156.000 50.220,155.280 50.400,154.400 50.400 C 153.520 50.400,152.800 50.580,152.800 50.800 C 152.800 51.020,152.271 51.200,151.624 51.200 C 150.977 51.200,150.336 51.380,150.200 51.600 C 150.064 51.820,149.434 52.000,148.800 52.000 C 148.166 52.000,147.536 52.180,147.400 52.400 C 147.264 52.620,146.724 52.800,146.200 52.800 C 145.676 52.800,145.136 52.980,145.000 53.200 C 144.864 53.420,144.313 53.600,143.776 53.600 C 143.239 53.600,142.800 53.780,142.800 54.000 C 142.800 54.220,142.260 54.400,141.600 54.400 C 140.940 54.400,140.400 54.580,140.400 54.800 C 140.400 55.020,140.040 55.200,139.600 55.200 C 139.160 55.200,138.800 55.380,138.800 55.600 C 138.800 55.820,138.260 56.000,137.600 56.000 C 136.940 56.000,136.400 56.180,136.400 56.400 C 136.400 56.620,136.040 56.800,135.600 56.800 C 135.160 56.800,134.800 56.980,134.800 57.200 C 134.800 57.420,134.361 57.600,133.824 57.600 C 133.287 57.600,132.736 57.780,132.600 58.000 C 132.464 58.220,132.098 58.400,131.787 58.400 C 131.210 58.400,126.763 60.373,126.400 60.790 C 126.290 60.916,125.345 61.465,124.300 62.009 C 123.255 62.553,122.400 63.134,122.400 63.299 C 122.400 63.465,122.040 63.600,121.600 63.600 C 121.160 63.600,120.800 63.750,120.800 63.932 C 120.800 64.115,120.305 64.519,119.700 64.830 C 119.095 65.140,118.309 65.711,117.953 66.097 C 117.597 66.484,117.084 66.800,116.814 66.800 C 116.543 66.800,115.817 67.340,115.200 68.000 C 114.583 68.660,113.899 69.200,113.680 69.200 C 113.119 69.200,105.200 77.262,105.200 77.833 C 105.200 77.983,104.884 78.397,104.497 78.753 C 104.111 79.109,103.540 79.895,103.230 80.500 C 102.919 81.105,102.515 81.600,102.332 81.600 C 102.150 81.600,102.000 81.960,102.000 82.400 C 102.000 82.840,101.865 83.201,101.700 83.203 C 101.341 83.207,100.400 85.144,100.400 85.880 C 100.400 86.166,100.220 86.400,100.000 86.400 C 99.780 86.400,99.600 86.760,99.600 87.200 C 99.600 87.640,99.420 88.000,99.200 88.000 C 98.980 88.000,98.800 88.540,98.800 89.200 C 98.800 89.860,98.620 90.400,98.400 90.400 C 98.180 90.400,98.000 90.940,98.000 91.600 C 98.000 92.260,97.820 92.800,97.600 92.800 C 97.380 92.800,97.200 93.599,97.200 94.576 C 97.200 95.553,97.020 96.464,96.800 96.600 C 96.575 96.739,96.400 98.663,96.400 101.000 C 96.400 103.337,96.225 105.261,96.000 105.400 C 95.767 105.544,95.600 107.796,95.600 110.800 C 95.600 113.804,95.433 116.056,95.200 116.200 C 94.967 116.344,94.800 118.577,94.800 121.544 C 94.800 124.347,94.633 126.811,94.429 127.020 C 94.225 127.229,93.955 129.740,93.828 132.600 C 93.702 135.460,93.431 140.230,93.226 143.200 C 93.021 146.170,92.666 151.840,92.437 155.800 C 92.207 159.760,91.836 164.980,91.611 167.400 C 91.387 169.820,91.202 173.724,91.201 176.076 C 91.201 178.494,91.026 180.460,90.800 180.600 C 90.567 180.744,90.400 183.004,90.400 186.024 C 90.400 189.208,90.246 191.200,90.000 191.200 C 89.753 191.200,89.600 193.267,89.600 196.600 C 89.600 199.933,89.447 202.000,89.200 202.000 C 88.953 202.000,88.800 204.059,88.800 207.376 C 88.800 210.529,88.635 212.855,88.400 213.000 C 88.165 213.145,88.000 215.471,88.000 218.624 C 88.000 221.941,87.847 224.000,87.600 224.000 C 87.354 224.000,87.200 225.992,87.200 229.176 C 87.200 232.196,87.033 234.456,86.800 234.600 C 86.567 234.744,86.400 237.004,86.400 240.024 C 86.400 243.208,86.246 245.200,86.000 245.200 C 85.111 245.200,85.503 258.315,86.400 258.600 C 86.840 258.740,87.200 259.022,87.200 259.227 C 87.200 259.432,87.560 259.600,88.000 259.600 C 88.440 259.600,88.800 259.780,88.800 260.000 C 88.800 260.261,95.067 260.400,106.800 260.400 C 122.533 260.400,124.800 260.476,124.800 261.000 C 124.800 261.330,124.620 261.600,124.400 261.600 C 124.147 261.600,124.000 264.459,124.000 269.376 C 124.000 274.129,123.844 277.249,123.600 277.400 C 123.355 277.551,123.200 280.737,123.200 285.624 C 123.200 290.675,123.053 293.600,122.800 293.600 C 122.547 293.600,122.400 296.533,122.400 301.600 C 122.400 306.667,122.253 309.600,122.000 309.600 C 121.747 309.600,121.600 312.533,121.600 317.600 C 121.600 322.667,121.453 325.600,121.200 325.600 C 120.947 325.600,120.800 328.525,120.800 333.576 C 120.800 338.463,120.645 341.649,120.400 341.800 C 120.156 341.951,120.000 345.071,120.000 349.824 C 120.000 354.741,119.853 357.600,119.600 357.600 C 119.346 357.600,119.200 360.643,119.200 365.928 L 119.200 374.256 120.203 375.128 C 120.755 375.608,121.475 376.000,121.803 376.000 C 122.131 376.000,122.400 376.180,122.400 376.400 C 122.400 376.665,148.533 376.800,200.000 376.800 C 251.467 376.800,277.600 376.665,277.600 376.400 C 277.600 376.180,278.063 376.000,278.629 376.000 C 279.941 376.000,280.800 375.141,280.800 373.829 C 280.800 373.263,280.980 372.800,281.200 372.800 C 281.420 372.800,281.600 372.271,281.600 371.624 C 281.600 370.977,281.420 370.336,281.200 370.200 C 280.956 370.049,280.800 366.929,280.800 362.176 C 280.800 357.259,280.653 354.400,280.400 354.400 C 280.147 354.400,280.000 351.475,280.000 346.424 C 280.000 341.537,279.845 338.351,279.600 338.200 C 279.356 338.049,279.200 334.929,279.200 330.176 C 279.200 325.259,279.053 322.400,278.800 322.400 C 278.547 322.400,278.400 319.475,278.400 314.424 C 278.400 309.537,278.245 306.351,278.000 306.200 C 277.756 306.049,277.600 302.929,277.600 298.176 C 277.600 293.259,277.453 290.400,277.200 290.400 C 276.946 290.400,276.800 287.400,276.800 282.200 C 276.800 277.000,276.654 274.000,276.400 274.000 C 276.149 274.000,276.000 271.467,276.000 267.200 L 276.000 260.400 294.000 260.400 C 305.733 260.400,312.000 260.261,312.000 260.000 C 312.000 259.780,312.360 259.600,312.800 259.600 C 313.244 259.600,313.600 259.333,313.600 259.000 C 313.600 258.670,313.780 258.400,314.000 258.400 C 314.251 258.400,314.400 255.808,314.400 251.424 C 314.400 247.204,314.242 244.350,314.000 244.200 C 313.767 244.056,313.600 241.804,313.600 238.800 C 313.600 235.796,313.433 233.544,313.200 233.400 C 312.965 233.255,312.800 230.929,312.800 227.776 C 312.800 224.459,312.647 222.400,312.400 222.400 C 312.154 222.400,312.000 220.408,312.000 217.224 C 312.000 214.204,311.833 211.944,311.600 211.800 C 311.367 211.656,311.200 209.396,311.200 206.376 C 311.200 203.192,311.046 201.200,310.800 201.200 C 310.553 201.200,310.400 199.133,310.400 195.800 C 310.400 192.467,310.247 190.400,310.000 190.400 C 309.754 190.400,309.600 188.398,309.600 185.195 C 309.600 182.332,309.430 179.677,309.222 179.295 C 309.015 178.913,308.652 174.010,308.416 168.400 C 308.181 162.790,307.810 155.815,307.594 152.900 C 307.377 149.985,307.020 145.170,306.800 142.200 C 306.580 139.230,306.215 134.325,305.989 131.300 C 305.764 128.275,305.484 123.460,305.367 120.600 C 305.251 117.740,304.985 115.229,304.778 115.020 C 304.570 114.811,304.400 112.347,304.400 109.544 C 304.400 106.577,304.233 104.344,304.000 104.200 C 303.777 104.062,303.600 102.196,303.600 99.976 C 303.600 97.592,303.440 96.000,303.200 96.000 C 302.980 96.000,302.800 95.291,302.800 94.424 C 302.800 93.557,302.620 92.736,302.400 92.600 C 302.180 92.464,302.000 91.834,302.000 91.200 C 302.000 90.566,301.820 89.936,301.600 89.800 C 301.380 89.664,301.200 89.203,301.200 88.776 C 301.200 88.349,301.020 88.000,300.800 88.000 C 300.580 88.000,300.400 87.651,300.400 87.224 C 300.400 86.797,300.220 86.336,300.000 86.200 C 299.780 86.064,299.600 85.637,299.600 85.252 C 299.600 84.866,299.240 84.164,298.800 83.692 C 298.360 83.220,298.000 82.556,298.000 82.217 C 298.000 81.878,297.820 81.600,297.600 81.600 C 297.380 81.600,297.200 81.357,297.200 81.059 C 297.200 80.762,296.660 79.954,296.000 79.263 C 295.340 78.572,294.800 77.871,294.800 77.704 C 294.800 77.537,294.077 76.680,293.193 75.800 C 292.309 74.920,290.734 73.295,289.693 72.189 C 288.652 71.083,287.170 69.741,286.400 69.208 C 285.630 68.674,284.709 67.914,284.353 67.519 C 283.997 67.124,283.478 66.800,283.200 66.800 C 282.922 66.800,282.403 66.484,282.047 66.097 C 281.691 65.711,280.905 65.140,280.300 64.830 C 279.695 64.519,279.200 64.115,279.200 63.932 C 279.200 63.750,278.922 63.600,278.583 63.600 C 278.244 63.600,277.580 63.240,277.108 62.800 C 276.636 62.360,276.013 62.000,275.725 62.000 C 275.436 62.000,275.200 61.820,275.200 61.600 C 275.200 61.380,274.855 61.200,274.433 61.200 C 274.012 61.200,273.607 61.058,273.533 60.884 C 273.353 60.457,268.928 58.400,268.189 58.400 C 267.865 58.400,267.600 58.220,267.600 58.000 C 267.600 57.780,267.060 57.600,266.400 57.600 C 265.740 57.600,265.200 57.420,265.200 57.200 C 265.200 56.980,264.840 56.800,264.400 56.800 C 263.960 56.800,263.600 56.620,263.600 56.400 C 263.600 56.180,263.060 56.000,262.400 56.000 C 261.740 56.000,261.200 55.820,261.200 55.600 C 261.200 55.380,260.840 55.200,260.400 55.200 C 259.960 55.200,259.600 55.020,259.600 54.800 C 259.600 54.580,259.161 54.400,258.624 54.400 C 258.087 54.400,257.536 54.220,257.400 54.000 C 257.264 53.780,256.724 53.600,256.200 53.600 C 255.676 53.600,255.136 53.420,255.000 53.200 C 254.864 52.980,254.324 52.800,253.800 52.800 C 253.276 52.800,252.736 52.620,252.600 52.400 C 252.464 52.180,251.924 52.000,251.400 52.000 C 250.876 52.000,250.336 51.820,250.200 51.600 C 250.064 51.380,249.333 51.200,248.576 51.200 C 247.819 51.200,247.200 51.020,247.200 50.800 C 247.200 50.580,246.705 50.399,246.100 50.399 C 243.706 50.395,242.400 49.057,242.400 46.606 C 242.400 45.393,242.252 44.400,242.071 44.400 C 241.891 44.400,241.528 42.285,241.265 39.700 C 241.003 37.115,240.685 34.010,240.559 32.800 C 240.433 31.590,240.165 30.429,239.965 30.220 C 239.764 30.011,239.600 28.886,239.600 27.720 C 239.600 26.554,239.420 25.600,239.200 25.600 C 238.980 25.600,238.800 25.317,238.800 24.971 C 238.800 23.379,230.303 22.139,229.400 23.600 C 229.264 23.820,228.353 24.000,227.376 24.000 C 226.399 24.000,225.600 24.144,225.600 24.320 C 225.600 26.094,176.330 26.075,174.565 24.300 C 174.401 24.135,173.487 24.000,172.533 24.000 C 171.580 24.000,170.800 23.820,170.800 23.600 C 170.800 22.825,162.609 23.101,161.923 23.900 M174.180 33.635 C 174.389 33.836,175.748 34.000,177.200 34.000 C 178.652 34.000,180.011 34.169,180.220 34.375 C 180.429 34.581,182.490 34.847,184.800 34.966 C 187.110 35.085,190.485 35.290,192.300 35.421 L 195.600 35.661 195.600 44.630 L 195.600 53.600 191.000 53.600 C 188.200 53.600,186.400 53.443,186.400 53.200 C 186.400 52.967,185.067 52.800,183.200 52.800 C 181.333 52.800,180.000 52.633,180.000 52.400 C 180.000 52.178,178.933 52.000,177.600 52.000 C 176.267 52.000,175.200 51.822,175.200 51.600 C 175.200 51.380,174.311 51.200,173.224 51.200 C 172.137 51.200,171.136 51.020,171.000 50.800 C 170.864 50.580,170.121 50.400,169.348 50.400 C 167.230 50.400,165.591 47.195,167.200 46.200 C 167.420 46.064,167.600 44.894,167.600 43.600 C 167.600 42.306,167.780 41.136,168.000 41.000 C 168.220 40.864,168.400 39.773,168.400 38.576 C 168.400 37.379,168.580 36.400,168.800 36.400 C 169.020 36.400,169.200 35.635,169.199 34.700 L 169.199 33.000 171.499 33.135 C 172.765 33.210,173.971 33.435,174.180 33.635 M230.800 34.800 C 230.800 35.680,230.980 36.400,231.200 36.400 C 231.420 36.400,231.600 37.379,231.600 38.576 C 231.600 39.773,231.780 40.864,232.000 41.000 C 232.220 41.136,232.400 42.306,232.400 43.600 C 232.400 44.894,232.580 46.064,232.800 46.200 C 234.449 47.219,232.873 50.400,230.720 50.400 C 229.884 50.400,229.200 50.580,229.200 50.800 C 229.200 51.020,228.210 51.200,227.000 51.200 C 225.790 51.200,224.800 51.380,224.800 51.600 C 224.800 51.822,223.733 52.000,222.400 52.000 C 221.067 52.000,220.000 52.178,220.000 52.400 C 220.000 52.633,218.667 52.800,216.800 52.800 C 214.933 52.800,213.600 52.967,213.600 53.200 C 213.600 53.443,211.800 53.600,209.000 53.600 L 204.400 53.600 204.400 44.630 L 204.400 35.661 207.700 35.421 C 209.515 35.290,212.890 35.085,215.200 34.966 C 217.510 34.847,219.571 34.581,219.780 34.375 C 219.989 34.169,221.373 34.000,222.856 34.000 C 224.339 34.000,225.664 33.820,225.800 33.600 C 225.936 33.380,227.117 33.200,228.424 33.200 L 230.800 33.200 230.800 34.800 M165.380 59.251 C 165.589 59.443,166.534 59.600,167.480 59.600 C 168.426 59.600,169.200 59.780,169.200 60.000 C 169.200 60.220,170.100 60.400,171.200 60.400 C 172.300 60.400,173.200 60.580,173.200 60.800 C 173.200 61.026,174.333 61.200,175.800 61.200 C 177.267 61.200,178.400 61.374,178.400 61.600 C 178.400 61.822,179.467 62.000,180.800 62.000 L 183.200 62.000 183.200 99.300 L 183.201 136.600 184.147 137.700 C 184.667 138.305,185.387 138.800,185.747 138.800 C 186.106 138.800,186.400 138.950,186.400 139.132 C 186.400 139.315,186.895 139.720,187.500 140.032 C 188.105 140.345,188.838 140.825,189.129 141.100 C 189.419 141.375,190.004 141.600,190.429 141.600 C 190.853 141.600,191.200 141.780,191.200 142.000 C 191.200 142.220,191.430 142.400,191.712 142.400 C 191.993 142.400,192.483 142.760,192.800 143.200 C 193.117 143.640,193.657 144.000,194.000 144.000 C 194.343 144.000,194.883 144.360,195.200 144.800 C 195.517 145.240,196.097 145.600,196.488 145.600 C 196.880 145.600,197.200 145.780,197.200 146.000 C 197.200 146.229,198.400 146.400,200.000 146.400 C 201.600 146.400,202.800 146.229,202.800 146.000 C 202.800 145.780,203.036 145.600,203.325 145.600 C 203.613 145.600,204.198 145.285,204.625 144.900 C 205.051 144.515,205.895 143.945,206.500 143.632 C 207.105 143.320,207.600 142.915,207.600 142.732 C 207.600 142.550,207.870 142.400,208.200 142.400 C 208.530 142.400,208.800 142.220,208.800 142.000 C 208.800 141.780,209.147 141.600,209.571 141.600 C 209.996 141.600,210.581 141.375,210.871 141.100 C 211.162 140.825,211.895 140.345,212.500 140.032 C 213.105 139.720,213.600 139.315,213.600 139.132 C 213.600 138.950,213.894 138.800,214.253 138.800 C 214.613 138.800,215.333 138.305,215.853 137.700 L 216.799 136.600 216.800 99.300 L 216.800 62.000 219.200 62.000 C 220.533 62.000,221.600 61.822,221.600 61.600 C 221.600 61.374,222.733 61.200,224.200 61.200 C 225.667 61.200,226.800 61.026,226.800 60.800 C 226.800 60.580,227.700 60.400,228.800 60.400 C 229.900 60.400,230.800 60.220,230.800 60.000 C 230.800 59.780,231.685 59.600,232.767 59.600 C 233.848 59.600,234.800 59.401,234.881 59.158 C 235.083 58.551,241.897 58.537,242.502 59.142 C 242.754 59.394,243.363 59.600,243.856 59.600 C 244.349 59.600,244.864 59.780,245.000 60.000 C 245.136 60.220,245.766 60.400,246.400 60.400 C 247.034 60.400,247.664 60.580,247.800 60.800 C 247.936 61.020,248.577 61.200,249.224 61.200 C 249.871 61.200,250.400 61.380,250.400 61.600 C 250.400 61.820,250.940 62.000,251.600 62.000 C 252.260 62.000,252.800 62.180,252.800 62.400 C 252.800 62.620,253.340 62.800,254.000 62.800 C 254.660 62.800,255.200 62.980,255.200 63.200 C 255.200 63.420,255.549 63.600,255.976 63.600 C 256.403 63.600,256.864 63.780,257.000 64.000 C 257.136 64.220,257.687 64.400,258.224 64.400 C 258.761 64.400,259.200 64.580,259.200 64.800 C 259.200 65.020,259.549 65.200,259.976 65.200 C 260.403 65.200,260.864 65.380,261.000 65.600 C 261.136 65.820,261.597 66.000,262.024 66.000 C 262.451 66.000,262.800 66.180,262.800 66.400 C 262.800 66.620,263.160 66.800,263.600 66.800 C 264.040 66.800,264.400 66.980,264.400 67.200 C 264.400 67.420,264.760 67.600,265.200 67.600 C 265.640 67.600,266.000 67.780,266.000 68.000 C 266.000 68.220,266.360 68.400,266.800 68.400 C 267.240 68.400,267.600 68.580,267.600 68.800 C 267.600 69.020,267.960 69.200,268.400 69.200 C 268.840 69.200,269.200 69.380,269.200 69.600 C 269.200 69.820,269.560 70.000,270.000 70.000 C 270.440 70.000,270.800 70.180,270.800 70.400 C 270.800 70.620,271.036 70.800,271.325 70.800 C 271.613 70.800,272.236 71.160,272.708 71.600 C 273.180 72.040,273.762 72.400,274.000 72.400 C 274.239 72.400,274.651 72.577,274.917 72.794 C 277.212 74.666,277.976 75.200,278.358 75.200 C 278.601 75.200,278.800 75.380,278.800 75.600 C 278.800 75.820,278.982 76.000,279.205 76.000 C 279.766 76.000,288.000 84.284,288.000 84.848 C 288.000 85.100,288.316 85.597,288.703 85.953 C 289.089 86.309,289.660 87.095,289.970 87.700 C 290.281 88.305,290.685 88.800,290.868 88.800 C 291.050 88.800,291.200 89.149,291.200 89.576 C 291.200 90.003,291.364 90.454,291.565 90.578 C 291.766 90.703,292.052 91.522,292.200 92.400 C 292.348 93.278,292.634 94.097,292.835 94.222 C 293.036 94.346,293.200 95.067,293.200 95.824 C 293.200 96.581,293.367 97.200,293.571 97.200 C 293.774 97.200,294.046 98.775,294.174 100.700 C 294.302 102.625,294.590 106.630,294.814 109.600 C 295.038 112.570,295.316 117.295,295.433 120.100 C 295.549 122.905,295.814 125.200,296.022 125.200 C 296.241 125.200,296.400 127.470,296.400 130.576 C 296.400 133.729,296.565 136.055,296.800 136.200 C 297.032 136.343,297.200 138.530,297.200 141.400 C 297.200 144.270,297.368 146.457,297.600 146.600 C 297.833 146.744,298.000 149.004,298.000 152.024 C 298.000 155.208,298.154 157.200,298.400 157.200 C 298.647 157.200,298.800 159.240,298.800 162.520 C 298.800 165.446,298.970 168.011,299.177 168.220 C 299.385 168.429,299.656 170.940,299.779 173.800 C 299.903 176.660,300.103 181.295,300.224 184.100 C 300.345 186.905,300.614 189.200,300.822 189.200 C 301.041 189.200,301.200 191.470,301.200 194.576 C 301.200 197.729,301.365 200.055,301.600 200.200 C 301.832 200.343,302.000 202.530,302.000 205.400 C 302.000 208.270,302.168 210.457,302.400 210.600 C 302.633 210.744,302.800 212.996,302.800 216.000 C 302.800 219.004,302.967 221.256,303.200 221.400 C 303.420 221.536,303.600 222.987,303.600 224.624 L 303.600 227.600 289.000 227.600 C 280.970 227.600,274.370 227.555,274.332 227.500 C 274.229 227.348,273.622 211.566,273.390 203.000 C 273.277 198.820,273.009 195.040,272.796 194.600 C 272.582 194.160,272.315 190.290,272.203 186.000 C 271.664 165.478,271.540 162.580,271.183 162.223 C 270.966 162.006,270.800 158.513,270.800 154.144 C 270.800 149.444,270.644 146.351,270.400 146.200 C 270.156 146.049,270.000 142.937,270.000 138.200 C 270.000 133.463,269.844 130.351,269.600 130.200 C 269.369 130.057,269.200 127.927,269.200 125.171 C 269.200 119.801,268.453 117.600,266.629 117.600 C 266.283 117.600,266.000 117.420,266.000 117.200 C 266.000 116.980,265.381 116.800,264.624 116.800 C 263.867 116.800,263.136 116.980,263.000 117.200 C 262.864 117.420,262.481 117.600,262.148 117.600 C 260.292 117.600,259.507 119.996,259.780 124.826 C 259.909 127.122,260.191 132.600,260.406 137.000 C 260.621 141.400,260.981 148.690,261.206 153.200 C 261.431 157.710,261.703 164.820,261.811 169.000 C 261.919 173.180,262.184 176.960,262.400 177.400 C 262.616 177.840,262.885 181.710,262.998 186.000 C 263.111 190.290,263.299 197.355,263.417 201.700 C 263.543 206.331,263.791 209.600,264.016 209.600 C 264.248 209.600,264.400 212.748,264.400 217.576 C 264.400 222.463,264.555 225.649,264.800 225.800 C 265.044 225.951,265.200 229.063,265.200 233.800 C 265.200 238.537,265.356 241.649,265.600 241.800 C 265.845 241.951,266.000 245.137,266.000 250.024 C 266.000 255.075,266.147 258.000,266.400 258.000 C 266.653 258.000,266.800 260.925,266.800 265.976 C 266.800 270.863,266.955 274.049,267.200 274.200 C 267.444 274.351,267.600 277.463,267.600 282.200 C 267.600 286.937,267.756 290.049,268.000 290.200 C 268.245 290.351,268.400 293.537,268.400 298.424 C 268.400 303.475,268.547 306.400,268.800 306.400 C 269.053 306.400,269.200 309.325,269.200 314.376 C 269.200 319.263,269.355 322.449,269.600 322.600 C 269.844 322.751,270.000 325.863,270.000 330.600 C 270.000 335.337,270.156 338.449,270.400 338.600 C 270.621 338.737,270.800 340.537,270.800 342.624 L 270.800 346.400 200.000 346.400 L 129.200 346.400 129.200 344.224 C 129.200 343.027,129.380 341.936,129.600 341.800 C 129.844 341.649,130.000 338.529,130.000 333.776 C 130.000 328.859,130.147 326.000,130.400 326.000 C 130.654 326.000,130.800 323.000,130.800 317.800 C 130.800 312.600,130.946 309.600,131.200 309.600 C 131.453 309.600,131.600 306.741,131.600 301.824 C 131.600 297.071,131.756 293.951,132.000 293.800 C 132.245 293.649,132.400 290.463,132.400 285.576 C 132.400 280.525,132.547 277.600,132.800 277.600 C 133.053 277.600,133.200 274.675,133.200 269.624 C 133.200 264.737,133.355 261.551,133.600 261.400 C 133.844 261.249,134.000 258.137,134.000 253.400 C 134.000 248.663,134.156 245.551,134.400 245.400 C 134.645 245.249,134.800 242.070,134.800 237.200 C 134.800 232.330,134.955 229.151,135.200 229.000 C 135.444 228.849,135.600 225.737,135.600 221.000 C 135.600 216.263,135.756 213.151,136.000 213.000 C 136.244 212.849,136.400 209.737,136.400 205.000 C 136.400 200.263,136.556 197.151,136.800 197.000 C 137.045 196.849,137.200 193.689,137.200 188.856 C 137.200 184.365,137.365 180.795,137.583 180.577 C 137.793 180.367,138.060 176.776,138.176 172.597 C 138.292 168.419,138.569 161.310,138.791 156.800 C 140.680 118.578,140.654 120.053,139.470 118.700 C 138.940 118.095,138.213 117.600,137.853 117.600 C 137.494 117.600,137.200 117.420,137.200 117.200 C 137.200 116.980,136.581 116.800,135.824 116.800 C 135.067 116.800,134.336 116.980,134.200 117.200 C 134.064 117.420,133.681 117.600,133.348 117.600 C 132.560 117.600,131.600 118.573,131.600 119.371 C 131.600 119.717,131.420 120.000,131.200 120.000 C 130.950 120.000,130.800 122.459,130.800 126.576 C 130.800 130.529,130.640 133.251,130.400 133.400 C 130.155 133.551,130.000 136.711,130.000 141.544 C 130.000 146.035,129.835 149.605,129.617 149.823 C 129.261 150.179,129.126 153.283,128.596 173.300 C 128.484 177.535,128.216 181.360,128.000 181.800 C 127.784 182.240,127.519 186.020,127.411 190.200 C 127.303 194.380,127.034 201.400,126.813 205.800 C 126.592 210.200,126.307 216.905,126.180 220.700 L 125.947 227.600 111.174 227.600 L 96.400 227.600 96.400 225.424 C 96.400 224.227,96.580 223.136,96.800 223.000 C 97.033 222.856,97.200 220.604,97.200 217.600 C 97.200 214.596,97.367 212.344,97.600 212.200 C 97.833 212.056,98.000 209.804,98.000 206.800 C 98.000 203.796,98.167 201.544,98.400 201.400 C 98.633 201.256,98.800 198.996,98.800 195.976 C 98.800 192.792,98.954 190.800,99.200 190.800 C 99.447 190.800,99.600 188.741,99.600 185.424 C 99.600 182.271,99.765 179.945,100.000 179.800 C 100.233 179.656,100.400 177.404,100.400 174.400 C 100.400 171.396,100.567 169.144,100.800 169.000 C 101.035 168.855,101.200 166.529,101.200 163.376 C 101.200 160.059,101.353 158.000,101.600 158.000 C 101.846 158.000,102.000 156.008,102.000 152.824 C 102.000 149.804,102.167 147.544,102.400 147.400 C 102.633 147.256,102.800 145.023,102.800 142.056 C 102.800 139.253,102.970 136.789,103.178 136.580 C 103.385 136.371,103.651 133.860,103.767 131.000 C 103.884 128.140,104.164 123.325,104.389 120.300 C 104.615 117.275,104.979 112.415,105.197 109.500 C 105.415 106.585,105.698 102.625,105.826 100.700 C 105.954 98.775,106.226 97.200,106.429 97.200 C 106.633 97.200,106.800 96.606,106.800 95.880 C 106.800 95.154,106.948 94.389,107.129 94.180 C 107.310 93.971,107.801 92.755,108.219 91.479 C 108.638 90.202,109.300 88.815,109.690 88.395 C 110.081 87.976,110.400 87.396,110.400 87.105 C 110.400 86.814,110.760 86.317,111.200 86.000 C 111.640 85.683,112.000 85.191,112.000 84.907 C 112.000 84.302,120.198 76.000,120.795 76.000 C 121.018 76.000,121.200 75.820,121.200 75.600 C 121.200 75.380,121.392 75.200,121.627 75.200 C 122.092 75.200,124.918 73.186,125.133 72.700 C 125.207 72.535,125.612 72.400,126.033 72.400 C 126.455 72.400,126.800 72.242,126.800 72.049 C 126.800 71.855,127.340 71.473,128.000 71.200 C 128.660 70.927,129.200 70.545,129.200 70.351 C 129.200 70.158,129.560 70.000,130.000 70.000 C 130.440 70.000,130.800 69.820,130.800 69.600 C 130.800 69.380,131.160 69.200,131.600 69.200 C 132.040 69.200,132.400 69.020,132.400 68.800 C 132.400 68.580,132.760 68.400,133.200 68.400 C 133.640 68.400,134.000 68.220,134.000 68.000 C 134.000 67.780,134.360 67.600,134.800 67.600 C 135.240 67.600,135.600 67.420,135.600 67.200 C 135.600 66.980,135.960 66.800,136.400 66.800 C 136.840 66.800,137.200 66.620,137.200 66.400 C 137.200 66.180,137.650 66.000,138.200 66.000 C 138.750 66.000,139.200 65.820,139.200 65.600 C 139.200 65.380,139.549 65.200,139.976 65.200 C 140.403 65.200,140.864 65.020,141.000 64.800 C 141.136 64.580,141.687 64.400,142.224 64.400 C 142.761 64.400,143.200 64.220,143.200 64.000 C 143.200 63.780,143.560 63.600,144.000 63.600 C 144.440 63.600,144.800 63.420,144.800 63.200 C 144.800 62.980,145.340 62.800,146.000 62.800 C 146.660 62.800,147.200 62.620,147.200 62.400 C 147.200 62.180,147.740 62.000,148.400 62.000 C 149.060 62.000,149.600 61.820,149.600 61.600 C 149.600 61.380,150.129 61.200,150.776 61.200 C 151.423 61.200,152.064 61.020,152.200 60.800 C 152.336 60.580,152.966 60.400,153.600 60.400 C 154.234 60.400,154.864 60.220,155.000 60.000 C 155.136 59.780,155.741 59.600,156.344 59.600 C 156.947 59.600,157.611 59.434,157.820 59.231 C 158.634 58.440,164.513 58.455,165.380 59.251 M207.600 97.018 L 207.600 131.236 206.618 132.218 C 206.078 132.758,205.358 133.200,205.018 133.200 C 204.678 133.200,204.400 133.380,204.400 133.600 C 204.400 133.820,204.164 134.000,203.875 134.000 C 203.587 134.000,202.964 134.360,202.492 134.800 C 202.020 135.240,201.356 135.600,201.017 135.600 C 200.678 135.600,200.400 135.780,200.400 136.000 C 200.400 136.661,199.407 136.453,198.492 135.600 C 198.020 135.160,197.396 134.800,197.105 134.800 C 196.814 134.800,196.317 134.440,196.000 134.000 C 195.683 133.560,195.194 133.200,194.915 133.200 C 194.635 133.200,193.955 132.808,193.403 132.328 L 192.400 131.456 192.400 97.128 L 192.400 62.800 200.000 62.800 L 207.600 62.800 207.600 97.018 M196.500 71.810 C 194.557 73.886,195.785 79.200,198.208 79.200 C 198.563 79.200,199.220 79.397,199.669 79.637 C 200.260 79.953,200.607 79.953,200.923 79.637 C 201.163 79.397,201.602 79.200,201.898 79.200 C 203.266 79.200,204.400 77.296,204.400 75.000 C 204.400 70.998,199.219 68.906,196.500 71.810 M198.000 86.000 C 198.000 86.220,197.669 86.400,197.264 86.400 C 196.253 86.400,195.598 88.035,195.613 90.519 C 195.626 92.723,196.261 94.000,197.344 94.000 C 197.705 94.000,198.000 94.180,198.000 94.400 C 198.000 94.620,198.900 94.800,200.000 94.800 C 201.100 94.800,202.000 94.620,202.000 94.400 C 202.000 94.180,202.283 94.000,202.629 94.000 C 203.889 94.000,204.400 92.932,204.387 90.329 C 204.374 87.691,203.805 86.400,202.656 86.400 C 202.295 86.400,202.000 86.220,202.000 86.000 C 202.000 85.780,201.100 85.600,200.000 85.600 C 198.900 85.600,198.000 85.780,198.000 86.000 M196.500 102.210 C 193.723 105.176,195.819 109.600,200.000 109.600 C 204.236 109.600,206.318 105.082,203.418 102.182 C 201.998 100.762,197.840 100.779,196.500 102.210 M198.000 116.400 C 198.000 116.620,197.705 116.800,197.344 116.800 C 195.246 116.800,194.839 122.186,196.796 124.057 C 198.634 125.813,202.386 125.590,203.887 123.635 C 204.550 122.772,204.548 118.078,203.885 117.471 C 202.396 116.110,198.000 115.310,198.000 116.400 M125.200 239.938 C 125.200 241.444,125.083 244.594,124.939 246.938 L 124.678 251.200 109.739 251.200 L 94.800 251.200 94.800 248.000 C 94.800 246.133,94.967 244.800,95.200 244.800 C 95.439 244.800,95.600 243.267,95.600 241.000 L 95.600 237.200 110.400 237.200 L 125.200 237.200 125.200 239.938 M304.400 239.800 C 304.400 241.267,304.574 242.400,304.800 242.400 C 305.042 242.400,305.200 244.133,305.200 246.800 L 305.200 251.200 290.200 251.200 L 275.200 251.200 275.200 247.861 C 275.200 246.025,275.083 242.875,274.940 240.861 L 274.680 237.200 289.540 237.200 L 304.400 237.200 304.400 239.800 M271.600 361.800 L 271.600 367.600 258.824 367.600 C 250.737 367.600,245.956 367.747,245.800 368.000 C 245.638 368.263,229.929 368.400,199.976 368.400 C 169.859 368.400,154.400 368.264,154.400 368.000 C 154.400 367.742,149.800 367.600,141.400 367.600 L 128.400 367.600 128.400 362.800 C 128.400 359.867,128.556 358.000,128.800 358.000 C 129.020 358.000,129.200 357.550,129.200 357.000 L 129.200 356.000 200.400 356.000 L 271.600 356.000 271.600 361.800 " stroke="none" fill="#22a45d" fill-rule="evenodd"></path><path id="path1" d="" stroke="none" fill="#080404" fill-rule="evenodd"></path><path id="path2" d="" stroke="none" fill="#080404" fill-rule="evenodd"></path><path id="path3" d="" stroke="none" fill="#080404" fill-rule="evenodd"></path><path id="path4" d="" stroke="none" fill="#080404" fill-rule="evenodd"></path></g></svg>