<svg id="svg" version="1.1" xmlns="http://www.w3.org/2000/svg" xmlns:xlink="http://www.w3.org/1999/xlink" width="400" height="400" viewBox="0, 0, 400,400"><g id="svgg"><path id="path0" d="M165.200 12.400 C 165.200 12.620,164.840 12.800,164.400 12.800 C 163.960 12.800,163.600 12.980,163.600 13.200 C 163.600 13.420,163.240 13.600,162.800 13.600 C 162.360 13.600,162.000 13.780,162.000 14.000 C 162.000 14.220,161.640 14.400,161.200 14.400 C 160.760 14.400,160.400 14.546,160.400 14.725 C 160.400 14.904,159.770 15.298,159.000 15.600 C 158.230 15.902,157.600 16.296,157.600 16.475 C 157.600 16.654,157.240 16.800,156.800 16.800 C 156.360 16.800,156.000 16.980,156.000 17.200 C 156.000 17.420,155.640 17.600,155.200 17.600 C 154.760 17.600,154.400 17.780,154.400 18.000 C 154.400 18.220,154.040 18.400,153.600 18.400 C 153.160 18.400,152.800 18.580,152.800 18.800 C 152.800 19.020,152.440 19.200,152.000 19.200 C 151.560 19.200,151.200 19.380,151.200 19.600 C 151.200 19.820,150.840 20.000,150.400 20.000 C 149.960 20.000,149.600 20.180,149.600 20.400 C 149.600 20.620,149.240 20.800,148.800 20.800 C 148.360 20.800,148.000 20.980,148.000 21.200 C 148.000 21.420,147.640 21.600,147.200 21.600 C 146.760 21.600,146.400 21.780,146.400 22.000 C 146.400 22.220,146.040 22.400,145.600 22.400 C 145.160 22.400,144.800 22.580,144.800 22.800 C 144.800 23.020,144.440 23.200,144.000 23.200 C 143.560 23.200,143.200 23.380,143.200 23.600 C 143.200 23.820,142.930 24.000,142.600 24.000 C 142.270 24.000,142.000 24.157,142.000 24.350 C 142.000 24.543,141.503 24.799,140.895 24.921 C 139.836 25.133,138.000 26.417,138.000 26.946 C 138.000 27.085,137.280 27.941,136.400 28.848 C 135.520 29.755,134.800 30.669,134.800 30.880 C 134.800 31.090,134.080 31.954,133.200 32.800 C 132.320 33.646,131.600 34.531,131.600 34.768 C 131.600 35.005,130.880 35.941,130.000 36.848 C 129.120 37.755,128.400 38.661,128.400 38.862 C 128.400 39.062,127.770 39.857,127.000 40.627 C 126.230 41.397,125.600 42.179,125.600 42.365 C 125.600 42.551,124.880 43.445,124.000 44.352 C 123.120 45.259,122.400 46.195,122.400 46.432 C 122.400 46.669,121.680 47.554,120.800 48.400 C 119.920 49.246,119.200 50.146,119.200 50.400 C 119.200 50.654,118.480 51.554,117.600 52.400 C 116.720 53.246,116.000 54.146,116.000 54.400 C 116.000 54.654,115.325 55.530,114.500 56.346 C 113.675 57.163,112.775 58.226,112.500 58.710 C 111.961 59.658,111.792 66.000,112.305 66.000 C 112.473 66.000,112.788 66.405,113.005 66.900 C 113.222 67.395,113.805 67.978,114.300 68.195 C 114.795 68.412,115.200 68.727,115.200 68.895 C 115.200 69.063,115.560 69.200,116.000 69.200 C 116.440 69.200,116.800 69.380,116.800 69.600 C 116.800 69.820,117.160 70.000,117.600 70.000 C 118.040 70.000,118.400 70.180,118.400 70.400 C 118.400 70.620,118.760 70.800,119.200 70.800 C 119.640 70.800,120.000 70.980,120.000 71.200 C 120.000 71.420,120.360 71.600,120.800 71.600 C 121.240 71.600,121.600 71.780,121.600 72.000 C 121.600 72.220,121.960 72.400,122.400 72.400 C 122.840 72.400,123.200 72.580,123.200 72.800 C 123.200 73.020,123.560 73.200,124.000 73.200 C 124.440 73.200,124.800 73.338,124.800 73.506 C 124.800 73.877,127.769 75.200,128.603 75.200 C 128.931 75.200,129.200 75.380,129.200 75.600 C 129.200 75.820,129.560 76.000,130.000 76.000 C 130.440 76.000,130.800 76.180,130.800 76.400 C 130.800 76.620,131.160 76.800,131.600 76.800 C 132.040 76.800,132.400 76.980,132.400 77.200 C 132.400 77.420,132.760 77.600,133.200 77.600 C 133.640 77.600,134.000 77.780,134.000 78.000 C 134.000 78.220,134.360 78.400,134.800 78.400 C 135.240 78.400,135.600 78.580,135.600 78.800 C 135.600 79.020,135.960 79.200,136.400 79.200 C 136.840 79.200,137.200 79.380,137.200 79.600 C 137.200 79.820,137.560 80.000,138.000 80.000 C 138.440 80.000,138.800 80.180,138.800 80.400 C 138.800 80.620,139.078 80.800,139.417 80.800 C 140.203 80.800,150.400 91.118,150.400 91.914 C 150.400 92.084,150.760 92.483,151.200 92.800 C 151.640 93.117,152.000 93.657,152.000 94.000 C 152.000 94.343,152.360 94.883,152.800 95.200 C 153.240 95.517,153.600 96.097,153.600 96.488 C 153.600 96.880,153.780 97.200,154.000 97.200 C 154.220 97.200,154.400 97.470,154.400 97.800 C 154.400 98.130,154.580 98.400,154.800 98.400 C 155.020 98.400,155.200 98.670,155.200 99.000 C 155.200 99.330,155.380 99.600,155.600 99.600 C 155.820 99.600,156.000 99.960,156.000 100.400 C 156.000 100.840,156.180 101.200,156.400 101.200 C 156.620 101.200,156.800 101.639,156.800 102.176 C 156.800 102.713,156.980 103.264,157.200 103.400 C 157.420 103.536,157.600 103.997,157.600 104.424 C 157.600 104.851,157.744 105.200,157.921 105.200 C 158.228 105.200,158.995 107.933,159.466 110.700 C 159.588 111.415,159.848 112.000,160.044 112.000 C 160.240 112.000,160.400 112.774,160.400 113.720 C 160.400 114.666,160.569 115.611,160.775 115.820 C 161.207 116.258,161.540 121.652,161.829 132.885 L 162.032 140.770 160.516 142.300 C 158.834 143.997,157.600 145.492,157.600 145.831 C 157.600 145.952,156.700 146.929,155.600 148.000 C 154.500 149.071,153.600 150.124,153.600 150.339 C 153.600 150.554,152.520 151.827,151.200 153.168 C 149.880 154.508,148.800 155.760,148.800 155.949 C 148.800 156.138,147.855 157.283,146.700 158.493 C 145.545 159.703,144.060 161.379,143.400 162.217 C 142.740 163.056,141.975 163.967,141.700 164.242 C 141.425 164.518,141.200 164.950,141.200 165.203 C 141.200 165.456,140.480 166.354,139.600 167.200 C 138.720 168.046,138.000 168.894,138.000 169.085 C 138.000 169.276,137.280 170.228,136.400 171.200 C 135.520 172.172,134.800 173.128,134.800 173.324 C 134.800 173.519,134.260 174.183,133.600 174.800 C 132.940 175.417,132.400 176.030,132.400 176.164 C 132.400 176.298,131.860 176.972,131.200 177.663 C 130.540 178.354,130.000 179.074,130.000 179.263 C 130.000 179.452,129.460 180.172,128.800 180.863 C 128.140 181.554,127.600 182.280,127.600 182.477 C 127.600 182.674,127.157 183.313,126.616 183.896 C 126.075 184.480,125.423 185.462,125.167 186.079 C 124.912 186.695,124.545 187.200,124.351 187.200 C 124.158 187.200,124.000 187.443,124.000 187.741 C 124.000 188.038,123.460 188.846,122.800 189.537 C 122.140 190.228,121.600 191.025,121.600 191.308 C 121.600 191.591,121.240 192.083,120.800 192.400 C 120.360 192.717,120.000 193.167,120.000 193.400 C 120.000 193.633,119.640 194.083,119.200 194.400 C 118.760 194.717,118.400 195.257,118.400 195.600 C 118.400 195.943,118.040 196.483,117.600 196.800 C 117.160 197.117,116.800 197.573,116.800 197.813 C 116.800 198.053,116.485 198.598,116.100 199.025 C 115.715 199.451,115.145 200.295,114.832 200.900 C 114.520 201.505,114.115 202.000,113.932 202.000 C 113.750 202.000,113.600 202.236,113.600 202.525 C 113.600 202.813,113.285 203.398,112.900 203.825 C 112.515 204.251,111.945 205.095,111.632 205.700 C 111.320 206.305,110.915 206.800,110.732 206.800 C 110.550 206.800,110.400 207.145,110.400 207.567 C 110.400 207.988,110.265 208.393,110.100 208.467 C 109.669 208.658,107.600 211.906,107.600 212.391 C 107.600 212.616,107.420 212.800,107.200 212.800 C 106.980 212.800,106.800 213.036,106.800 213.325 C 106.800 213.613,106.440 214.236,106.000 214.708 C 105.560 215.180,105.200 215.804,105.200 216.095 C 105.200 216.386,104.840 216.883,104.400 217.200 C 103.960 217.517,103.600 218.097,103.600 218.488 C 103.600 218.880,103.420 219.200,103.200 219.200 C 102.980 219.200,102.800 219.520,102.800 219.912 C 102.800 220.303,102.440 220.883,102.000 221.200 C 101.560 221.517,101.200 222.014,101.200 222.305 C 101.200 222.596,100.840 223.220,100.400 223.692 C 99.960 224.164,99.600 224.787,99.600 225.075 C 99.600 225.364,99.420 225.600,99.200 225.600 C 98.980 225.600,98.800 225.870,98.800 226.200 C 98.800 226.530,98.620 226.800,98.400 226.800 C 98.180 226.800,98.000 227.070,98.000 227.400 C 98.000 227.730,97.820 228.000,97.600 228.000 C 97.380 228.000,97.200 228.270,97.200 228.600 C 97.200 228.930,97.020 229.200,96.800 229.200 C 96.580 229.200,96.400 229.478,96.400 229.817 C 96.400 230.156,96.040 230.820,95.600 231.292 C 95.160 231.764,94.800 232.387,94.800 232.675 C 94.800 232.964,94.651 233.200,94.470 233.200 C 94.288 233.200,93.613 234.280,92.970 235.599 C 92.326 236.919,91.665 237.999,91.500 237.999 C 91.335 238.000,91.200 238.320,91.200 238.712 C 91.200 239.103,90.840 239.683,90.400 240.000 C 89.960 240.317,89.600 240.897,89.600 241.288 C 89.600 241.680,89.420 242.000,89.200 242.000 C 88.980 242.000,88.800 242.188,88.800 242.417 C 88.800 242.646,88.440 243.220,88.000 243.692 C 87.560 244.164,87.200 244.787,87.200 245.075 C 87.200 245.364,87.020 245.600,86.800 245.600 C 86.580 245.600,86.400 245.836,86.400 246.125 C 86.400 246.413,86.040 247.036,85.600 247.508 C 85.160 247.980,84.800 248.562,84.800 248.800 C 84.800 249.038,84.440 249.620,84.000 250.092 C 83.560 250.564,83.200 251.187,83.200 251.475 C 83.200 251.764,83.020 252.000,82.800 252.000 C 82.580 252.000,82.400 252.320,82.400 252.712 C 82.400 253.103,82.040 253.683,81.600 254.000 C 81.160 254.317,80.800 254.897,80.800 255.288 C 80.800 255.680,80.642 256.000,80.449 256.000 C 80.255 256.000,79.873 256.540,79.600 257.200 C 79.327 257.860,78.945 258.400,78.751 258.400 C 78.558 258.400,78.400 258.593,78.400 258.828 C 78.400 259.063,77.860 260.041,77.200 261.000 C 76.540 261.959,76.000 262.915,76.000 263.123 C 76.000 263.332,75.730 263.726,75.400 264.000 C 75.070 264.274,74.800 264.796,74.800 265.161 C 74.800 265.525,74.440 266.083,74.000 266.400 C 73.560 266.717,73.200 267.297,73.200 267.688 C 73.200 268.080,73.020 268.400,72.800 268.400 C 72.580 268.400,72.400 268.720,72.400 269.112 C 72.400 269.503,72.040 270.083,71.600 270.400 C 71.160 270.717,70.800 271.214,70.800 271.505 C 70.800 271.796,70.440 272.420,70.000 272.892 C 69.560 273.364,69.200 273.987,69.200 274.275 C 69.200 274.564,69.020 274.800,68.800 274.800 C 68.580 274.800,68.400 275.070,68.400 275.400 C 68.400 275.730,68.220 276.000,68.000 276.000 C 67.780 276.000,67.600 276.270,67.600 276.600 C 67.600 276.930,67.420 277.200,67.200 277.200 C 66.980 277.200,66.800 277.470,66.800 277.800 C 66.800 278.130,66.620 278.400,66.400 278.400 C 66.180 278.400,66.000 278.720,66.000 279.112 C 66.000 279.503,65.640 280.083,65.200 280.400 C 64.760 280.717,64.400 281.214,64.400 281.505 C 64.400 281.796,64.040 282.420,63.600 282.892 C 63.160 283.364,62.800 283.987,62.800 284.275 C 62.800 284.564,62.620 284.800,62.400 284.800 C 62.180 284.800,62.000 285.078,62.000 285.417 C 62.000 285.756,61.640 286.420,61.200 286.892 C 60.760 287.364,60.400 287.987,60.400 288.275 C 60.400 288.564,60.260 288.800,60.090 288.800 C 59.919 288.800,59.424 289.608,58.990 290.596 C 58.555 291.584,58.065 292.394,57.900 292.396 C 57.735 292.398,57.600 292.670,57.600 293.000 C 57.600 293.330,57.420 293.600,57.200 293.600 C 56.980 293.600,56.800 293.870,56.800 294.200 C 56.800 294.530,56.620 294.800,56.400 294.800 C 56.180 294.800,56.000 295.036,56.000 295.325 C 56.000 295.613,55.640 296.236,55.200 296.708 C 54.760 297.180,54.400 297.762,54.400 298.000 C 54.400 298.238,54.040 298.820,53.600 299.292 C 53.160 299.764,52.800 300.387,52.800 300.675 C 52.800 300.964,52.620 301.200,52.400 301.200 C 52.180 301.200,52.000 301.520,52.000 301.912 C 52.000 302.303,51.640 302.883,51.200 303.200 C 50.760 303.517,50.400 304.097,50.400 304.488 C 50.400 304.880,50.242 305.200,50.049 305.200 C 49.855 305.200,49.473 305.740,49.200 306.400 C 48.927 307.060,48.545 307.600,48.351 307.600 C 48.158 307.600,48.000 307.836,48.000 308.125 C 48.000 308.413,47.685 308.998,47.300 309.425 C 46.915 309.851,46.330 310.740,46.001 311.400 C 45.671 312.060,45.287 312.690,45.147 312.800 C 42.597 314.806,42.470 320.617,44.900 324.132 C 46.761 326.823,55.363 335.600,56.140 335.600 C 56.406 335.600,56.883 335.960,57.200 336.400 C 57.517 336.840,57.985 337.200,58.239 337.200 C 58.494 337.200,58.923 337.466,59.193 337.792 C 59.463 338.117,60.160 338.631,60.742 338.934 C 65.571 341.450,65.756 341.652,64.478 343.025 C 64.080 343.451,63.497 344.385,63.180 345.100 C 62.864 345.815,62.469 346.400,62.302 346.400 C 62.136 346.400,62.000 348.020,62.000 350.000 C 62.000 351.980,62.150 353.600,62.332 353.600 C 62.515 353.600,62.895 354.031,63.177 354.557 C 63.632 355.407,67.344 357.600,68.329 357.600 C 68.538 357.600,69.224 357.869,69.854 358.198 C 70.484 358.526,71.495 358.796,72.100 358.798 C 72.705 358.799,73.200 358.980,73.200 359.200 C 73.200 359.420,73.560 359.600,74.000 359.600 C 74.440 359.600,74.800 359.780,74.800 360.000 C 74.800 360.220,75.239 360.400,75.776 360.400 C 76.313 360.400,76.864 360.580,77.000 360.800 C 77.136 361.020,77.676 361.200,78.200 361.200 C 78.724 361.200,79.264 361.380,79.400 361.600 C 79.536 361.820,80.166 362.000,80.800 362.000 C 81.434 362.000,82.064 362.180,82.200 362.400 C 82.336 362.620,83.067 362.800,83.824 362.800 C 84.581 362.800,85.200 362.980,85.200 363.200 C 85.200 363.420,86.010 363.600,87.000 363.600 C 87.990 363.600,88.800 363.780,88.800 364.000 C 88.800 364.220,89.779 364.400,90.976 364.400 C 92.173 364.400,93.264 364.580,93.400 364.800 C 93.543 365.032,95.726 365.200,98.590 365.200 C 102.181 365.200,103.583 365.337,103.714 365.700 C 103.859 366.100,104.065 366.100,104.742 365.700 C 107.269 364.208,115.637 365.494,113.200 367.000 C 112.980 367.136,112.800 367.946,112.800 368.800 C 112.800 369.654,112.620 370.464,112.400 370.600 C 111.937 370.886,111.846 378.400,112.305 378.400 C 112.473 378.400,112.788 378.805,113.005 379.300 C 113.222 379.795,113.805 380.378,114.300 380.595 C 114.795 380.812,115.200 381.127,115.200 381.295 C 115.200 381.463,115.729 381.600,116.376 381.600 C 117.023 381.600,117.664 381.780,117.800 382.000 C 117.936 382.220,119.027 382.400,120.224 382.400 C 121.421 382.400,122.400 382.580,122.400 382.800 C 122.400 383.022,123.467 383.200,124.800 383.200 C 126.133 383.200,127.200 383.378,127.200 383.600 C 127.200 383.820,128.179 384.000,129.376 384.000 C 130.573 384.000,131.664 384.180,131.800 384.400 C 131.936 384.620,133.207 384.800,134.624 384.800 C 136.075 384.800,137.200 384.975,137.200 385.200 C 137.200 385.429,138.400 385.600,140.000 385.600 C 141.600 385.600,142.800 385.771,142.800 386.000 C 142.800 386.235,144.200 386.400,146.200 386.400 C 148.200 386.400,149.600 386.565,149.600 386.800 C 149.600 387.042,151.325 387.200,153.976 387.200 C 156.463 387.200,158.460 387.373,158.600 387.600 C 158.942 388.153,241.058 388.153,241.400 387.600 C 241.540 387.373,243.537 387.200,246.024 387.200 C 248.675 387.200,250.400 387.042,250.400 386.800 C 250.400 386.565,251.800 386.400,253.800 386.400 C 255.800 386.400,257.200 386.235,257.200 386.000 C 257.200 385.771,258.400 385.600,260.000 385.600 C 261.600 385.600,262.800 385.429,262.800 385.200 C 262.800 384.975,263.925 384.800,265.376 384.800 C 266.793 384.800,268.064 384.620,268.200 384.400 C 268.336 384.180,269.427 384.000,270.624 384.000 C 271.821 384.000,272.800 383.820,272.800 383.600 C 272.800 383.378,273.867 383.200,275.200 383.200 C 276.533 383.200,277.600 383.022,277.600 382.800 C 277.600 382.578,278.667 382.400,280.000 382.400 C 281.333 382.400,282.400 382.222,282.400 382.000 C 282.400 381.780,282.940 381.600,283.600 381.600 C 284.260 381.600,284.800 381.463,284.800 381.295 C 284.800 381.127,285.190 380.812,285.667 380.595 C 286.144 380.378,286.729 379.840,286.967 379.400 C 287.205 378.960,287.548 378.491,287.729 378.359 C 288.378 377.882,287.449 366.800,286.760 366.800 C 286.562 366.800,286.400 366.440,286.400 366.000 C 286.400 365.110,294.066 364.736,294.600 365.600 C 294.922 366.120,296.400 366.120,296.400 365.600 C 296.400 365.355,298.325 365.200,301.376 365.200 C 304.263 365.200,306.457 365.032,306.600 364.800 C 306.736 364.580,307.827 364.400,309.024 364.400 C 310.221 364.400,311.200 364.220,311.200 364.000 C 311.200 363.780,312.010 363.600,313.000 363.600 C 313.990 363.600,314.800 363.420,314.800 363.200 C 314.800 362.980,315.419 362.800,316.176 362.800 C 316.933 362.800,317.664 362.620,317.800 362.400 C 317.936 362.180,318.667 362.000,319.424 362.000 C 320.181 362.000,320.800 361.820,320.800 361.600 C 320.800 361.380,321.239 361.200,321.776 361.200 C 322.313 361.200,322.864 361.020,323.000 360.800 C 323.136 360.580,323.687 360.400,324.224 360.400 C 324.761 360.400,325.200 360.220,325.200 360.000 C 325.200 359.780,325.560 359.600,326.000 359.600 C 326.440 359.600,326.800 359.443,326.800 359.252 C 326.800 359.060,327.700 358.784,328.800 358.638 C 329.900 358.492,330.800 358.199,330.800 357.986 C 330.800 357.774,331.089 357.600,331.442 357.600 C 332.975 357.600,337.200 354.979,337.200 354.029 C 337.200 353.793,337.380 353.600,337.600 353.600 C 337.837 353.600,338.000 352.133,338.000 350.000 C 338.000 348.020,337.864 346.400,337.698 346.400 C 337.531 346.400,337.136 345.815,336.820 345.100 C 336.503 344.385,335.920 343.451,335.522 343.025 C 334.427 341.849,334.622 341.445,336.794 340.379 C 337.890 339.840,338.790 339.265,338.794 339.100 C 338.797 338.935,339.042 338.800,339.338 338.800 C 339.634 338.800,340.202 338.440,340.600 338.000 C 340.998 337.560,341.526 337.200,341.774 337.200 C 342.021 337.200,342.483 336.840,342.800 336.400 C 343.117 335.960,343.594 335.600,343.860 335.600 C 344.637 335.600,353.239 326.823,355.100 324.132 C 357.481 320.689,357.220 312.800,354.726 312.800 C 354.547 312.800,354.400 312.440,354.400 312.000 C 354.400 311.560,354.220 311.200,354.000 311.200 C 353.780 311.200,353.600 311.012,353.600 310.783 C 353.600 310.554,353.240 309.980,352.800 309.508 C 352.360 309.036,352.000 308.413,352.000 308.125 C 352.000 307.836,351.820 307.600,351.600 307.600 C 351.380 307.600,351.200 307.364,351.200 307.075 C 351.200 306.787,350.840 306.164,350.400 305.692 C 349.960 305.220,349.600 304.596,349.600 304.305 C 349.600 304.014,349.240 303.517,348.800 303.200 C 348.360 302.883,348.000 302.303,348.000 301.912 C 348.000 301.520,347.820 301.200,347.600 301.200 C 347.380 301.200,347.200 300.880,347.200 300.488 C 347.200 300.097,346.840 299.517,346.400 299.200 C 345.960 298.883,345.600 298.386,345.600 298.095 C 345.600 297.804,345.240 297.180,344.800 296.708 C 344.360 296.236,344.000 295.613,344.000 295.325 C 344.000 295.036,343.820 294.800,343.600 294.800 C 343.380 294.800,343.200 294.564,343.200 294.275 C 343.200 293.987,342.883 293.402,342.495 292.975 C 342.107 292.549,341.450 291.435,341.034 290.500 C 340.618 289.565,340.126 288.800,339.939 288.800 C 339.753 288.800,339.600 288.564,339.600 288.275 C 339.600 287.987,339.240 287.364,338.800 286.892 C 338.360 286.420,338.000 285.756,338.000 285.417 C 338.000 285.078,337.820 284.800,337.600 284.800 C 337.380 284.800,337.200 284.564,337.200 284.275 C 337.200 283.987,336.840 283.364,336.400 282.892 C 335.960 282.420,335.600 281.796,335.600 281.505 C 335.600 281.214,335.240 280.717,334.800 280.400 C 334.360 280.083,334.000 279.503,334.000 279.112 C 334.000 278.720,333.820 278.400,333.600 278.400 C 333.380 278.400,333.200 278.130,333.200 277.800 C 333.200 277.470,333.020 277.200,332.800 277.200 C 332.580 277.200,332.400 276.930,332.400 276.600 C 332.400 276.270,332.220 276.000,332.000 276.000 C 331.780 276.000,331.600 275.730,331.600 275.400 C 331.600 275.070,331.420 274.800,331.200 274.800 C 330.980 274.800,330.800 274.480,330.800 274.088 C 330.800 273.697,330.440 273.117,330.000 272.800 C 329.560 272.483,329.200 271.943,329.200 271.600 C 329.200 271.257,328.840 270.717,328.400 270.400 C 327.960 270.083,327.600 269.503,327.600 269.112 C 327.600 268.720,327.420 268.400,327.200 268.400 C 326.980 268.400,326.800 268.080,326.800 267.688 C 326.800 267.297,326.440 266.717,326.000 266.400 C 325.560 266.083,325.200 265.525,325.200 265.161 C 325.200 264.796,324.930 264.274,324.600 264.000 C 324.270 263.726,324.000 263.332,324.000 263.123 C 324.000 262.915,323.460 261.959,322.800 261.000 C 322.140 260.041,321.600 259.063,321.600 258.828 C 321.600 258.593,321.442 258.400,321.249 258.400 C 321.055 258.400,320.673 257.860,320.400 257.200 C 320.127 256.540,319.745 256.000,319.551 256.000 C 319.358 256.000,319.200 255.680,319.200 255.288 C 319.200 254.897,318.840 254.317,318.400 254.000 C 317.960 253.683,317.600 253.103,317.600 252.712 C 317.600 252.320,317.420 252.000,317.200 252.000 C 316.980 252.000,316.800 251.764,316.800 251.475 C 316.800 251.187,316.440 250.564,316.000 250.092 C 315.560 249.620,315.200 249.038,315.200 248.800 C 315.200 248.562,314.840 247.980,314.400 247.508 C 313.960 247.036,313.600 246.413,313.600 246.125 C 313.600 245.836,313.420 245.600,313.200 245.600 C 312.980 245.600,312.800 245.364,312.800 245.075 C 312.800 244.787,312.440 244.164,312.000 243.692 C 311.560 243.220,311.200 242.646,311.200 242.417 C 311.200 242.188,311.020 242.000,310.800 242.000 C 310.580 242.000,310.400 241.680,310.400 241.288 C 310.400 240.897,310.040 240.317,309.600 240.000 C 309.160 239.683,308.800 239.116,308.800 238.740 C 308.800 238.365,308.572 237.819,308.294 237.529 C 308.016 237.238,307.341 236.145,306.795 235.100 C 306.248 234.055,305.666 233.200,305.501 233.200 C 305.335 233.200,305.200 232.964,305.200 232.675 C 305.200 232.387,304.840 231.764,304.400 231.292 C 303.960 230.820,303.600 230.156,303.600 229.817 C 303.600 229.478,303.420 229.200,303.200 229.200 C 302.980 229.200,302.800 228.964,302.800 228.675 C 302.800 228.387,302.440 227.764,302.000 227.292 C 301.560 226.820,301.200 226.246,301.200 226.017 C 301.200 225.788,301.020 225.600,300.800 225.600 C 300.580 225.600,300.400 225.364,300.400 225.075 C 300.400 224.787,300.040 224.164,299.600 223.692 C 299.160 223.220,298.800 222.596,298.800 222.305 C 298.800 222.014,298.440 221.517,298.000 221.200 C 297.560 220.883,297.200 220.303,297.200 219.912 C 297.200 219.520,297.020 219.200,296.800 219.200 C 296.580 219.200,296.400 218.880,296.400 218.488 C 296.400 218.097,296.040 217.517,295.600 217.200 C 295.160 216.883,294.800 216.386,294.800 216.095 C 294.800 215.804,294.440 215.180,294.000 214.708 C 293.560 214.236,293.200 213.613,293.200 213.325 C 293.200 213.036,293.065 212.798,292.900 212.795 C 292.735 212.793,292.259 212.079,291.842 211.209 C 291.425 210.339,290.750 209.268,290.342 208.830 C 289.934 208.392,289.600 207.756,289.600 207.417 C 289.600 207.078,289.450 206.800,289.268 206.800 C 289.085 206.800,288.680 206.305,288.368 205.700 C 288.055 205.095,287.485 204.251,287.100 203.825 C 286.715 203.398,286.400 202.813,286.400 202.525 C 286.400 202.236,286.232 202.000,286.027 202.000 C 285.822 202.000,285.547 201.662,285.416 201.249 C 285.284 200.836,284.733 199.981,284.189 199.349 C 283.646 198.717,283.201 198.015,283.200 197.788 C 283.200 197.562,282.840 197.117,282.400 196.800 C 281.960 196.483,281.600 195.943,281.600 195.600 C 281.600 195.257,281.240 194.717,280.800 194.400 C 280.360 194.083,280.000 193.633,280.000 193.400 C 280.000 193.167,279.640 192.717,279.200 192.400 C 278.760 192.083,278.400 191.591,278.400 191.308 C 278.400 191.025,277.860 190.228,277.200 189.537 C 276.540 188.846,276.000 188.038,276.000 187.741 C 276.000 187.443,275.842 187.200,275.649 187.200 C 275.455 187.200,275.088 186.695,274.833 186.079 C 274.577 185.462,273.925 184.480,273.384 183.896 C 272.843 183.313,272.400 182.674,272.400 182.477 C 272.400 182.280,271.860 181.554,271.200 180.863 C 270.540 180.172,270.000 179.452,270.000 179.263 C 270.000 179.074,269.460 178.354,268.800 177.663 C 268.140 176.972,267.600 176.298,267.600 176.164 C 267.600 176.030,267.060 175.417,266.400 174.800 C 265.740 174.183,265.200 173.467,265.200 173.208 C 265.200 172.949,264.480 172.046,263.600 171.200 C 262.720 170.354,262.000 169.454,262.000 169.200 C 262.000 168.946,261.300 168.064,260.443 167.242 C 259.587 166.419,258.822 165.473,258.743 165.138 C 258.580 164.443,256.362 161.743,253.300 158.510 C 252.145 157.290,251.200 156.138,251.200 155.949 C 251.200 155.760,250.120 154.508,248.800 153.168 C 247.480 151.827,246.400 150.554,246.400 150.339 C 246.400 150.124,245.500 149.071,244.400 148.000 C 243.300 146.929,242.400 145.952,242.400 145.831 C 242.400 145.492,241.166 143.997,239.484 142.300 L 237.968 140.770 238.171 132.885 C 238.460 121.652,238.793 116.258,239.225 115.820 C 239.431 115.611,239.600 114.666,239.600 113.720 C 239.600 112.774,239.760 112.000,239.956 112.000 C 240.152 112.000,240.412 111.415,240.534 110.700 C 241.005 107.933,241.772 105.200,242.079 105.200 C 242.256 105.200,242.400 104.750,242.400 104.200 C 242.400 103.650,242.580 103.200,242.800 103.200 C 243.020 103.200,243.200 102.851,243.200 102.424 C 243.200 101.997,243.380 101.536,243.600 101.400 C 243.820 101.264,244.000 100.803,244.000 100.376 C 244.000 99.949,244.180 99.600,244.400 99.600 C 244.620 99.600,244.800 99.330,244.800 99.000 C 244.800 98.670,244.980 98.400,245.200 98.400 C 245.420 98.400,245.600 98.130,245.600 97.800 C 245.600 97.470,245.780 97.200,246.000 97.200 C 246.220 97.200,246.400 96.840,246.400 96.400 C 246.400 95.960,246.550 95.600,246.732 95.600 C 246.915 95.600,247.319 95.105,247.630 94.500 C 247.940 93.895,248.511 93.109,248.897 92.753 C 249.284 92.397,249.600 91.999,249.600 91.868 C 249.600 91.736,250.725 90.428,252.100 88.961 C 257.202 83.515,260.033 80.800,260.608 80.800 C 260.934 80.800,261.200 80.620,261.200 80.400 C 261.200 80.180,261.560 80.000,262.000 80.000 C 262.440 80.000,262.800 79.820,262.800 79.600 C 262.800 79.380,263.160 79.200,263.600 79.200 C 264.040 79.200,264.400 79.020,264.400 78.800 C 264.400 78.580,264.760 78.400,265.200 78.400 C 265.640 78.400,266.000 78.220,266.000 78.000 C 266.000 77.780,266.360 77.600,266.800 77.600 C 267.240 77.600,267.600 77.420,267.600 77.200 C 267.600 76.980,267.960 76.800,268.400 76.800 C 268.840 76.800,269.200 76.620,269.200 76.400 C 269.200 76.180,269.560 76.000,270.000 76.000 C 270.440 76.000,270.800 75.820,270.800 75.600 C 270.800 75.380,271.069 75.200,271.397 75.200 C 272.231 75.200,275.200 73.877,275.200 73.506 C 275.200 73.338,275.560 73.200,276.000 73.200 C 276.440 73.200,276.800 73.020,276.800 72.800 C 276.800 72.580,277.160 72.400,277.600 72.400 C 278.040 72.400,278.400 72.220,278.400 72.000 C 278.400 71.780,278.760 71.600,279.200 71.600 C 279.640 71.600,280.000 71.420,280.000 71.200 C 280.000 70.980,280.360 70.800,280.800 70.800 C 281.240 70.800,281.600 70.620,281.600 70.400 C 281.600 70.180,281.960 70.000,282.400 70.000 C 282.840 70.000,283.200 69.820,283.200 69.600 C 283.200 69.380,283.560 69.200,284.000 69.200 C 284.440 69.200,284.800 69.063,284.800 68.895 C 284.800 68.727,285.205 68.412,285.700 68.195 C 286.195 67.978,286.778 67.395,286.995 66.900 C 287.212 66.405,287.527 66.000,287.695 66.000 C 287.863 66.000,288.000 64.470,288.000 62.600 C 288.000 60.600,287.835 59.200,287.600 59.200 C 287.380 59.200,287.200 58.916,287.200 58.569 C 287.200 58.221,286.480 57.246,285.600 56.400 C 284.720 55.554,284.000 54.654,284.000 54.400 C 284.000 54.146,283.280 53.246,282.400 52.400 C 281.520 51.554,280.800 50.654,280.800 50.400 C 280.800 50.146,280.080 49.246,279.200 48.400 C 278.320 47.554,277.600 46.669,277.600 46.432 C 277.600 46.195,276.880 45.259,276.000 44.352 C 275.120 43.445,274.400 42.551,274.400 42.365 C 274.400 42.179,273.770 41.397,273.000 40.627 C 272.230 39.857,271.600 39.062,271.600 38.862 C 271.600 38.661,270.880 37.755,270.000 36.848 C 269.120 35.941,268.400 35.005,268.400 34.768 C 268.400 34.531,267.680 33.646,266.800 32.800 C 265.920 31.954,265.200 31.090,265.200 30.880 C 265.200 30.669,264.480 29.755,263.600 28.848 C 262.720 27.941,262.000 27.085,262.000 26.946 C 262.000 26.481,260.262 25.181,259.326 24.946 C 258.817 24.818,258.400 24.553,258.400 24.357 C 258.400 24.160,258.040 24.000,257.600 24.000 C 257.160 24.000,256.800 23.820,256.800 23.600 C 256.800 23.380,256.440 23.200,256.000 23.200 C 255.560 23.200,255.200 23.020,255.200 22.800 C 255.200 22.580,254.840 22.400,254.400 22.400 C 253.960 22.400,253.600 22.220,253.600 22.000 C 253.600 21.780,253.240 21.600,252.800 21.600 C 252.360 21.600,252.000 21.420,252.000 21.200 C 252.000 20.980,251.640 20.800,251.200 20.800 C 250.760 20.800,250.400 20.620,250.400 20.400 C 250.400 20.180,250.040 20.000,249.600 20.000 C 249.160 20.000,248.800 19.820,248.800 19.600 C 248.800 19.380,248.440 19.200,248.000 19.200 C 247.560 19.200,247.200 19.020,247.200 18.800 C 247.200 18.580,246.840 18.400,246.400 18.400 C 245.960 18.400,245.600 18.220,245.600 18.000 C 245.600 17.780,245.240 17.600,244.800 17.600 C 244.360 17.600,244.000 17.420,244.000 17.200 C 244.000 16.980,243.640 16.800,243.200 16.800 C 242.760 16.800,242.400 16.654,242.400 16.475 C 242.400 16.296,241.770 15.902,241.000 15.600 C 240.230 15.298,239.600 14.904,239.600 14.725 C 239.600 14.546,239.240 14.400,238.800 14.400 C 238.360 14.400,238.000 14.220,238.000 14.000 C 238.000 13.780,237.640 13.600,237.200 13.600 C 236.760 13.600,236.400 13.420,236.400 13.200 C 236.400 12.980,236.040 12.800,235.600 12.800 C 235.160 12.800,234.800 12.620,234.800 12.400 C 234.800 10.975,225.552 12.558,224.867 14.100 C 224.793 14.265,224.388 14.400,223.967 14.400 C 223.545 14.400,223.200 14.580,223.200 14.800 C 223.200 15.020,222.840 15.200,222.400 15.200 C 221.960 15.200,221.600 15.380,221.600 15.600 C 221.600 15.820,221.240 16.000,220.800 16.000 C 220.360 16.000,220.000 16.180,220.000 16.400 C 220.000 16.620,219.460 16.800,218.800 16.800 C 218.140 16.800,217.600 16.980,217.600 17.200 C 217.600 17.420,217.060 17.600,216.400 17.600 C 215.740 17.600,215.200 17.780,215.200 18.000 C 215.200 18.220,214.570 18.400,213.800 18.400 C 213.030 18.400,212.400 18.580,212.400 18.800 C 212.400 19.020,211.680 19.200,210.800 19.200 C 209.920 19.200,209.200 19.380,209.200 19.600 C 209.200 19.837,207.733 20.000,205.600 20.000 C 203.467 20.000,202.000 20.163,202.000 20.400 C 202.000 20.620,201.100 20.800,200.000 20.800 C 198.900 20.800,198.000 20.620,198.000 20.400 C 198.000 20.165,196.608 20.000,194.624 20.000 C 192.767 20.000,191.136 19.820,191.000 19.600 C 190.864 19.380,190.054 19.200,189.200 19.200 C 188.346 19.200,187.536 19.020,187.400 18.800 C 187.264 18.580,186.623 18.400,185.976 18.400 C 185.329 18.400,184.800 18.220,184.800 18.000 C 184.800 17.780,184.260 17.600,183.600 17.600 C 182.940 17.600,182.400 17.420,182.400 17.200 C 182.400 16.980,181.860 16.800,181.200 16.800 C 180.540 16.800,180.000 16.620,180.000 16.400 C 180.000 16.180,179.640 16.000,179.200 16.000 C 178.760 16.000,178.400 15.820,178.400 15.600 C 178.400 15.380,178.040 15.200,177.600 15.200 C 177.160 15.200,176.800 15.020,176.800 14.800 C 176.800 14.580,176.455 14.400,176.033 14.400 C 175.612 14.400,175.207 14.265,175.133 14.100 C 174.448 12.558,165.200 10.975,165.200 12.400 M162.000 31.376 C 162.000 32.133,162.180 32.864,162.400 33.000 C 162.620 33.136,162.800 33.856,162.800 34.600 C 162.800 35.344,162.980 36.064,163.200 36.200 C 163.420 36.336,163.600 36.876,163.600 37.400 C 163.600 37.924,163.780 38.464,164.000 38.600 C 164.220 38.736,164.400 39.197,164.400 39.624 C 164.400 40.051,164.580 40.400,164.800 40.400 C 165.020 40.400,165.200 40.660,165.200 40.977 C 165.200 41.632,166.810 44.530,167.287 44.733 C 167.459 44.807,167.600 45.172,167.600 45.545 C 167.600 45.918,167.960 46.483,168.400 46.800 C 168.840 47.117,169.200 47.609,169.200 47.894 C 169.200 49.360,180.171 58.800,181.874 58.800 C 182.163 58.800,182.400 58.980,182.400 59.200 C 182.400 59.420,182.940 59.600,183.600 59.600 C 184.260 59.600,184.800 59.780,184.800 60.000 C 184.800 60.220,185.160 60.400,185.600 60.400 C 186.040 60.400,186.400 60.580,186.400 60.800 C 186.400 61.020,186.940 61.200,187.600 61.200 C 188.260 61.200,188.800 61.380,188.800 61.600 C 188.800 61.820,189.520 62.000,190.400 62.000 C 191.280 62.000,192.000 62.180,192.000 62.400 C 192.000 62.653,194.933 62.800,200.000 62.800 C 205.067 62.800,208.000 62.653,208.000 62.400 C 208.000 62.180,208.720 62.000,209.600 62.000 C 210.480 62.000,211.200 61.820,211.200 61.600 C 211.200 61.380,211.740 61.200,212.400 61.200 C 213.060 61.200,213.600 61.020,213.600 60.800 C 213.600 60.580,213.960 60.400,214.400 60.400 C 214.840 60.400,215.200 60.220,215.200 60.000 C 215.200 59.780,215.740 59.600,216.400 59.600 C 217.060 59.600,217.600 59.432,217.600 59.227 C 217.600 59.022,218.005 58.730,218.500 58.579 C 221.098 57.786,230.800 49.346,230.800 47.879 C 230.800 47.602,231.160 47.117,231.600 46.800 C 232.040 46.483,232.400 45.918,232.400 45.545 C 232.400 45.172,232.541 44.807,232.713 44.733 C 233.190 44.530,234.800 41.632,234.800 40.977 C 234.800 40.660,234.980 40.400,235.200 40.400 C 235.420 40.400,235.600 40.051,235.600 39.624 C 235.600 39.197,235.780 38.736,236.000 38.600 C 236.220 38.464,236.400 37.924,236.400 37.400 C 236.400 36.876,236.580 36.336,236.800 36.200 C 237.020 36.064,237.200 35.344,237.200 34.600 C 237.200 33.856,237.380 33.136,237.600 33.000 C 237.820 32.864,238.000 32.133,238.000 31.376 C 238.000 30.619,238.180 30.000,238.400 30.000 C 238.620 30.000,238.800 30.180,238.800 30.400 C 238.800 30.620,239.160 30.800,239.600 30.800 C 240.040 30.800,240.400 30.980,240.400 31.200 C 240.400 31.420,240.760 31.600,241.200 31.600 C 241.640 31.600,242.000 31.780,242.000 32.000 C 242.000 32.220,242.270 32.400,242.600 32.400 C 242.930 32.400,243.200 32.580,243.200 32.800 C 243.200 33.020,243.560 33.200,244.000 33.200 C 244.440 33.200,244.800 33.380,244.800 33.600 C 244.800 33.820,245.160 34.000,245.600 34.000 C 246.040 34.000,246.400 34.180,246.400 34.400 C 246.400 34.620,246.760 34.800,247.200 34.800 C 247.640 34.800,248.000 34.980,248.000 35.200 C 248.000 35.420,248.360 35.600,248.800 35.600 C 249.588 35.600,249.600 35.867,249.600 53.429 C 249.600 71.848,249.554 72.400,248.029 72.400 C 247.793 72.400,247.600 72.580,247.600 72.800 C 247.600 73.020,247.402 73.200,247.159 73.200 C 246.661 73.200,241.200 78.818,241.200 79.331 C 241.200 79.513,240.480 80.354,239.600 81.200 C 238.720 82.046,238.000 82.955,238.000 83.222 C 238.000 83.488,237.684 83.997,237.297 84.353 C 236.911 84.709,236.340 85.495,236.030 86.100 C 235.719 86.705,235.315 87.200,235.132 87.200 C 234.950 87.200,234.800 87.520,234.800 87.912 C 234.800 88.303,234.440 88.883,234.000 89.200 C 233.560 89.517,233.200 90.082,233.200 90.455 C 233.200 90.828,233.063 91.193,232.896 91.267 C 232.414 91.478,229.193 98.125,229.197 98.900 C 229.199 99.285,229.020 99.600,228.800 99.600 C 228.580 99.600,228.400 100.039,228.400 100.576 C 228.400 101.113,228.220 101.664,228.000 101.800 C 227.780 101.936,227.600 102.577,227.600 103.224 C 227.600 103.871,227.420 104.400,227.200 104.400 C 226.980 104.400,226.800 104.929,226.800 105.576 C 226.800 106.223,226.639 106.852,226.442 106.974 C 226.052 107.215,225.890 108.126,225.137 114.300 L 224.637 118.400 222.719 118.400 C 221.663 118.400,220.800 118.580,220.800 118.800 C 220.800 119.020,220.080 119.200,219.200 119.200 C 218.320 119.200,217.600 119.380,217.600 119.600 C 217.600 119.820,217.161 120.000,216.624 120.000 C 216.087 120.000,215.536 120.180,215.400 120.400 C 215.264 120.620,214.803 120.800,214.376 120.800 C 213.949 120.800,213.600 120.980,213.600 121.200 C 213.600 121.420,213.240 121.600,212.800 121.600 C 212.360 121.600,212.000 121.780,212.000 122.000 C 212.000 122.220,211.640 122.400,211.200 122.400 C 210.760 122.400,210.400 122.580,210.400 122.800 C 210.400 123.020,210.170 123.200,209.888 123.200 C 209.607 123.200,209.117 123.560,208.800 124.000 C 208.483 124.440,207.986 124.800,207.695 124.800 C 207.033 124.800,206.641 125.124,202.975 128.706 L 200.000 131.613 197.025 128.706 C 193.359 125.124,192.967 124.800,192.305 124.800 C 192.014 124.800,191.517 124.440,191.200 124.000 C 190.883 123.560,190.393 123.200,190.112 123.200 C 189.830 123.200,189.600 123.020,189.600 122.800 C 189.600 122.580,189.240 122.400,188.800 122.400 C 188.360 122.400,188.000 122.220,188.000 122.000 C 188.000 121.780,187.640 121.600,187.200 121.600 C 186.760 121.600,186.400 121.420,186.400 121.200 C 186.400 120.980,186.051 120.800,185.624 120.800 C 185.197 120.800,184.736 120.620,184.600 120.400 C 184.464 120.180,183.913 120.000,183.376 120.000 C 182.839 120.000,182.400 119.820,182.400 119.600 C 182.400 119.380,181.680 119.200,180.800 119.200 C 179.920 119.200,179.200 119.020,179.200 118.800 C 179.200 118.580,178.331 118.400,177.269 118.400 L 175.338 118.400 174.908 114.500 C 174.671 112.355,174.267 109.790,174.010 108.800 C 173.753 107.810,173.446 106.415,173.327 105.700 C 173.209 104.985,172.952 104.400,172.756 104.400 C 172.560 104.400,172.400 103.871,172.400 103.224 C 172.400 102.577,172.220 101.936,172.000 101.800 C 171.780 101.664,171.600 101.113,171.600 100.576 C 171.600 100.039,171.420 99.600,171.200 99.600 C 170.980 99.600,170.801 99.285,170.803 98.900 C 170.807 98.125,167.586 91.478,167.104 91.267 C 166.937 91.193,166.800 90.828,166.800 90.455 C 166.800 90.082,166.440 89.517,166.000 89.200 C 165.560 88.883,165.200 88.303,165.200 87.912 C 165.200 87.520,165.050 87.200,164.868 87.200 C 164.685 87.200,164.281 86.705,163.970 86.100 C 163.660 85.495,163.089 84.709,162.703 84.353 C 162.316 83.997,162.000 83.488,162.000 83.222 C 162.000 82.955,161.280 82.046,160.400 81.200 C 159.520 80.354,158.800 79.471,158.800 79.237 C 158.800 78.692,152.498 72.400,151.953 72.400 C 150.448 72.400,150.400 71.809,150.400 53.429 C 150.400 35.867,150.412 35.600,151.200 35.600 C 151.640 35.600,152.000 35.420,152.000 35.200 C 152.000 34.980,152.360 34.800,152.800 34.800 C 153.240 34.800,153.600 34.620,153.600 34.400 C 153.600 34.180,153.960 34.000,154.400 34.000 C 154.840 34.000,155.200 33.820,155.200 33.600 C 155.200 33.380,155.560 33.200,156.000 33.200 C 156.440 33.200,156.800 33.054,156.800 32.875 C 156.800 32.696,157.430 32.302,158.200 32.000 C 158.970 31.698,159.600 31.304,159.600 31.125 C 159.600 30.946,159.960 30.800,160.400 30.800 C 160.840 30.800,161.200 30.620,161.200 30.400 C 161.200 30.180,161.380 30.000,161.600 30.000 C 161.820 30.000,162.000 30.619,162.000 31.376 M176.800 30.400 C 176.800 30.620,177.340 30.800,178.000 30.800 C 178.660 30.800,179.200 30.980,179.200 31.200 C 179.200 31.420,179.740 31.600,180.400 31.600 C 181.060 31.600,181.600 31.780,181.600 32.000 C 181.600 32.220,182.320 32.400,183.200 32.400 C 184.080 32.400,184.800 32.580,184.800 32.800 C 184.800 33.020,185.689 33.200,186.776 33.200 C 187.863 33.200,188.864 33.380,189.000 33.600 C 189.140 33.827,191.130 34.000,193.600 34.000 C 196.070 34.000,198.060 34.173,198.200 34.400 C 198.513 34.906,201.313 34.925,201.820 34.425 C 202.029 34.219,204.090 33.958,206.400 33.846 C 212.182 33.564,215.200 33.193,215.200 32.763 C 215.200 32.563,215.920 32.400,216.800 32.400 C 217.680 32.400,218.400 32.220,218.400 32.000 C 218.400 31.780,218.940 31.600,219.600 31.600 C 220.260 31.600,220.800 31.420,220.800 31.200 C 220.800 30.980,221.325 30.800,221.967 30.800 C 222.608 30.800,223.214 30.575,223.312 30.300 C 223.416 30.009,223.639 29.948,223.845 30.155 C 224.052 30.361,223.991 30.584,223.700 30.688 C 223.425 30.786,223.200 31.392,223.200 32.033 C 223.200 32.675,223.020 33.200,222.800 33.200 C 222.580 33.200,222.400 33.560,222.400 34.000 C 222.400 34.440,222.220 34.800,222.000 34.800 C 221.780 34.800,221.600 35.160,221.600 35.600 C 221.600 36.040,221.420 36.400,221.200 36.400 C 220.980 36.400,220.800 36.720,220.800 37.112 C 220.800 37.503,220.440 38.083,220.000 38.400 C 219.560 38.717,219.200 39.180,219.200 39.429 C 219.200 40.065,215.145 44.000,214.490 44.000 C 214.303 44.000,213.802 44.325,213.375 44.722 C 212.949 45.120,212.015 45.703,211.300 46.020 C 210.585 46.336,210.000 46.731,210.000 46.898 C 210.000 47.064,209.640 47.200,209.200 47.200 C 208.760 47.200,208.400 47.380,208.400 47.600 C 208.400 47.820,207.871 48.000,207.224 48.000 C 206.577 48.000,205.936 48.180,205.800 48.400 C 205.470 48.933,194.530 48.933,194.200 48.400 C 194.064 48.180,193.423 48.000,192.776 48.000 C 192.129 48.000,191.600 47.820,191.600 47.600 C 191.600 47.380,191.240 47.200,190.800 47.200 C 190.360 47.200,190.000 47.064,190.000 46.898 C 190.000 46.731,189.415 46.336,188.700 46.020 C 187.985 45.703,187.051 45.120,186.625 44.722 C 186.198 44.325,185.697 44.000,185.510 44.000 C 184.855 44.000,180.800 40.065,180.800 39.429 C 180.800 39.180,180.440 38.717,180.000 38.400 C 179.560 38.083,179.200 37.503,179.200 37.112 C 179.200 36.720,179.020 36.400,178.800 36.400 C 178.580 36.400,178.400 36.040,178.400 35.600 C 178.400 35.160,178.220 34.800,178.000 34.800 C 177.780 34.800,177.600 34.440,177.600 34.000 C 177.600 33.560,177.420 33.200,177.200 33.200 C 176.980 33.200,176.800 32.660,176.800 32.000 C 176.800 31.340,176.620 30.800,176.400 30.800 C 176.180 30.800,176.000 30.620,176.000 30.400 C 176.000 30.180,176.180 30.000,176.400 30.000 C 176.620 30.000,176.800 30.180,176.800 30.400 M136.956 63.556 C 136.810 63.690,136.610 63.575,136.512 63.300 C 136.414 63.025,135.988 62.800,135.567 62.800 C 135.145 62.800,134.800 62.620,134.800 62.400 C 134.800 62.180,134.440 62.000,134.000 62.000 C 133.560 62.000,133.200 61.820,133.200 61.600 C 133.200 61.380,132.840 61.200,132.400 61.200 C 131.960 61.200,131.600 61.020,131.600 60.800 C 131.600 60.580,131.240 60.400,130.800 60.400 C 130.360 60.400,130.000 60.220,130.000 60.000 C 130.000 59.780,130.180 59.600,130.400 59.600 C 130.620 59.600,130.800 59.412,130.800 59.182 C 130.800 58.952,131.205 58.344,131.700 57.832 C 132.896 56.594,134.000 55.236,134.000 55.002 C 134.000 54.898,134.675 54.109,135.500 53.248 L 137.000 51.683 137.111 57.497 C 137.172 60.695,137.102 63.421,136.956 63.556 M266.000 54.996 C 266.000 55.235,267.092 56.582,268.300 57.832 C 268.795 58.344,269.200 58.952,269.200 59.182 C 269.200 59.412,269.380 59.600,269.600 59.600 C 269.820 59.600,270.000 59.780,270.000 60.000 C 270.000 60.220,269.640 60.400,269.200 60.400 C 268.760 60.400,268.400 60.580,268.400 60.800 C 268.400 61.020,268.040 61.200,267.600 61.200 C 267.160 61.200,266.800 61.380,266.800 61.600 C 266.800 61.820,266.440 62.000,266.000 62.000 C 265.560 62.000,265.200 62.180,265.200 62.400 C 265.200 62.620,264.840 62.800,264.400 62.800 C 263.960 62.800,263.600 62.980,263.600 63.200 C 263.600 63.420,263.420 63.600,263.200 63.600 C 262.951 63.600,262.800 61.317,262.800 57.552 L 262.800 51.504 264.400 53.152 C 265.280 54.059,266.000 54.889,266.000 54.996 M176.600 132.800 C 176.736 133.020,177.276 133.200,177.800 133.200 C 178.324 133.200,178.864 133.380,179.000 133.600 C 179.136 133.820,179.597 134.000,180.024 134.000 C 180.451 134.000,180.800 134.180,180.800 134.400 C 180.800 134.620,181.120 134.800,181.512 134.800 C 181.903 134.800,182.483 135.160,182.800 135.600 C 183.117 136.040,183.611 136.400,183.897 136.400 C 184.455 136.400,188.800 140.568,188.800 141.103 C 188.800 141.279,189.160 141.683,189.600 142.000 C 190.040 142.317,190.400 142.897,190.400 143.288 C 190.400 143.680,190.580 144.000,190.800 144.000 C 191.020 144.000,191.200 144.193,191.200 144.429 C 191.200 144.716,190.105 144.794,187.900 144.664 C 183.855 144.424,181.600 144.028,181.600 143.556 C 181.600 143.360,181.347 143.200,181.037 143.200 C 180.376 143.200,176.426 141.227,175.700 140.534 C 174.935 139.804,175.005 132.400,175.776 132.400 C 176.093 132.400,176.464 132.580,176.600 132.800 M224.800 136.229 C 224.800 140.172,224.434 141.200,223.029 141.200 C 222.683 141.200,222.400 141.345,222.400 141.523 C 222.400 141.877,219.612 143.200,218.866 143.200 C 218.610 143.200,218.400 143.360,218.400 143.556 C 218.400 144.028,216.145 144.424,212.100 144.664 C 209.895 144.794,208.800 144.716,208.800 144.429 C 208.800 144.193,208.980 144.000,209.200 144.000 C 209.420 144.000,209.600 143.680,209.600 143.288 C 209.600 142.897,209.960 142.317,210.400 142.000 C 210.840 141.683,211.200 141.279,211.200 141.103 C 211.200 140.568,215.545 136.400,216.103 136.400 C 216.389 136.400,216.883 136.040,217.200 135.600 C 217.517 135.160,218.097 134.800,218.488 134.800 C 218.880 134.800,219.200 134.620,219.200 134.400 C 219.200 134.180,219.549 134.000,219.976 134.000 C 220.403 134.000,220.864 133.820,221.000 133.600 C 221.136 133.380,221.676 133.200,222.200 133.200 C 222.724 133.200,223.264 133.020,223.400 132.800 C 224.311 131.326,224.800 132.524,224.800 136.229 M171.600 154.847 C 171.600 155.041,171.883 155.200,172.229 155.200 C 173.105 155.200,174.357 156.481,173.696 156.701 C 173.423 156.792,173.200 157.212,173.200 157.633 C 173.200 158.055,173.020 158.400,172.800 158.400 C 172.580 158.400,172.400 158.850,172.400 159.400 C 172.400 159.950,172.220 160.400,172.000 160.400 C 171.780 160.400,171.600 160.940,171.600 161.600 C 171.600 162.260,171.420 162.800,171.200 162.800 C 170.980 162.800,170.800 163.160,170.800 163.600 C 170.800 164.040,170.620 164.400,170.400 164.400 C 170.180 164.400,170.000 164.940,170.000 165.600 C 170.000 166.260,169.820 166.800,169.600 166.800 C 169.380 166.800,169.200 167.149,169.200 167.576 C 169.200 168.003,169.020 168.464,168.800 168.600 C 168.580 168.736,168.400 169.287,168.400 169.824 C 168.400 170.361,168.220 170.800,168.000 170.800 C 167.780 170.800,167.600 171.340,167.600 172.000 C 167.600 172.660,167.420 173.200,167.200 173.200 C 166.980 173.200,166.800 173.560,166.800 174.000 C 166.800 174.440,166.620 174.800,166.400 174.800 C 166.180 174.800,166.000 175.162,166.000 175.605 C 166.000 176.048,165.820 176.768,165.600 177.205 C 165.380 177.642,165.020 178.358,164.800 178.795 C 164.580 179.232,164.400 179.862,164.400 180.195 C 164.400 180.528,164.220 180.800,164.000 180.800 C 163.780 180.800,163.600 181.340,163.600 182.000 C 163.600 182.660,163.420 183.200,163.200 183.200 C 162.980 183.200,162.800 183.549,162.800 183.976 C 162.800 184.403,162.620 184.864,162.400 185.000 C 162.180 185.136,162.000 185.687,162.000 186.224 C 162.000 186.761,161.859 187.200,161.687 187.200 C 161.515 187.200,161.125 188.055,160.820 189.100 C 160.515 190.145,160.131 191.270,159.966 191.600 C 158.964 193.611,158.400 195.253,158.400 196.160 C 158.400 196.732,158.220 197.200,158.000 197.200 C 157.780 197.200,157.600 197.549,157.600 197.976 C 157.600 198.403,157.420 198.864,157.200 199.000 C 156.980 199.136,156.800 199.687,156.800 200.224 C 156.800 200.761,156.620 201.200,156.400 201.200 C 156.180 201.200,156.000 201.740,156.000 202.400 C 156.000 203.060,155.820 203.600,155.600 203.600 C 155.380 203.600,155.200 203.960,155.200 204.400 C 155.200 204.840,155.020 205.200,154.800 205.200 C 154.580 205.200,154.400 205.740,154.400 206.400 C 154.400 207.060,154.220 207.600,154.000 207.600 C 153.780 207.600,153.600 208.039,153.600 208.576 C 153.600 209.113,153.420 209.664,153.200 209.800 C 152.980 209.936,152.800 210.487,152.800 211.024 C 152.800 211.561,152.620 212.000,152.400 212.000 C 152.180 212.000,152.000 212.362,152.000 212.805 C 152.000 213.248,151.820 213.968,151.600 214.405 C 151.380 214.842,151.020 215.558,150.800 215.995 C 150.580 216.432,150.400 217.152,150.400 217.595 C 150.400 218.038,150.220 218.400,150.000 218.400 C 149.780 218.400,149.600 218.940,149.600 219.600 C 149.600 220.260,149.420 220.800,149.200 220.800 C 148.980 220.800,148.800 221.340,148.800 222.000 C 148.800 222.660,148.620 223.200,148.400 223.200 C 148.180 223.200,148.000 223.740,148.000 224.400 C 148.000 225.060,147.820 225.600,147.600 225.600 C 147.380 225.600,147.200 226.140,147.200 226.800 C 147.200 227.460,147.020 228.000,146.800 228.000 C 146.580 228.000,146.400 228.529,146.400 229.176 C 146.400 229.823,146.220 230.464,146.000 230.600 C 145.780 230.736,145.600 231.377,145.600 232.024 C 145.600 232.671,145.420 233.200,145.200 233.200 C 144.980 233.200,144.800 233.740,144.800 234.400 C 144.800 235.060,144.640 235.600,144.444 235.600 C 144.248 235.600,143.986 236.185,143.863 236.900 C 143.344 239.899,143.074 241.011,142.819 241.200 C 142.571 241.384,141.875 244.338,141.335 247.500 C 141.212 248.215,140.952 248.800,140.756 248.800 C 140.560 248.800,140.400 249.520,140.400 250.400 C 140.400 251.280,140.220 252.000,140.000 252.000 C 139.780 252.000,139.600 252.619,139.600 253.376 C 139.600 254.133,139.420 254.864,139.200 255.000 C 138.980 255.136,138.800 255.766,138.800 256.400 C 138.800 257.034,138.620 257.664,138.400 257.800 C 138.180 257.936,138.000 258.667,138.000 259.424 C 138.000 260.181,137.820 260.800,137.600 260.800 C 137.380 260.800,137.200 261.509,137.200 262.376 C 137.200 263.243,137.020 264.064,136.800 264.200 C 136.580 264.336,136.400 265.157,136.400 266.024 C 136.400 266.891,136.220 267.600,136.000 267.600 C 135.780 267.600,135.600 268.320,135.600 269.200 C 135.600 270.080,135.420 270.800,135.200 270.800 C 134.980 270.800,134.800 271.520,134.800 272.400 C 134.800 273.280,134.620 274.000,134.400 274.000 C 134.180 274.000,134.000 274.810,134.000 275.800 C 134.000 276.790,133.820 277.600,133.600 277.600 C 133.380 277.600,133.200 278.320,133.200 279.200 C 133.200 280.080,133.020 280.800,132.800 280.800 C 132.580 280.800,132.400 281.599,132.400 282.576 C 132.400 283.553,132.220 284.464,132.000 284.600 C 131.780 284.736,131.600 285.557,131.600 286.424 C 131.600 287.291,131.420 288.000,131.200 288.000 C 130.980 288.000,130.800 288.720,130.800 289.600 C 130.800 290.480,130.620 291.200,130.400 291.200 C 130.180 291.200,130.000 291.999,130.000 292.976 C 130.000 293.953,129.820 294.864,129.600 295.000 C 129.380 295.136,129.200 295.856,129.200 296.600 C 129.200 297.344,129.020 298.064,128.800 298.200 C 128.580 298.336,128.400 299.146,128.400 300.000 C 128.400 300.854,128.220 301.664,128.000 301.800 C 127.780 301.936,127.600 302.757,127.600 303.624 C 127.600 304.491,127.438 305.200,127.240 305.200 C 127.042 305.200,126.786 305.965,126.669 306.900 C 126.553 307.835,126.279 309.410,126.059 310.400 C 125.840 311.390,125.448 313.460,125.188 315.000 C 124.928 316.540,124.555 318.113,124.358 318.495 C 124.161 318.877,124.000 319.912,124.000 320.795 C 124.000 321.678,123.820 322.400,123.600 322.400 C 123.380 322.400,123.200 323.120,123.200 324.000 C 123.200 324.880,123.020 325.600,122.800 325.600 C 122.580 325.600,122.400 326.410,122.400 327.400 C 122.400 328.390,122.220 329.200,122.000 329.200 C 121.780 329.200,121.600 329.920,121.600 330.800 C 121.600 331.680,121.420 332.400,121.200 332.400 C 120.980 332.400,120.800 333.109,120.800 333.976 C 120.800 334.843,120.620 335.664,120.400 335.800 C 120.180 335.936,120.000 336.847,120.000 337.824 C 120.000 338.801,119.820 339.600,119.600 339.600 C 119.380 339.600,119.200 340.320,119.200 341.200 C 119.200 342.080,119.020 342.800,118.800 342.800 C 118.580 342.800,118.400 343.610,118.400 344.600 C 118.400 345.590,118.220 346.400,118.000 346.400 C 117.780 346.400,117.600 347.038,117.600 347.818 C 117.600 350.483,116.332 351.200,111.618 351.200 C 109.206 351.200,107.600 351.360,107.600 351.600 C 107.600 351.820,106.711 352.000,105.624 352.000 C 104.537 352.000,103.536 351.820,103.400 351.600 C 103.263 351.379,101.463 351.200,99.376 351.200 C 97.125 351.200,95.600 351.038,95.600 350.800 C 95.600 350.580,94.621 350.400,93.424 350.400 C 92.227 350.400,91.136 350.220,91.000 350.000 C 90.864 349.780,90.144 349.600,89.400 349.600 C 88.656 349.600,87.936 349.420,87.800 349.200 C 87.664 348.980,86.933 348.800,86.176 348.800 C 85.419 348.800,84.800 348.620,84.800 348.400 C 84.800 348.180,84.260 348.000,83.600 348.000 C 82.940 348.000,82.400 347.820,82.400 347.600 C 82.400 347.380,81.995 347.194,81.500 347.187 C 80.378 347.171,78.772 345.994,79.500 345.721 C 79.775 345.618,80.000 345.271,80.000 344.950 C 80.000 344.629,80.360 343.980,80.800 343.508 C 81.240 343.036,81.600 342.413,81.600 342.125 C 81.600 341.836,81.736 341.600,81.902 341.600 C 82.069 341.600,82.464 341.015,82.780 340.300 C 83.097 339.585,83.680 338.651,84.078 338.225 C 84.475 337.798,84.800 337.213,84.800 336.925 C 84.800 336.636,84.980 336.400,85.200 336.400 C 85.420 336.400,85.600 336.040,85.600 335.600 C 85.600 335.160,85.780 334.800,86.000 334.800 C 86.220 334.800,86.400 334.564,86.400 334.275 C 86.400 333.987,86.760 333.364,87.200 332.892 C 87.640 332.420,88.000 331.756,88.000 331.417 C 88.000 331.078,88.180 330.800,88.400 330.800 C 88.620 330.800,88.800 330.455,88.800 330.033 C 88.800 329.612,88.954 329.207,89.143 329.133 C 89.436 329.019,91.486 325.453,92.954 322.503 C 93.199 322.010,93.535 321.605,93.700 321.603 C 93.865 321.601,94.000 321.322,94.000 320.983 C 94.000 320.644,94.360 319.980,94.800 319.508 C 95.240 319.036,95.600 318.413,95.600 318.125 C 95.600 317.836,95.780 317.600,96.000 317.600 C 96.220 317.600,96.400 317.240,96.400 316.800 C 96.400 316.360,96.580 316.000,96.800 316.000 C 97.020 316.000,97.200 315.764,97.200 315.475 C 97.200 315.187,97.560 314.564,98.000 314.092 C 98.440 313.620,98.800 312.956,98.800 312.617 C 98.800 312.278,98.980 312.000,99.200 312.000 C 99.420 312.000,99.600 311.706,99.600 311.347 C 99.600 310.988,99.916 310.403,100.303 310.047 C 100.689 309.691,101.274 308.860,101.602 308.200 C 101.930 307.540,102.289 306.910,102.399 306.800 C 102.795 306.406,104.054 304.187,104.271 303.500 C 104.393 303.115,104.652 302.800,104.847 302.800 C 105.041 302.800,105.200 302.440,105.200 302.000 C 105.200 301.560,105.345 301.200,105.521 301.200 C 105.698 301.200,106.283 300.303,106.821 299.206 C 107.360 298.110,107.921 297.210,108.068 297.206 C 108.216 297.203,108.455 296.660,108.600 296.000 C 108.745 295.340,109.029 294.800,109.232 294.800 C 109.434 294.800,109.600 294.440,109.600 294.000 C 109.600 293.560,109.780 293.200,110.000 293.200 C 110.220 293.200,110.400 292.880,110.400 292.488 C 110.400 292.097,110.760 291.517,111.200 291.200 C 111.640 290.883,112.000 290.393,112.000 290.112 C 112.000 289.830,112.180 289.600,112.400 289.600 C 112.620 289.600,112.800 289.240,112.800 288.800 C 112.800 288.360,112.980 288.000,113.200 288.000 C 113.420 288.000,113.600 287.764,113.600 287.475 C 113.600 287.187,113.960 286.564,114.400 286.092 C 114.840 285.620,115.200 284.956,115.200 284.617 C 115.200 284.278,115.380 284.000,115.600 284.000 C 115.820 284.000,116.000 283.722,116.000 283.383 C 116.000 283.044,116.360 282.380,116.800 281.908 C 117.240 281.436,117.600 280.813,117.600 280.525 C 117.600 280.236,117.780 280.000,118.000 280.000 C 118.220 280.000,118.395 279.325,118.389 278.500 C 118.379 277.024,115.441 274.800,113.501 274.800 C 113.213 274.800,112.717 274.440,112.400 274.000 C 112.083 273.560,111.503 273.200,111.112 273.200 C 110.720 273.200,110.400 273.020,110.400 272.800 C 110.400 272.580,110.040 272.400,109.600 272.400 C 109.160 272.400,108.800 272.220,108.800 272.000 C 108.800 270.935,106.065 271.605,105.536 272.800 C 105.244 273.460,104.869 274.000,104.702 274.000 C 104.536 274.000,104.400 274.360,104.400 274.800 C 104.400 275.240,104.220 275.600,104.000 275.600 C 103.780 275.600,103.600 275.870,103.600 276.200 C 103.600 276.530,103.420 276.800,103.200 276.800 C 102.980 276.800,102.800 277.070,102.800 277.400 C 102.800 277.730,102.620 278.000,102.400 278.000 C 102.180 278.000,102.000 278.270,102.000 278.600 C 102.000 278.930,101.820 279.200,101.600 279.200 C 101.380 279.200,101.200 279.560,101.200 280.000 C 101.200 280.440,101.020 280.800,100.800 280.800 C 100.580 280.800,100.400 281.036,100.400 281.325 C 100.400 281.613,100.040 282.236,99.600 282.708 C 99.160 283.180,98.800 283.844,98.800 284.183 C 98.800 284.522,98.620 284.800,98.400 284.800 C 98.180 284.800,98.000 285.078,98.000 285.417 C 98.000 285.756,97.640 286.420,97.200 286.892 C 96.760 287.364,96.400 287.987,96.400 288.275 C 96.400 288.564,96.220 288.800,96.000 288.800 C 95.780 288.800,95.600 289.145,95.600 289.567 C 95.600 289.988,95.465 290.393,95.300 290.467 C 94.911 290.639,92.819 294.121,91.797 296.295 C 91.359 297.228,90.865 297.993,90.700 297.995 C 90.535 297.998,90.400 298.360,90.400 298.800 C 90.400 299.240,90.220 299.600,90.000 299.600 C 89.780 299.600,89.600 299.870,89.600 300.200 C 89.600 300.530,89.420 300.800,89.200 300.800 C 88.980 300.800,88.800 301.070,88.800 301.400 C 88.800 301.730,88.620 302.000,88.400 302.000 C 88.180 302.000,88.000 302.360,88.000 302.800 C 88.000 303.240,87.820 303.600,87.600 303.600 C 87.380 303.600,87.200 303.920,87.200 304.312 C 87.200 304.703,86.840 305.283,86.400 305.600 C 85.960 305.917,85.600 306.497,85.600 306.888 C 85.600 307.280,85.420 307.600,85.200 307.600 C 84.980 307.600,84.800 307.793,84.800 308.028 C 84.800 308.263,84.260 309.241,83.600 310.200 C 82.940 311.159,82.400 312.137,82.400 312.372 C 82.400 312.607,82.220 312.800,82.000 312.800 C 81.780 312.800,81.600 313.078,81.600 313.417 C 81.600 313.756,81.240 314.420,80.800 314.892 C 80.360 315.364,80.000 315.987,80.000 316.275 C 80.000 316.564,79.820 316.800,79.600 316.800 C 79.380 316.800,79.200 317.160,79.200 317.600 C 79.200 318.040,79.041 318.400,78.847 318.400 C 78.652 318.400,78.393 318.715,78.271 319.100 C 77.975 320.036,76.676 322.166,76.300 322.333 C 76.135 322.407,76.000 322.801,76.000 323.210 C 76.000 323.618,75.825 324.061,75.611 324.193 C 75.397 324.326,74.911 325.101,74.532 325.917 C 74.152 326.733,73.724 327.490,73.581 327.600 C 73.437 327.710,73.245 328.035,73.153 328.322 C 72.970 328.893,67.061 326.075,65.614 324.727 C 65.185 324.327,64.667 324.000,64.463 324.000 C 63.817 324.000,58.800 318.889,58.800 318.231 C 58.800 317.884,58.980 317.600,59.200 317.600 C 59.420 317.600,59.600 317.322,59.600 316.983 C 59.600 316.644,59.960 315.980,60.400 315.508 C 60.840 315.036,61.200 314.413,61.200 314.125 C 61.200 313.836,61.380 313.600,61.600 313.600 C 61.820 313.600,62.000 313.280,62.000 312.888 C 62.000 312.497,62.360 311.917,62.800 311.600 C 63.240 311.283,63.600 310.703,63.600 310.312 C 63.600 309.920,63.780 309.600,64.000 309.600 C 64.220 309.600,64.400 309.412,64.400 309.183 C 64.400 308.954,64.760 308.380,65.200 307.908 C 65.640 307.436,66.000 306.813,66.000 306.525 C 66.000 306.236,66.180 306.000,66.400 306.000 C 66.620 306.000,66.800 305.730,66.800 305.400 C 66.800 305.070,66.980 304.800,67.200 304.800 C 67.420 304.800,67.600 304.530,67.600 304.200 C 67.600 303.870,67.780 303.600,68.000 303.600 C 68.220 303.600,68.400 303.280,68.400 302.888 C 68.400 302.497,68.760 301.917,69.200 301.600 C 69.640 301.283,70.000 300.703,70.000 300.312 C 70.000 299.920,70.158 299.600,70.351 299.600 C 70.545 299.600,70.927 299.060,71.200 298.400 C 71.473 297.740,71.855 297.200,72.049 297.200 C 72.242 297.200,72.400 296.840,72.400 296.400 C 72.400 295.960,72.558 295.600,72.751 295.600 C 72.945 295.600,73.327 295.060,73.600 294.400 C 73.873 293.740,74.255 293.200,74.449 293.200 C 74.642 293.200,74.800 292.862,74.800 292.449 C 74.800 292.036,75.070 291.474,75.400 291.200 C 75.730 290.926,76.000 290.537,76.000 290.334 C 76.000 290.132,76.360 289.580,76.800 289.108 C 77.240 288.636,77.600 288.013,77.600 287.725 C 77.600 287.436,77.780 287.200,78.000 287.200 C 78.220 287.200,78.400 286.880,78.400 286.488 C 78.400 286.097,78.760 285.517,79.200 285.200 C 79.640 284.883,80.000 284.386,80.000 284.095 C 80.000 283.804,80.360 283.180,80.800 282.708 C 81.240 282.236,81.600 281.613,81.600 281.325 C 81.600 281.036,81.780 280.800,82.000 280.800 C 82.220 280.800,82.400 280.480,82.400 280.088 C 82.400 279.697,82.760 279.117,83.200 278.800 C 83.640 278.483,84.000 277.903,84.000 277.512 C 84.000 277.120,84.180 276.800,84.400 276.800 C 84.620 276.800,84.800 276.564,84.800 276.275 C 84.800 275.987,85.160 275.364,85.600 274.892 C 86.040 274.420,86.400 273.923,86.400 273.789 C 86.400 273.654,86.940 272.759,87.600 271.800 C 88.260 270.841,88.800 269.863,88.800 269.628 C 88.800 269.393,88.958 269.200,89.151 269.200 C 89.345 269.200,89.727 268.660,90.000 268.000 C 90.273 267.340,90.641 266.800,90.817 266.800 C 90.993 266.800,91.255 266.260,91.400 265.600 C 91.545 264.940,91.829 264.400,92.032 264.400 C 92.234 264.400,92.400 264.080,92.400 263.688 C 92.400 263.297,92.760 262.717,93.200 262.400 C 93.640 262.083,94.000 261.503,94.000 261.112 C 94.000 260.720,94.180 260.400,94.400 260.400 C 94.620 260.400,94.800 260.158,94.800 259.862 C 94.800 259.566,95.160 258.998,95.600 258.600 C 96.040 258.202,96.400 257.634,96.400 257.338 C 96.400 257.042,96.580 256.800,96.800 256.800 C 97.020 256.800,97.200 256.530,97.200 256.200 C 97.200 255.870,97.380 255.600,97.600 255.600 C 97.820 255.600,98.000 255.330,98.000 255.000 C 98.000 254.670,98.180 254.400,98.400 254.400 C 98.620 254.400,98.800 254.080,98.800 253.688 C 98.800 253.297,99.160 252.717,99.600 252.400 C 100.040 252.083,100.400 251.503,100.400 251.112 C 100.400 250.720,100.558 250.400,100.751 250.400 C 100.945 250.400,101.327 249.860,101.600 249.200 C 101.873 248.540,102.255 248.000,102.449 248.000 C 102.642 248.000,102.800 247.722,102.800 247.383 C 102.800 247.044,103.160 246.380,103.600 245.908 C 104.040 245.436,104.400 244.813,104.400 244.525 C 104.400 244.236,104.580 244.000,104.800 244.000 C 105.020 244.000,105.200 243.764,105.200 243.475 C 105.200 243.187,105.560 242.564,106.000 242.092 C 106.440 241.620,106.800 241.126,106.800 240.996 C 106.800 240.865,107.250 240.095,107.800 239.286 C 108.350 238.477,108.800 237.536,108.800 237.195 C 108.800 236.855,109.160 236.317,109.600 236.000 C 110.040 235.683,110.400 235.186,110.400 234.895 C 110.400 234.604,110.760 233.980,111.200 233.508 C 111.640 233.036,112.000 232.413,112.000 232.125 C 112.000 231.836,112.180 231.600,112.400 231.600 C 112.620 231.600,112.800 231.280,112.800 230.888 C 112.800 230.497,113.160 229.917,113.600 229.600 C 114.040 229.283,114.400 228.703,114.400 228.312 C 114.400 227.920,114.580 227.600,114.800 227.600 C 115.020 227.600,115.200 227.364,115.200 227.075 C 115.200 226.787,115.560 226.164,116.000 225.692 C 116.440 225.220,116.800 224.646,116.800 224.417 C 116.800 224.188,116.980 224.000,117.200 224.000 C 117.420 224.000,117.600 223.730,117.600 223.400 C 117.600 223.070,117.780 222.800,118.000 222.800 C 118.220 222.800,118.400 222.530,118.400 222.200 C 118.400 221.870,118.580 221.600,118.800 221.600 C 119.020 221.600,119.200 221.240,119.200 220.800 C 119.200 220.360,119.350 220.000,119.532 220.000 C 119.715 220.000,120.120 219.505,120.432 218.900 C 120.745 218.295,121.315 217.451,121.700 217.025 C 122.085 216.598,122.400 216.013,122.400 215.725 C 122.400 215.436,122.568 215.200,122.773 215.200 C 122.978 215.200,123.254 214.861,123.385 214.448 C 123.516 214.034,123.978 213.286,124.412 212.786 C 124.845 212.287,125.200 211.545,125.200 211.139 C 125.200 210.732,125.335 210.399,125.500 210.398 C 125.665 210.397,126.430 209.408,127.200 208.200 C 127.970 206.992,128.735 206.003,128.900 206.002 C 129.065 206.001,129.200 205.730,129.200 205.400 C 129.200 205.070,129.380 204.800,129.600 204.800 C 129.820 204.800,130.000 204.530,130.000 204.200 C 130.000 203.870,130.150 203.600,130.332 203.600 C 130.515 203.600,130.919 203.105,131.230 202.500 C 131.540 201.895,132.111 201.109,132.497 200.753 C 132.884 200.397,133.200 199.901,133.200 199.649 C 133.200 199.398,133.740 198.628,134.400 197.937 C 135.060 197.246,135.600 196.478,135.600 196.229 C 135.600 195.980,135.960 195.517,136.400 195.200 C 136.840 194.883,137.200 194.369,137.200 194.059 C 137.200 193.748,137.515 193.203,137.900 192.847 C 138.940 191.886,141.600 188.326,141.600 187.895 C 141.600 187.689,142.140 187.017,142.800 186.400 C 143.460 185.783,144.000 185.063,144.000 184.800 C 144.000 184.537,144.540 183.817,145.200 183.200 C 145.860 182.583,146.400 181.881,146.400 181.640 C 146.400 181.398,146.580 181.200,146.800 181.200 C 147.020 181.200,147.200 181.002,147.200 180.760 C 147.200 180.519,147.740 179.817,148.400 179.200 C 149.060 178.583,149.600 177.867,149.600 177.608 C 149.600 177.349,150.320 176.446,151.200 175.600 C 152.080 174.754,152.800 173.935,152.800 173.778 C 152.800 173.622,153.116 173.203,153.503 172.847 C 154.157 172.246,155.578 170.573,157.715 167.889 C 158.202 167.278,159.185 166.118,159.900 165.311 C 160.615 164.504,161.200 163.695,161.200 163.513 C 161.200 163.331,162.145 162.215,163.300 161.033 C 164.455 159.851,166.356 157.812,167.523 156.502 C 169.520 154.262,171.600 153.418,171.600 154.847 M237.100 161.472 C 238.475 162.914,239.600 164.258,239.600 164.460 C 239.600 164.662,240.185 165.427,240.900 166.160 C 241.615 166.894,242.560 168.001,243.000 168.621 C 244.190 170.298,245.692 172.116,246.492 172.847 C 246.881 173.203,247.200 173.622,247.200 173.778 C 247.200 173.935,247.920 174.754,248.800 175.600 C 249.680 176.446,250.400 177.349,250.400 177.608 C 250.400 177.867,250.940 178.583,251.600 179.200 C 252.260 179.817,252.800 180.519,252.800 180.760 C 252.800 181.002,252.980 181.200,253.200 181.200 C 253.420 181.200,253.600 181.398,253.600 181.640 C 253.600 181.881,254.140 182.583,254.800 183.200 C 255.460 183.817,256.000 184.537,256.000 184.800 C 256.000 185.063,256.540 185.783,257.200 186.400 C 257.860 187.017,258.400 187.650,258.400 187.807 C 258.400 188.206,261.220 192.062,262.086 192.847 C 262.479 193.203,262.800 193.748,262.800 194.059 C 262.800 194.369,263.160 194.883,263.600 195.200 C 264.040 195.517,264.400 195.980,264.400 196.229 C 264.400 196.478,264.940 197.246,265.600 197.937 C 266.260 198.628,266.800 199.398,266.800 199.649 C 266.800 199.901,267.116 200.397,267.503 200.753 C 267.889 201.109,268.460 201.895,268.770 202.500 C 269.081 203.105,269.485 203.600,269.668 203.600 C 269.850 203.600,270.000 203.870,270.000 204.200 C 270.000 204.530,270.180 204.800,270.400 204.800 C 270.620 204.800,270.800 205.055,270.800 205.367 C 270.800 205.678,270.945 205.993,271.123 206.067 C 271.301 206.140,272.054 207.100,272.797 208.200 C 273.540 209.300,274.256 210.290,274.389 210.400 C 274.521 210.510,275.163 211.635,275.815 212.899 C 276.467 214.164,277.135 215.199,277.300 215.199 C 277.465 215.200,277.600 215.436,277.600 215.725 C 277.600 216.013,277.915 216.598,278.300 217.025 C 278.685 217.451,279.255 218.295,279.568 218.900 C 279.880 219.505,280.285 220.000,280.468 220.000 C 280.650 220.000,280.800 220.360,280.800 220.800 C 280.800 221.240,280.980 221.600,281.200 221.600 C 281.420 221.600,281.600 221.870,281.600 222.200 C 281.600 222.530,281.750 222.800,281.932 222.800 C 282.115 222.800,282.520 223.295,282.832 223.900 C 283.145 224.505,283.715 225.349,284.100 225.775 C 284.485 226.202,284.800 226.787,284.800 227.075 C 284.800 227.364,284.980 227.600,285.200 227.600 C 285.420 227.600,285.600 227.920,285.600 228.312 C 285.600 228.703,285.960 229.283,286.400 229.600 C 286.840 229.917,287.200 230.497,287.200 230.888 C 287.200 231.280,287.380 231.600,287.600 231.600 C 287.820 231.600,288.000 231.870,288.000 232.200 C 288.000 232.530,288.180 232.800,288.400 232.800 C 288.620 232.800,288.800 233.070,288.800 233.400 C 288.800 233.730,288.980 234.000,289.200 234.000 C 289.420 234.000,289.600 234.320,289.600 234.712 C 289.600 235.103,289.960 235.683,290.400 236.000 C 290.840 236.317,291.200 236.897,291.200 237.288 C 291.200 237.680,291.380 238.000,291.600 238.000 C 291.820 238.000,292.000 238.227,292.000 238.505 C 292.000 238.783,292.630 239.946,293.400 241.090 C 294.170 242.233,294.800 243.356,294.800 243.584 C 294.800 243.813,294.980 244.000,295.200 244.000 C 295.420 244.000,295.600 244.236,295.600 244.525 C 295.600 244.813,295.960 245.436,296.400 245.908 C 296.840 246.380,297.200 247.044,297.200 247.383 C 297.200 247.722,297.358 248.000,297.551 248.000 C 297.745 248.000,298.127 248.540,298.400 249.200 C 298.673 249.860,299.055 250.400,299.249 250.400 C 299.442 250.400,299.600 250.720,299.600 251.112 C 299.600 251.503,299.960 252.083,300.400 252.400 C 300.840 252.717,301.200 253.297,301.200 253.688 C 301.200 254.080,301.380 254.400,301.600 254.400 C 301.820 254.400,302.000 254.670,302.000 255.000 C 302.000 255.330,302.180 255.600,302.400 255.600 C 302.620 255.600,302.800 255.870,302.800 256.200 C 302.800 256.530,302.980 256.800,303.200 256.800 C 303.420 256.800,303.600 257.042,303.600 257.338 C 303.600 257.634,303.960 258.202,304.400 258.600 C 304.840 258.998,305.200 259.566,305.200 259.862 C 305.200 260.158,305.380 260.400,305.600 260.400 C 305.820 260.400,306.000 260.720,306.000 261.112 C 306.000 261.503,306.360 262.083,306.800 262.400 C 307.240 262.717,307.600 263.282,307.600 263.655 C 307.600 264.028,307.735 264.393,307.900 264.467 C 308.065 264.540,308.740 265.634,309.400 266.899 C 310.060 268.163,310.735 269.198,310.900 269.199 C 311.065 269.199,311.200 269.393,311.200 269.628 C 311.200 269.863,311.740 270.841,312.400 271.800 C 313.060 272.759,313.600 273.654,313.600 273.789 C 313.600 273.923,313.960 274.420,314.400 274.892 C 314.840 275.364,315.200 275.987,315.200 276.275 C 315.200 276.564,315.380 276.800,315.600 276.800 C 315.820 276.800,316.000 277.120,316.000 277.512 C 316.000 277.903,316.360 278.483,316.800 278.800 C 317.240 279.117,317.600 279.614,317.600 279.905 C 317.600 280.196,317.960 280.820,318.400 281.292 C 318.840 281.764,319.200 282.387,319.200 282.675 C 319.200 282.964,319.380 283.200,319.600 283.200 C 319.820 283.200,320.000 283.520,320.000 283.912 C 320.000 284.303,320.360 284.883,320.800 285.200 C 321.240 285.517,321.600 286.097,321.600 286.488 C 321.600 286.880,321.780 287.200,322.000 287.200 C 322.220 287.200,322.400 287.470,322.400 287.800 C 322.400 288.130,322.580 288.400,322.800 288.400 C 323.020 288.400,323.200 288.670,323.200 289.000 C 323.200 289.330,323.337 289.600,323.505 289.600 C 323.673 289.600,323.988 289.936,324.205 290.346 C 326.314 294.333,326.951 295.419,327.251 295.533 C 327.443 295.607,327.600 295.929,327.600 296.250 C 327.600 296.571,327.960 297.220,328.400 297.692 C 328.840 298.164,329.200 298.787,329.200 299.075 C 329.200 299.364,329.380 299.600,329.600 299.600 C 329.820 299.600,330.000 299.836,330.000 300.125 C 330.000 300.413,330.360 301.036,330.800 301.508 C 331.240 301.980,331.600 302.644,331.600 302.983 C 331.600 303.322,331.780 303.600,332.000 303.600 C 332.220 303.600,332.400 303.870,332.400 304.200 C 332.400 304.530,332.580 304.800,332.800 304.800 C 333.020 304.800,333.200 305.070,333.200 305.400 C 333.200 305.730,333.380 306.000,333.600 306.000 C 333.820 306.000,334.000 306.270,334.000 306.600 C 334.000 306.930,334.180 307.200,334.400 307.200 C 334.620 307.200,334.800 307.470,334.800 307.800 C 334.800 308.130,334.980 308.400,335.200 308.400 C 335.420 308.400,335.600 308.670,335.600 309.000 C 335.600 309.330,335.780 309.600,336.000 309.600 C 336.220 309.600,336.400 309.920,336.400 310.312 C 336.400 310.703,336.760 311.283,337.200 311.600 C 337.640 311.917,338.000 312.497,338.000 312.888 C 338.000 313.280,338.180 313.600,338.400 313.600 C 338.620 313.600,338.800 313.836,338.800 314.125 C 338.800 314.413,339.160 315.036,339.600 315.508 C 340.040 315.980,340.400 316.644,340.400 316.983 C 340.400 317.322,340.580 317.600,340.800 317.600 C 341.020 317.600,341.200 317.884,341.200 318.231 C 341.200 318.889,336.183 324.000,335.537 324.000 C 335.333 324.000,334.826 324.315,334.410 324.700 C 333.994 325.085,332.967 325.752,332.127 326.183 C 331.287 326.614,330.150 327.262,329.600 327.622 C 328.129 328.587,326.800 328.844,326.800 328.163 C 326.800 327.853,326.657 327.600,326.482 327.600 C 326.307 327.600,325.830 326.790,325.422 325.800 C 325.013 324.810,324.527 324.000,324.340 324.000 C 324.153 324.000,324.000 323.640,324.000 323.200 C 324.000 322.760,323.841 322.400,323.647 322.400 C 323.452 322.400,323.193 322.085,323.071 321.700 C 322.775 320.764,321.476 318.634,321.100 318.467 C 320.935 318.393,320.800 317.988,320.800 317.567 C 320.800 317.145,320.620 316.800,320.400 316.800 C 320.180 316.800,320.000 316.564,320.000 316.275 C 320.000 315.987,319.640 315.364,319.200 314.892 C 318.760 314.420,318.400 313.756,318.400 313.417 C 318.400 313.078,318.220 312.800,318.000 312.800 C 317.780 312.800,317.600 312.607,317.600 312.372 C 317.600 312.137,317.060 311.159,316.400 310.200 C 315.740 309.241,315.200 308.263,315.200 308.028 C 315.200 307.793,315.020 307.600,314.800 307.600 C 314.580 307.600,314.400 307.280,314.400 306.888 C 314.400 306.497,314.040 305.917,313.600 305.600 C 313.160 305.283,312.800 304.703,312.800 304.312 C 312.800 303.920,312.620 303.600,312.400 303.600 C 312.180 303.600,312.000 303.240,312.000 302.800 C 312.000 302.360,311.820 302.000,311.600 302.000 C 311.380 302.000,311.200 301.730,311.200 301.400 C 311.200 301.070,311.020 300.800,310.800 300.800 C 310.580 300.800,310.400 300.530,310.400 300.200 C 310.400 299.870,310.220 299.600,310.000 299.600 C 309.780 299.600,309.600 299.255,309.600 298.833 C 309.600 298.412,309.465 298.007,309.300 297.933 C 309.135 297.860,308.641 297.080,308.202 296.200 C 307.057 293.906,305.052 290.623,304.700 290.467 C 304.535 290.393,304.400 289.988,304.400 289.567 C 304.400 289.145,304.220 288.800,304.000 288.800 C 303.780 288.800,303.600 288.564,303.600 288.275 C 303.600 287.987,303.240 287.364,302.800 286.892 C 302.360 286.420,302.000 285.756,302.000 285.417 C 302.000 285.078,301.820 284.800,301.600 284.800 C 301.380 284.800,301.200 284.522,301.200 284.183 C 301.200 283.844,300.840 283.180,300.400 282.708 C 299.960 282.236,299.600 281.613,299.600 281.325 C 299.600 281.036,299.420 280.800,299.200 280.800 C 298.980 280.800,298.800 280.440,298.800 280.000 C 298.800 279.560,298.620 279.200,298.400 279.200 C 298.180 279.200,298.000 278.930,298.000 278.600 C 298.000 278.270,297.820 278.000,297.600 278.000 C 297.380 278.000,297.200 277.730,297.200 277.400 C 297.200 277.070,297.020 276.800,296.800 276.800 C 296.580 276.800,296.400 276.530,296.400 276.200 C 296.400 275.870,296.220 275.600,296.000 275.600 C 295.780 275.600,295.600 275.240,295.600 274.800 C 295.600 274.360,295.464 274.000,295.298 274.000 C 295.131 274.000,294.756 273.460,294.464 272.800 C 293.935 271.605,291.200 270.935,291.200 272.000 C 291.200 272.220,290.840 272.400,290.400 272.400 C 289.960 272.400,289.600 272.580,289.600 272.800 C 289.600 273.020,289.280 273.200,288.888 273.200 C 288.497 273.200,287.917 273.560,287.600 274.000 C 287.283 274.440,286.799 274.800,286.525 274.800 C 285.781 274.800,283.200 276.099,283.200 276.474 C 283.200 276.653,282.840 276.800,282.400 276.800 C 281.733 276.800,281.600 277.067,281.600 278.400 C 281.600 279.280,281.780 280.000,282.000 280.000 C 282.220 280.000,282.400 280.236,282.400 280.525 C 282.400 280.813,282.760 281.436,283.200 281.908 C 283.640 282.380,284.000 283.044,284.000 283.383 C 284.000 283.722,284.180 284.000,284.400 284.000 C 284.620 284.000,284.800 284.278,284.800 284.617 C 284.800 284.956,285.160 285.620,285.600 286.092 C 286.040 286.564,286.400 287.187,286.400 287.475 C 286.400 287.764,286.580 288.000,286.800 288.000 C 287.020 288.000,287.200 288.360,287.200 288.800 C 287.200 289.240,287.380 289.600,287.600 289.600 C 287.820 289.600,288.000 289.830,288.000 290.112 C 288.000 290.393,288.360 290.883,288.800 291.200 C 289.240 291.517,289.600 292.097,289.600 292.488 C 289.600 292.880,289.780 293.200,290.000 293.200 C 290.220 293.200,290.400 293.545,290.400 293.967 C 290.400 294.388,290.539 294.793,290.709 294.867 C 290.880 294.940,291.719 296.350,292.575 298.000 C 293.431 299.650,294.282 301.060,294.466 301.133 C 294.650 301.207,294.800 301.612,294.800 302.033 C 294.800 302.455,294.980 302.800,295.200 302.800 C 295.420 302.800,295.600 302.993,295.600 303.228 C 295.600 303.463,296.101 304.408,296.712 305.328 C 297.324 306.248,298.088 307.540,298.409 308.200 C 298.731 308.860,299.311 309.691,299.697 310.047 C 300.084 310.403,300.400 310.988,300.400 311.347 C 300.400 311.706,300.580 312.000,300.800 312.000 C 301.020 312.000,301.200 312.278,301.200 312.617 C 301.200 312.956,301.560 313.620,302.000 314.092 C 302.440 314.564,302.800 315.187,302.800 315.475 C 302.800 315.764,302.980 316.000,303.200 316.000 C 303.420 316.000,303.600 316.360,303.600 316.800 C 303.600 317.240,303.780 317.600,304.000 317.600 C 304.220 317.600,304.400 317.836,304.400 318.125 C 304.400 318.413,304.760 319.036,305.200 319.508 C 305.640 319.980,306.000 320.629,306.000 320.950 C 306.000 321.271,306.135 321.593,306.300 321.667 C 306.665 321.829,307.617 323.415,309.261 326.600 C 309.943 327.920,310.657 329.060,310.850 329.133 C 311.042 329.207,311.200 329.612,311.200 330.033 C 311.200 330.455,311.359 330.800,311.553 330.800 C 311.748 330.800,312.007 331.115,312.129 331.500 C 312.425 332.436,313.724 334.566,314.100 334.733 C 314.265 334.807,314.400 335.212,314.400 335.633 C 314.400 336.055,314.580 336.400,314.800 336.400 C 315.020 336.400,315.200 336.636,315.200 336.925 C 315.200 337.213,315.525 337.798,315.922 338.225 C 316.320 338.651,316.903 339.585,317.220 340.300 C 317.536 341.015,317.931 341.600,318.098 341.600 C 318.264 341.600,318.400 341.836,318.400 342.125 C 318.400 342.413,318.760 343.036,319.200 343.508 C 319.640 343.980,320.000 344.629,320.000 344.950 C 320.000 345.271,320.225 345.618,320.500 345.721 C 321.228 345.994,319.622 347.171,318.500 347.187 C 318.005 347.194,317.600 347.380,317.600 347.600 C 317.600 347.820,317.060 348.000,316.400 348.000 C 315.740 348.000,315.200 348.180,315.200 348.400 C 315.200 348.620,314.581 348.800,313.824 348.800 C 313.067 348.800,312.336 348.980,312.200 349.200 C 312.064 349.420,311.333 349.600,310.576 349.600 C 309.819 349.600,309.200 349.780,309.200 350.000 C 309.200 350.222,308.133 350.400,306.800 350.400 C 305.467 350.400,304.400 350.578,304.400 350.800 C 304.400 351.038,302.875 351.200,300.624 351.200 C 298.537 351.200,296.737 351.379,296.600 351.600 C 296.464 351.820,295.463 352.000,294.376 352.000 C 293.289 352.000,292.400 351.820,292.400 351.600 C 292.400 351.360,290.794 351.200,288.382 351.200 C 283.668 351.200,282.400 350.483,282.400 347.818 C 282.400 347.038,282.220 346.400,282.000 346.400 C 281.780 346.400,281.600 345.590,281.600 344.600 C 281.600 343.610,281.420 342.800,281.200 342.800 C 280.980 342.800,280.800 342.080,280.800 341.200 C 280.800 340.320,280.620 339.600,280.400 339.600 C 280.180 339.600,280.000 338.801,280.000 337.824 C 280.000 336.847,279.820 335.936,279.600 335.800 C 279.380 335.664,279.200 334.843,279.200 333.976 C 279.200 333.109,279.020 332.400,278.800 332.400 C 278.580 332.400,278.400 331.680,278.400 330.800 C 278.400 329.920,278.220 329.200,278.000 329.200 C 277.780 329.200,277.600 328.390,277.600 327.400 C 277.600 326.410,277.420 325.600,277.200 325.600 C 276.980 325.600,276.800 324.880,276.800 324.000 C 276.800 323.120,276.620 322.400,276.400 322.400 C 276.180 322.400,276.000 321.601,276.000 320.624 C 276.000 319.647,275.844 318.751,275.653 318.632 C 275.461 318.514,275.176 317.109,275.019 315.509 C 274.861 313.909,274.589 312.420,274.413 312.200 C 274.098 311.804,273.769 310.178,273.341 306.900 C 273.219 305.965,272.958 305.200,272.760 305.200 C 272.562 305.200,272.400 304.491,272.400 303.624 C 272.400 302.757,272.220 301.936,272.000 301.800 C 271.780 301.664,271.600 300.854,271.600 300.000 C 271.600 299.146,271.420 298.336,271.200 298.200 C 270.980 298.064,270.800 297.344,270.800 296.600 C 270.800 295.856,270.620 295.136,270.400 295.000 C 270.180 294.864,270.000 293.953,270.000 292.976 C 270.000 291.999,269.820 291.200,269.600 291.200 C 269.380 291.200,269.200 290.480,269.200 289.600 C 269.200 288.720,269.038 288.000,268.840 288.000 C 268.642 288.000,268.372 287.190,268.240 286.200 C 268.108 285.210,267.892 283.590,267.760 282.600 C 267.628 281.610,267.358 280.800,267.160 280.800 C 266.962 280.800,266.800 280.080,266.800 279.200 C 266.800 278.320,266.620 277.600,266.400 277.600 C 266.180 277.600,266.000 276.790,266.000 275.800 C 266.000 274.810,265.820 274.000,265.600 274.000 C 265.380 274.000,265.200 273.280,265.200 272.400 C 265.200 271.520,265.020 270.800,264.800 270.800 C 264.580 270.800,264.400 270.080,264.400 269.200 C 264.400 268.320,264.220 267.600,264.000 267.600 C 263.780 267.600,263.600 266.790,263.600 265.800 C 263.600 264.810,263.420 264.000,263.200 264.000 C 262.980 264.000,262.800 263.280,262.800 262.400 C 262.800 261.520,262.620 260.800,262.400 260.800 C 262.180 260.800,262.000 260.181,262.000 259.424 C 262.000 258.667,261.820 257.936,261.600 257.800 C 261.380 257.664,261.200 257.023,261.200 256.376 C 261.200 255.729,261.020 255.200,260.800 255.200 C 260.580 255.200,260.400 254.480,260.400 253.600 C 260.400 252.720,260.220 252.000,260.000 252.000 C 259.780 252.000,259.600 251.280,259.600 250.400 C 259.600 249.520,259.438 248.800,259.239 248.800 C 259.041 248.800,258.753 247.720,258.600 246.399 C 258.447 245.079,258.159 243.898,257.961 243.776 C 257.762 243.653,257.600 243.023,257.600 242.376 C 257.600 241.729,257.440 241.200,257.244 241.200 C 257.048 241.200,256.773 240.525,256.632 239.700 C 256.010 236.049,255.893 235.600,255.556 235.600 C 255.360 235.600,255.200 235.060,255.200 234.400 C 255.200 233.740,255.020 233.200,254.800 233.200 C 254.580 233.200,254.400 232.671,254.400 232.024 C 254.400 231.377,254.220 230.736,254.000 230.600 C 253.780 230.464,253.600 229.823,253.600 229.176 C 253.600 228.529,253.420 228.000,253.200 228.000 C 252.980 228.000,252.800 227.460,252.800 226.800 C 252.800 226.140,252.620 225.600,252.400 225.600 C 252.180 225.600,252.000 225.060,252.000 224.400 C 252.000 223.740,251.820 223.200,251.600 223.200 C 251.380 223.200,251.200 222.660,251.200 222.000 C 251.200 221.340,251.020 220.800,250.800 220.800 C 250.580 220.800,250.400 220.260,250.400 219.600 C 250.400 218.940,250.220 218.400,250.000 218.400 C 249.780 218.400,249.600 217.961,249.600 217.424 C 249.600 216.887,249.420 216.336,249.200 216.200 C 248.980 216.064,248.800 215.513,248.800 214.976 C 248.800 214.439,248.620 214.000,248.400 214.000 C 248.180 214.000,248.000 213.550,248.000 213.000 C 248.000 212.450,247.820 212.000,247.600 212.000 C 247.380 212.000,247.200 211.460,247.200 210.800 C 247.200 210.140,247.020 209.600,246.800 209.600 C 246.580 209.600,246.400 209.150,246.400 208.600 C 246.400 208.050,246.220 207.600,246.000 207.600 C 245.780 207.600,245.600 207.060,245.600 206.400 C 245.600 205.740,245.420 205.200,245.200 205.200 C 244.980 205.200,244.800 204.840,244.800 204.400 C 244.800 203.960,244.620 203.600,244.400 203.600 C 244.180 203.600,244.000 203.060,244.000 202.400 C 244.000 201.740,243.820 201.200,243.600 201.200 C 243.380 201.200,243.200 200.761,243.200 200.224 C 243.200 199.687,243.020 199.136,242.800 199.000 C 242.580 198.864,242.400 198.403,242.400 197.976 C 242.400 197.549,242.220 197.200,242.000 197.200 C 241.780 197.200,241.600 196.732,241.600 196.160 C 241.600 195.253,241.036 193.611,240.034 191.600 C 239.869 191.270,239.485 190.145,239.180 189.100 C 238.875 188.055,238.485 187.200,238.313 187.200 C 238.141 187.200,238.000 186.761,238.000 186.224 C 238.000 185.687,237.820 185.136,237.600 185.000 C 237.380 184.864,237.200 184.403,237.200 183.976 C 237.200 183.549,237.020 183.200,236.800 183.200 C 236.580 183.200,236.400 182.660,236.400 182.000 C 236.400 181.340,236.220 180.800,236.000 180.800 C 235.780 180.800,235.600 180.350,235.600 179.800 C 235.600 179.250,235.420 178.800,235.200 178.800 C 234.980 178.800,234.800 178.451,234.800 178.024 C 234.800 177.597,234.620 177.136,234.400 177.000 C 234.180 176.864,234.000 176.313,234.000 175.776 C 234.000 175.239,233.820 174.800,233.600 174.800 C 233.380 174.800,233.200 174.451,233.200 174.024 C 233.200 173.597,233.020 173.136,232.800 173.000 C 232.580 172.864,232.400 172.313,232.400 171.776 C 232.400 171.239,232.220 170.800,232.000 170.800 C 231.780 170.800,231.600 170.361,231.600 169.824 C 231.600 169.287,231.420 168.736,231.200 168.600 C 230.980 168.464,230.800 168.003,230.800 167.576 C 230.800 167.149,230.620 166.800,230.400 166.800 C 230.180 166.800,230.000 166.260,230.000 165.600 C 230.000 164.940,229.820 164.400,229.600 164.400 C 229.380 164.400,229.200 164.040,229.200 163.600 C 229.200 163.160,229.020 162.800,228.800 162.800 C 228.580 162.800,228.400 162.260,228.400 161.600 C 228.400 160.940,228.220 160.400,228.000 160.400 C 227.780 160.400,227.600 159.950,227.600 159.400 C 227.600 158.850,227.420 158.400,227.200 158.400 C 226.980 158.400,226.800 158.055,226.800 157.633 C 226.800 157.212,226.577 156.792,226.304 156.701 C 225.643 156.481,226.895 155.200,227.771 155.200 C 228.117 155.200,228.400 155.033,228.400 154.828 C 228.400 153.486,230.340 154.297,232.400 156.499 C 233.610 157.793,235.725 160.031,237.100 161.472 M193.200 266.800 L 193.200 374.800 185.824 374.800 C 181.337 374.800,178.350 374.643,178.200 374.400 C 178.047 374.152,174.463 374.000,168.776 374.000 C 162.925 374.000,159.600 373.855,159.600 373.600 C 159.600 373.359,157.941 373.200,155.424 373.200 C 153.071 373.200,151.139 373.025,151.000 372.800 C 150.864 372.580,149.233 372.400,147.376 372.400 C 145.392 372.400,144.000 372.235,144.000 372.000 C 144.000 371.774,142.867 371.600,141.400 371.600 C 139.933 371.600,138.800 371.426,138.800 371.200 C 138.800 370.978,137.733 370.800,136.400 370.800 C 135.067 370.800,134.000 370.622,134.000 370.400 C 134.000 370.178,132.933 370.000,131.600 370.000 C 130.267 370.000,129.200 369.822,129.200 369.600 C 129.200 369.380,128.840 369.200,128.400 369.200 C 127.733 369.200,127.600 368.933,127.600 367.600 C 127.600 366.720,127.780 366.000,128.000 366.000 C 128.220 366.000,128.400 365.291,128.400 364.424 C 128.400 363.557,128.580 362.736,128.800 362.600 C 129.020 362.464,129.200 361.553,129.200 360.576 C 129.200 359.599,129.380 358.800,129.600 358.800 C 129.820 358.800,130.000 358.080,130.000 357.200 C 130.000 356.320,130.180 355.600,130.400 355.600 C 130.620 355.600,130.800 354.790,130.800 353.800 C 130.800 352.810,130.980 352.000,131.200 352.000 C 131.420 352.000,131.600 351.280,131.600 350.400 C 131.600 349.520,131.762 348.800,131.960 348.800 C 132.158 348.800,132.428 347.990,132.560 347.000 C 132.692 346.010,132.908 344.390,133.040 343.400 C 133.172 342.410,133.442 341.600,133.640 341.600 C 133.838 341.600,134.000 340.880,134.000 340.000 C 134.000 339.120,134.180 338.400,134.400 338.400 C 134.620 338.400,134.800 337.590,134.800 336.600 C 134.800 335.610,134.980 334.800,135.200 334.800 C 135.420 334.800,135.600 334.080,135.600 333.200 C 135.600 332.320,135.780 331.600,136.000 331.600 C 136.220 331.600,136.400 330.801,136.400 329.824 C 136.400 328.847,136.580 327.936,136.800 327.800 C 137.020 327.664,137.200 326.843,137.200 325.976 C 137.200 325.109,137.380 324.400,137.600 324.400 C 137.820 324.400,138.000 323.691,138.000 322.824 C 138.000 321.957,138.180 321.136,138.400 321.000 C 138.620 320.864,138.800 320.043,138.800 319.176 C 138.800 318.309,138.962 317.600,139.160 317.600 C 139.358 317.600,139.619 316.835,139.741 315.900 C 140.165 312.655,140.496 310.998,140.803 310.600 C 140.972 310.380,141.239 308.894,141.396 307.298 C 141.553 305.703,141.843 304.297,142.041 304.175 C 142.238 304.053,142.400 303.153,142.400 302.176 C 142.400 301.199,142.580 300.400,142.800 300.400 C 143.020 300.400,143.200 299.680,143.200 298.800 C 143.200 297.920,143.380 297.200,143.600 297.200 C 143.820 297.200,144.000 296.491,144.000 295.624 C 144.000 294.757,144.180 293.936,144.400 293.800 C 144.620 293.664,144.800 292.854,144.800 292.000 C 144.800 291.146,144.980 290.336,145.200 290.200 C 145.420 290.064,145.600 289.344,145.600 288.600 C 145.600 287.856,145.780 287.136,146.000 287.000 C 146.220 286.864,146.400 285.953,146.400 284.976 C 146.400 283.999,146.580 283.200,146.800 283.200 C 147.020 283.200,147.200 282.480,147.200 281.600 C 147.200 280.720,147.380 280.000,147.600 280.000 C 147.820 280.000,148.000 279.291,148.000 278.424 C 148.000 277.557,148.180 276.736,148.400 276.600 C 148.620 276.464,148.800 275.654,148.800 274.800 C 148.800 273.946,148.980 273.136,149.200 273.000 C 149.420 272.864,149.600 272.133,149.600 271.376 C 149.600 270.619,149.780 270.000,150.000 270.000 C 150.220 270.000,150.400 269.280,150.400 268.400 C 150.400 267.520,150.580 266.800,150.800 266.800 C 151.020 266.800,151.200 266.080,151.200 265.200 C 151.200 264.320,151.380 263.600,151.600 263.600 C 151.820 263.600,152.000 262.880,152.000 262.000 C 152.000 261.120,152.180 260.400,152.400 260.400 C 152.620 260.400,152.800 259.781,152.800 259.024 C 152.800 258.267,152.980 257.536,153.200 257.400 C 153.420 257.264,153.600 256.634,153.600 256.000 C 153.600 255.366,153.780 254.736,154.000 254.600 C 154.220 254.464,154.400 253.834,154.400 253.200 C 154.400 252.566,154.580 251.936,154.800 251.800 C 155.020 251.664,155.200 250.933,155.200 250.176 C 155.200 249.419,155.380 248.800,155.600 248.800 C 155.820 248.800,156.000 248.271,156.000 247.624 C 156.000 246.977,156.180 246.336,156.400 246.200 C 156.620 246.064,156.800 245.434,156.800 244.800 C 156.800 244.166,156.980 243.536,157.200 243.400 C 157.420 243.264,157.600 242.634,157.600 242.000 C 157.600 241.366,157.775 240.739,157.988 240.607 C 158.202 240.475,158.496 239.470,158.641 238.375 C 158.787 237.279,159.062 236.285,159.253 236.167 C 159.444 236.049,159.600 235.434,159.600 234.800 C 159.600 234.166,159.780 233.536,160.000 233.400 C 160.220 233.264,160.400 232.623,160.400 231.976 C 160.400 231.329,160.580 230.800,160.800 230.800 C 161.020 230.800,161.200 230.260,161.200 229.600 C 161.200 228.940,161.380 228.400,161.600 228.400 C 161.820 228.400,162.000 227.860,162.000 227.200 C 162.000 226.540,162.180 226.000,162.400 226.000 C 162.620 226.000,162.800 225.550,162.800 225.000 C 162.800 224.450,162.980 224.000,163.200 224.000 C 163.420 224.000,163.600 223.460,163.600 222.800 C 163.600 222.140,163.780 221.600,164.000 221.600 C 164.220 221.600,164.400 221.251,164.400 220.824 C 164.400 220.397,164.580 219.936,164.800 219.800 C 165.020 219.664,165.200 219.113,165.200 218.576 C 165.200 218.039,165.380 217.600,165.600 217.600 C 165.820 217.600,166.000 217.060,166.000 216.400 C 166.000 215.740,166.180 215.200,166.400 215.200 C 166.620 215.200,166.800 214.660,166.800 214.000 C 166.800 213.340,166.980 212.800,167.200 212.800 C 167.420 212.800,167.600 212.451,167.600 212.024 C 167.600 211.597,167.780 211.136,168.000 211.000 C 168.220 210.864,168.400 210.313,168.400 209.776 C 168.400 209.239,168.580 208.800,168.800 208.800 C 169.020 208.800,169.200 208.438,169.200 207.995 C 169.200 207.552,169.359 206.877,169.553 206.495 C 169.748 206.113,170.129 205.260,170.400 204.600 C 170.671 203.940,171.052 203.087,171.247 202.705 C 171.441 202.323,171.600 201.648,171.600 201.205 C 171.600 200.762,171.780 200.400,172.000 200.400 C 172.220 200.400,172.400 200.051,172.400 199.624 C 172.400 199.197,172.580 198.736,172.800 198.600 C 173.020 198.464,173.200 198.037,173.200 197.652 C 173.200 197.266,173.555 196.216,173.988 195.319 C 174.422 194.421,174.895 192.947,175.039 192.044 C 175.184 191.140,175.459 190.400,175.651 190.400 C 175.843 190.400,176.000 190.051,176.000 189.624 C 176.000 189.197,176.180 188.736,176.400 188.600 C 176.620 188.464,176.800 187.913,176.800 187.376 C 176.800 186.839,176.980 186.400,177.200 186.400 C 177.420 186.400,177.600 186.051,177.600 185.624 C 177.600 185.197,177.780 184.736,178.000 184.600 C 178.220 184.464,178.400 183.913,178.400 183.376 C 178.400 182.839,178.580 182.400,178.800 182.400 C 179.020 182.400,179.200 181.961,179.200 181.424 C 179.200 180.887,179.380 180.336,179.600 180.200 C 179.820 180.064,180.000 179.603,180.000 179.176 C 180.000 178.749,180.180 178.400,180.400 178.400 C 180.620 178.400,180.800 177.860,180.800 177.200 C 180.800 176.540,180.980 176.000,181.200 176.000 C 181.420 176.000,181.600 175.640,181.600 175.200 C 181.600 174.760,181.780 174.400,182.000 174.400 C 182.220 174.400,182.400 173.950,182.400 173.400 C 182.400 172.850,182.580 172.400,182.800 172.400 C 183.020 172.400,183.200 171.860,183.200 171.200 C 183.200 170.540,183.380 170.000,183.600 170.000 C 183.820 170.000,184.000 169.651,184.000 169.224 C 184.000 168.797,184.180 168.336,184.400 168.200 C 184.620 168.064,184.800 167.513,184.800 166.976 C 184.800 166.439,184.980 166.000,185.200 166.000 C 185.420 166.000,185.600 165.651,185.600 165.224 C 185.600 164.797,185.780 164.336,186.000 164.200 C 186.220 164.064,186.400 163.513,186.400 162.976 C 186.400 162.439,186.580 162.000,186.800 162.000 C 187.020 162.000,187.200 161.638,187.200 161.195 C 187.200 159.370,188.033 158.800,190.696 158.800 L 193.200 158.800 193.200 266.800 M212.229 159.371 C 212.543 159.686,212.800 160.406,212.800 160.971 C 212.800 161.537,212.980 162.000,213.200 162.000 C 213.420 162.000,213.600 162.439,213.600 162.976 C 213.600 163.513,213.780 164.064,214.000 164.200 C 214.220 164.336,214.400 164.797,214.400 165.224 C 214.400 165.651,214.580 166.000,214.800 166.000 C 215.020 166.000,215.200 166.439,215.200 166.976 C 215.200 167.513,215.380 168.064,215.600 168.200 C 215.820 168.336,216.000 168.797,216.000 169.224 C 216.000 169.651,216.180 170.000,216.400 170.000 C 216.620 170.000,216.800 170.439,216.800 170.976 C 216.800 171.513,216.980 172.064,217.200 172.200 C 217.420 172.336,217.600 172.887,217.600 173.424 C 217.600 173.961,217.780 174.400,218.000 174.400 C 218.220 174.400,218.400 174.760,218.400 175.200 C 218.400 175.640,218.580 176.000,218.800 176.000 C 219.020 176.000,219.200 176.540,219.200 177.200 C 219.200 177.860,219.380 178.400,219.600 178.400 C 219.820 178.400,220.000 178.760,220.000 179.200 C 220.000 179.640,220.180 180.000,220.400 180.000 C 220.620 180.000,220.800 180.540,220.800 181.200 C 220.800 181.860,220.980 182.400,221.200 182.400 C 221.420 182.400,221.600 182.839,221.600 183.376 C 221.600 183.913,221.780 184.464,222.000 184.600 C 222.220 184.736,222.400 185.197,222.400 185.624 C 222.400 186.051,222.580 186.400,222.800 186.400 C 223.020 186.400,223.200 186.839,223.200 187.376 C 223.200 187.913,223.380 188.464,223.600 188.600 C 223.820 188.736,224.000 189.197,224.000 189.624 C 224.000 190.051,224.137 190.400,224.305 190.400 C 224.473 190.400,224.828 191.317,225.095 192.437 C 225.361 193.558,225.825 194.968,226.126 195.571 C 226.426 196.174,226.921 197.507,227.224 198.534 C 227.527 199.560,227.915 200.400,228.087 200.400 C 228.259 200.400,228.400 200.762,228.400 201.205 C 228.400 201.648,228.559 202.323,228.753 202.705 C 228.948 203.087,229.329 203.940,229.600 204.600 C 229.871 205.260,230.252 206.113,230.447 206.495 C 230.641 206.877,230.800 207.552,230.800 207.995 C 230.800 208.438,230.980 208.800,231.200 208.800 C 231.420 208.800,231.600 209.239,231.600 209.776 C 231.600 210.313,231.780 210.864,232.000 211.000 C 232.220 211.136,232.400 211.597,232.400 212.024 C 232.400 212.451,232.580 212.800,232.800 212.800 C 233.020 212.800,233.200 213.340,233.200 214.000 C 233.200 214.660,233.380 215.200,233.600 215.200 C 233.820 215.200,234.000 215.740,234.000 216.400 C 234.000 217.060,234.180 217.600,234.400 217.600 C 234.620 217.600,234.800 218.039,234.800 218.576 C 234.800 219.113,234.980 219.664,235.200 219.800 C 235.420 219.936,235.600 220.397,235.600 220.824 C 235.600 221.251,235.780 221.600,236.000 221.600 C 236.220 221.600,236.400 222.140,236.400 222.800 C 236.400 223.460,236.580 224.000,236.800 224.000 C 237.020 224.000,237.200 224.450,237.200 225.000 C 237.200 225.550,237.380 226.000,237.600 226.000 C 237.820 226.000,238.000 226.540,238.000 227.200 C 238.000 227.860,238.180 228.400,238.400 228.400 C 238.620 228.400,238.800 228.940,238.800 229.600 C 238.800 230.260,238.980 230.800,239.200 230.800 C 239.420 230.800,239.600 231.430,239.600 232.200 C 239.600 232.970,239.780 233.600,240.000 233.600 C 240.220 233.600,240.400 234.230,240.400 235.000 C 240.400 235.770,240.580 236.400,240.800 236.400 C 241.020 236.400,241.200 236.929,241.200 237.576 C 241.200 238.223,241.375 238.861,241.588 238.993 C 241.802 239.125,242.096 240.130,242.241 241.225 C 242.387 242.321,242.662 243.315,242.853 243.433 C 243.044 243.551,243.200 244.166,243.200 244.800 C 243.200 245.434,243.380 246.064,243.600 246.200 C 243.820 246.336,244.000 246.977,244.000 247.624 C 244.000 248.271,244.180 248.800,244.400 248.800 C 244.620 248.800,244.800 249.419,244.800 250.176 C 244.800 250.933,244.980 251.664,245.200 251.800 C 245.420 251.936,245.600 252.566,245.600 253.200 C 245.600 253.834,245.780 254.464,246.000 254.600 C 246.220 254.736,246.400 255.366,246.400 256.000 C 246.400 256.634,246.580 257.264,246.800 257.400 C 247.020 257.536,247.200 258.267,247.200 259.024 C 247.200 259.781,247.380 260.400,247.600 260.400 C 247.820 260.400,248.000 261.120,248.000 262.000 C 248.000 262.880,248.180 263.600,248.400 263.600 C 248.620 263.600,248.800 264.320,248.800 265.200 C 248.800 266.080,248.980 266.800,249.200 266.800 C 249.420 266.800,249.600 267.520,249.600 268.400 C 249.600 269.280,249.780 270.000,250.000 270.000 C 250.220 270.000,250.400 270.619,250.400 271.376 C 250.400 272.133,250.580 272.864,250.800 273.000 C 251.020 273.136,251.200 273.946,251.200 274.800 C 251.200 275.654,251.380 276.464,251.600 276.600 C 251.820 276.736,252.000 277.557,252.000 278.424 C 252.000 279.291,252.180 280.000,252.400 280.000 C 252.620 280.000,252.800 280.720,252.800 281.600 C 252.800 282.480,252.980 283.200,253.200 283.200 C 253.420 283.200,253.600 283.999,253.600 284.976 C 253.600 285.953,253.780 286.864,254.000 287.000 C 254.220 287.136,254.400 287.856,254.400 288.600 C 254.400 289.344,254.580 290.064,254.800 290.200 C 255.020 290.336,255.200 291.146,255.200 292.000 C 255.200 292.854,255.380 293.664,255.600 293.800 C 255.820 293.936,256.000 294.757,256.000 295.624 C 256.000 296.491,256.180 297.200,256.400 297.200 C 256.620 297.200,256.800 297.920,256.800 298.800 C 256.800 299.680,256.980 300.400,257.200 300.400 C 257.420 300.400,257.600 301.180,257.600 302.133 C 257.600 303.087,257.735 304.000,257.900 304.163 C 258.065 304.326,258.416 305.751,258.680 307.329 C 258.944 308.908,259.360 311.100,259.606 312.200 C 259.851 313.300,260.149 314.876,260.268 315.703 C 260.387 316.529,260.645 317.305,260.842 317.426 C 261.039 317.548,261.200 318.346,261.200 319.200 C 261.200 320.054,261.380 320.864,261.600 321.000 C 261.820 321.136,262.000 321.957,262.000 322.824 C 262.000 323.691,262.162 324.400,262.360 324.400 C 262.558 324.400,262.828 325.210,262.960 326.200 C 263.092 327.190,263.308 328.810,263.440 329.800 C 263.572 330.790,263.842 331.600,264.040 331.600 C 264.238 331.600,264.400 332.320,264.400 333.200 C 264.400 334.080,264.580 334.800,264.800 334.800 C 265.020 334.800,265.200 335.610,265.200 336.600 C 265.200 337.590,265.380 338.400,265.600 338.400 C 265.820 338.400,266.000 339.120,266.000 340.000 C 266.000 340.880,266.162 341.600,266.360 341.600 C 266.558 341.600,266.828 342.410,266.960 343.400 C 267.092 344.390,267.308 346.010,267.440 347.000 C 267.572 347.990,267.842 348.800,268.040 348.800 C 268.238 348.800,268.400 349.520,268.400 350.400 C 268.400 351.280,268.580 352.000,268.800 352.000 C 269.020 352.000,269.200 352.810,269.200 353.800 C 269.200 354.790,269.380 355.600,269.600 355.600 C 269.820 355.600,270.000 356.320,270.000 357.200 C 270.000 358.080,270.180 358.800,270.400 358.800 C 270.620 358.800,270.800 359.599,270.800 360.576 C 270.800 361.553,270.980 362.464,271.200 362.600 C 271.420 362.736,271.600 363.557,271.600 364.424 C 271.600 365.291,271.780 366.000,272.000 366.000 C 272.220 366.000,272.400 366.720,272.400 367.600 C 272.400 368.933,272.267 369.200,271.600 369.200 C 271.160 369.200,270.800 369.380,270.800 369.600 C 270.800 369.820,269.821 370.000,268.624 370.000 C 267.427 370.000,266.336 370.180,266.200 370.400 C 266.064 370.620,264.883 370.800,263.576 370.800 C 262.259 370.800,261.200 370.978,261.200 371.200 C 261.200 371.426,260.067 371.600,258.600 371.600 C 257.133 371.600,256.000 371.774,256.000 372.000 C 256.000 372.235,254.608 372.400,252.624 372.400 C 250.767 372.400,249.136 372.580,249.000 372.800 C 248.861 373.025,246.929 373.200,244.576 373.200 C 242.059 373.200,240.400 373.359,240.400 373.600 C 240.400 373.855,237.075 374.000,231.224 374.000 C 225.537 374.000,221.953 374.152,221.800 374.400 C 221.650 374.643,218.663 374.800,214.176 374.800 L 206.800 374.800 206.800 266.800 L 206.800 158.800 209.229 158.800 C 210.800 158.800,211.859 159.002,212.229 159.371 " stroke="none" fill="#22a45d" fill-rule="evenodd"></path><path id="path1" d="" stroke="none" fill="#22a45d" fill-rule="evenodd"></path><path id="path2" d="" stroke="none" fill="#080404" fill-rule="evenodd"></path><path id="path3" d="" stroke="none" fill="#080404" fill-rule="evenodd"></path><path id="path4" d="" stroke="none" fill="#080404" fill-rule="evenodd"></path></g></svg>