<svg id="svg" version="1.1" xmlns="http://www.w3.org/2000/svg" xmlns:xlink="http://www.w3.org/1999/xlink" width="400" height="400" viewBox="0, 0, 400,400"><g id="svgg"><path id="path0" d="M121.700 0.288 C 120.325 0.371,119.200 0.610,119.200 0.819 C 119.200 1.029,118.491 1.200,117.624 1.200 C 116.757 1.200,115.936 1.380,115.800 1.600 C 115.664 1.820,114.933 2.000,114.176 2.000 C 113.419 2.000,112.800 2.180,112.800 2.400 C 112.800 2.620,112.260 2.800,111.600 2.800 C 110.940 2.800,110.400 2.980,110.400 3.200 C 110.400 3.420,109.950 3.600,109.400 3.600 C 108.850 3.600,108.400 3.780,108.400 4.000 C 108.400 4.220,108.051 4.400,107.624 4.400 C 107.197 4.400,106.736 4.580,106.600 4.800 C 106.464 5.020,105.913 5.200,105.376 5.200 C 104.839 5.200,104.400 5.380,104.400 5.600 C 104.400 5.820,104.040 6.000,103.600 6.000 C 103.160 6.000,102.800 6.180,102.800 6.400 C 102.800 6.620,102.440 6.800,102.000 6.800 C 101.560 6.800,101.200 6.959,101.200 7.153 C 101.200 7.347,100.255 7.959,99.100 8.512 C 97.945 9.066,96.603 9.897,96.117 10.359 C 95.631 10.822,95.086 11.200,94.907 11.200 C 94.382 11.200,85.600 20.376,85.600 20.925 C 85.600 21.199,85.240 21.683,84.800 22.000 C 84.360 22.317,84.000 22.857,84.000 23.200 C 84.000 23.543,83.640 24.083,83.200 24.400 C 82.760 24.717,82.400 25.297,82.400 25.688 C 82.400 26.080,82.264 26.400,82.098 26.400 C 81.931 26.400,81.556 26.985,81.264 27.700 C 80.141 30.450,79.896 31.022,79.553 31.695 C 79.359 32.077,79.200 32.752,79.200 33.195 C 79.200 33.638,79.020 34.000,78.800 34.000 C 78.580 34.000,78.400 34.720,78.400 35.600 C 78.400 36.480,78.220 37.200,78.000 37.200 C 77.780 37.200,77.600 37.920,77.600 38.800 C 77.600 39.680,77.438 40.400,77.240 40.400 C 77.042 40.400,76.790 41.165,76.679 42.100 C 76.569 43.035,76.179 45.330,75.814 47.200 C 75.146 50.621,75.509 56.295,76.465 57.380 C 76.649 57.589,76.800 58.174,76.800 58.680 C 76.800 59.186,76.980 59.600,77.200 59.600 C 77.420 59.600,77.600 59.960,77.600 60.400 C 77.600 60.840,77.780 61.200,78.000 61.200 C 78.220 61.200,78.400 61.560,78.400 62.000 C 78.400 62.440,78.580 62.800,78.800 62.800 C 79.020 62.800,79.200 63.054,79.200 63.363 C 79.200 64.036,85.752 70.800,86.404 70.800 C 86.653 70.800,87.136 71.079,87.477 71.420 C 87.818 71.760,88.615 72.143,89.248 72.270 C 89.882 72.396,90.400 72.637,90.400 72.803 C 90.400 73.113,91.075 73.319,94.600 74.083 C 95.776 74.338,103.315 74.580,112.900 74.671 L 129.200 74.826 129.200 86.389 C 129.200 94.340,129.063 98.037,128.762 98.224 C 128.486 98.394,128.427 99.035,128.602 99.947 C 128.756 100.746,128.964 103.425,129.065 105.900 C 129.166 108.375,129.418 110.400,129.624 110.400 C 129.831 110.400,130.000 111.379,130.000 112.576 C 130.000 113.773,130.180 114.864,130.400 115.000 C 130.620 115.136,130.800 115.946,130.800 116.800 C 130.800 117.654,130.980 118.464,131.200 118.600 C 131.420 118.736,131.600 119.456,131.600 120.200 C 131.600 120.944,131.780 121.664,132.000 121.800 C 132.220 121.936,132.400 122.566,132.400 123.200 C 132.400 123.834,132.580 124.464,132.800 124.600 C 133.020 124.736,133.200 125.276,133.200 125.800 C 133.200 126.324,133.380 126.864,133.600 127.000 C 133.820 127.136,134.000 127.867,134.000 128.624 C 134.000 129.381,134.180 130.000,134.400 130.000 C 134.620 130.000,134.800 130.362,134.800 130.805 C 134.800 131.248,134.980 131.968,135.200 132.405 C 135.420 132.842,135.780 133.558,136.000 133.995 C 136.220 134.432,136.400 135.141,136.400 135.571 C 136.400 136.001,136.580 136.464,136.800 136.600 C 137.020 136.736,137.200 137.377,137.200 138.024 C 137.200 138.671,137.380 139.200,137.600 139.200 C 137.820 139.200,138.000 139.920,138.000 140.800 C 138.000 141.680,138.180 142.400,138.400 142.400 C 138.620 142.400,138.800 143.120,138.800 144.000 C 138.800 144.880,138.980 145.600,139.200 145.600 C 139.420 145.600,139.600 146.590,139.600 147.800 C 139.600 149.010,139.780 150.000,140.000 150.000 C 140.225 150.000,140.400 151.125,140.400 152.576 C 140.400 153.993,140.580 155.264,140.800 155.400 C 141.020 155.536,141.200 156.752,141.200 158.102 C 141.200 159.453,141.397 162.578,141.638 165.048 L 142.077 169.538 139.538 172.131 C 135.660 176.093,133.200 178.910,133.200 179.390 C 133.200 179.628,132.840 180.083,132.400 180.400 C 131.960 180.717,131.600 181.162,131.599 181.388 C 131.599 181.615,131.059 182.430,130.400 183.200 C 129.741 183.970,129.201 184.825,129.201 185.100 C 129.200 185.375,129.020 185.600,128.800 185.600 C 128.580 185.600,128.400 185.878,128.400 186.217 C 128.400 186.556,128.040 187.220,127.600 187.692 C 127.160 188.164,126.800 188.787,126.800 189.075 C 126.800 189.364,126.620 189.600,126.400 189.600 C 126.180 189.600,126.000 189.938,126.000 190.351 C 126.000 190.764,125.767 191.295,125.482 191.532 C 125.197 191.768,124.714 192.600,124.408 193.381 C 124.101 194.161,123.704 194.800,123.525 194.800 C 123.346 194.800,123.200 195.160,123.200 195.600 C 123.200 196.040,123.020 196.400,122.800 196.400 C 122.580 196.400,122.400 196.760,122.400 197.200 C 122.400 197.640,122.220 198.000,122.000 198.000 C 121.780 198.000,121.600 198.360,121.600 198.800 C 121.600 199.240,121.420 199.600,121.200 199.600 C 120.980 199.600,120.800 199.960,120.800 200.400 C 120.800 200.840,120.620 201.200,120.400 201.200 C 120.180 201.200,120.000 201.560,120.000 202.000 C 120.000 202.440,119.820 202.800,119.600 202.800 C 119.380 202.800,119.200 203.149,119.200 203.576 C 119.200 204.003,119.020 204.464,118.800 204.600 C 118.580 204.736,118.400 205.287,118.400 205.824 C 118.400 206.361,118.220 206.800,118.000 206.800 C 117.780 206.800,117.600 207.160,117.600 207.600 C 117.600 208.040,117.420 208.400,117.200 208.400 C 116.980 208.400,116.800 208.749,116.800 209.176 C 116.800 209.603,116.620 210.064,116.400 210.200 C 116.180 210.336,116.000 210.797,116.000 211.224 C 116.000 211.651,115.820 212.000,115.600 212.000 C 115.380 212.000,115.200 212.349,115.200 212.776 C 115.200 213.203,115.020 213.664,114.800 213.800 C 114.580 213.936,114.400 214.487,114.400 215.024 C 114.400 215.561,114.253 216.000,114.072 216.000 C 113.892 216.000,113.500 216.900,113.200 218.000 C 112.900 219.100,112.508 220.000,112.328 220.000 C 112.147 220.000,112.000 220.540,112.000 221.200 C 112.000 221.860,111.820 222.400,111.600 222.400 C 111.380 222.400,111.200 222.762,111.200 223.205 C 111.200 223.648,111.027 224.323,110.815 224.705 C 110.075 226.040,108.400 231.256,108.400 232.224 C 108.400 232.761,108.220 233.200,108.000 233.200 C 107.780 233.200,107.600 233.740,107.600 234.400 C 107.600 235.060,107.420 235.600,107.200 235.600 C 106.980 235.600,106.800 236.219,106.800 236.976 C 106.800 237.733,106.620 238.464,106.400 238.600 C 106.180 238.736,106.000 239.377,106.000 240.024 C 106.000 240.671,105.820 241.200,105.600 241.200 C 105.380 241.200,105.200 241.639,105.200 242.176 C 105.200 242.713,105.020 243.264,104.800 243.400 C 104.580 243.536,104.400 244.177,104.400 244.824 C 104.400 245.471,104.220 246.000,104.000 246.000 C 103.780 246.000,103.600 246.630,103.600 247.400 C 103.600 248.170,103.420 248.800,103.200 248.800 C 102.980 248.800,102.800 249.419,102.800 250.176 C 102.800 250.933,102.620 251.664,102.400 251.800 C 102.180 251.936,102.000 252.577,102.000 253.224 C 102.000 253.871,101.820 254.400,101.600 254.400 C 101.380 254.400,101.200 255.120,101.200 256.000 C 101.200 256.880,101.020 257.600,100.800 257.600 C 100.580 257.600,100.400 258.230,100.400 259.000 C 100.400 259.770,100.220 260.400,100.000 260.400 C 99.780 260.400,99.600 261.030,99.600 261.800 C 99.600 262.570,99.420 263.200,99.200 263.200 C 98.980 263.200,98.800 263.819,98.800 264.576 C 98.800 265.333,98.620 266.064,98.400 266.200 C 98.180 266.336,98.000 267.056,98.000 267.800 C 98.000 268.544,97.839 269.252,97.642 269.374 C 97.213 269.639,96.822 271.961,96.542 275.920 L 96.335 278.841 98.115 280.620 L 99.895 282.400 103.147 282.400 C 105.049 282.400,106.400 282.234,106.400 282.000 C 106.400 281.780,106.604 281.600,106.853 281.600 C 107.525 281.600,108.800 279.988,108.800 279.139 C 108.800 278.732,108.980 278.400,109.200 278.400 C 109.420 278.400,109.600 277.680,109.600 276.800 C 109.600 275.920,109.780 275.200,110.000 275.200 C 110.220 275.200,110.400 274.581,110.400 273.824 C 110.400 273.067,110.580 272.336,110.800 272.200 C 111.020 272.064,111.200 271.333,111.200 270.576 C 111.200 269.819,111.380 269.200,111.600 269.200 C 111.820 269.200,112.000 268.480,112.000 267.600 C 112.000 266.720,112.180 266.000,112.400 266.000 C 112.620 266.000,112.800 265.280,112.800 264.400 C 112.800 263.520,112.980 262.800,113.200 262.800 C 113.420 262.800,113.600 262.080,113.600 261.200 C 113.600 260.320,113.780 259.600,114.000 259.600 C 114.220 259.600,114.400 259.060,114.400 258.400 C 114.400 257.740,114.580 257.200,114.800 257.200 C 115.020 257.200,115.200 256.570,115.200 255.800 C 115.200 255.030,115.380 254.400,115.600 254.400 C 115.820 254.400,116.000 253.871,116.000 253.224 C 116.000 252.577,116.180 251.936,116.400 251.800 C 116.620 251.664,116.800 250.933,116.800 250.176 C 116.800 249.419,116.980 248.800,117.200 248.800 C 117.420 248.800,117.600 248.260,117.600 247.600 C 117.600 246.940,117.780 246.400,118.000 246.400 C 118.220 246.400,118.400 246.008,118.400 245.528 C 118.400 244.608,119.060 242.272,119.649 241.105 C 119.842 240.723,120.000 240.059,120.000 239.629 C 120.000 239.199,120.180 238.736,120.400 238.600 C 120.620 238.464,120.800 237.913,120.800 237.376 C 120.800 236.839,120.980 236.400,121.200 236.400 C 121.420 236.400,121.600 235.860,121.600 235.200 C 121.600 234.540,121.780 234.000,122.000 234.000 C 122.220 234.000,122.400 233.460,122.400 232.800 C 122.400 232.140,122.580 231.600,122.800 231.600 C 123.020 231.600,123.200 231.060,123.200 230.400 C 123.200 229.740,123.340 229.200,123.511 229.200 C 123.855 229.200,125.200 224.962,125.200 223.880 C 125.200 223.506,125.380 223.200,125.600 223.200 C 125.820 223.200,126.000 222.750,126.000 222.200 C 126.000 221.650,126.180 221.200,126.400 221.200 C 126.620 221.200,126.800 220.750,126.800 220.200 C 126.800 219.650,126.980 219.200,127.200 219.200 C 127.420 219.200,127.600 218.840,127.600 218.400 C 127.600 217.960,127.780 217.600,128.000 217.600 C 128.220 217.600,128.400 217.060,128.400 216.400 C 128.400 215.740,128.580 215.200,128.800 215.200 C 129.020 215.200,129.200 214.840,129.200 214.400 C 129.200 213.960,129.380 213.600,129.600 213.600 C 129.820 213.600,130.000 213.240,130.000 212.800 C 130.000 212.360,130.180 212.000,130.400 212.000 C 130.620 212.000,130.800 211.657,130.800 211.238 C 130.800 210.422,132.401 207.088,132.900 206.867 C 133.065 206.793,133.200 206.388,133.200 205.967 C 133.200 205.545,133.380 205.200,133.600 205.200 C 133.820 205.200,134.000 204.840,134.000 204.400 C 134.000 203.960,134.180 203.600,134.400 203.600 C 134.620 203.600,134.800 203.240,134.800 202.800 C 134.800 202.360,134.980 202.000,135.200 202.000 C 135.420 202.000,135.600 201.640,135.600 201.200 C 135.600 200.760,135.780 200.400,136.000 200.400 C 136.220 200.400,136.400 200.040,136.400 199.600 C 136.400 199.160,136.558 198.800,136.751 198.800 C 136.945 198.800,137.327 198.260,137.600 197.600 C 137.873 196.940,138.255 196.400,138.449 196.400 C 138.642 196.400,138.800 196.040,138.800 195.600 C 138.800 195.160,138.958 194.800,139.151 194.800 C 139.345 194.800,139.727 194.260,140.000 193.600 C 140.273 192.940,140.652 192.400,140.841 192.400 C 141.030 192.400,141.298 191.950,141.436 191.400 C 141.574 190.850,141.847 190.400,142.043 190.400 C 142.240 190.400,142.400 190.130,142.400 189.800 C 142.400 189.470,142.580 189.200,142.800 189.200 C 143.020 189.200,143.200 189.002,143.200 188.760 C 143.200 188.519,143.740 187.817,144.400 187.200 C 145.060 186.583,145.600 185.900,145.600 185.681 C 145.600 185.461,146.938 183.914,148.573 182.241 L 151.545 179.200 153.773 179.200 C 155.733 179.200,156.000 179.296,156.000 180.000 C 156.000 180.440,155.820 180.800,155.600 180.800 C 155.380 180.800,155.200 181.160,155.200 181.600 C 155.200 182.040,155.020 182.400,154.800 182.400 C 154.580 182.400,154.400 182.940,154.400 183.600 C 154.400 184.260,154.220 184.800,154.000 184.800 C 153.780 184.800,153.600 185.160,153.600 185.600 C 153.600 186.040,153.420 186.400,153.200 186.400 C 152.980 186.400,152.800 186.760,152.800 187.200 C 152.800 187.640,152.620 188.000,152.400 188.000 C 152.180 188.000,152.000 188.540,152.000 189.200 C 152.000 189.860,151.820 190.400,151.600 190.400 C 151.380 190.400,151.200 190.760,151.200 191.200 C 151.200 191.640,151.020 192.000,150.800 192.000 C 150.580 192.000,150.400 192.450,150.400 193.000 C 150.400 193.550,150.220 194.000,150.000 194.000 C 149.780 194.000,149.600 194.439,149.600 194.976 C 149.600 195.513,149.420 196.064,149.200 196.200 C 148.980 196.336,148.800 196.797,148.800 197.224 C 148.800 197.651,148.620 198.000,148.400 198.000 C 148.180 198.000,148.000 198.540,148.000 199.200 C 148.000 199.860,147.820 200.400,147.600 200.400 C 147.380 200.400,147.200 200.940,147.200 201.600 C 147.200 202.260,147.020 202.800,146.800 202.800 C 146.580 202.800,146.400 203.340,146.400 204.000 C 146.400 204.660,146.220 205.200,146.000 205.200 C 145.780 205.200,145.600 205.740,145.600 206.400 C 145.600 207.060,145.420 207.600,145.200 207.600 C 144.980 207.600,144.800 208.039,144.800 208.576 C 144.800 209.113,144.620 209.664,144.400 209.800 C 144.180 209.936,144.000 210.476,144.000 211.000 C 144.000 211.524,143.841 212.051,143.646 212.171 C 143.451 212.292,143.197 212.887,143.080 213.495 C 142.963 214.103,142.572 215.770,142.211 217.200 C 141.849 218.630,141.454 220.385,141.333 221.100 C 141.212 221.815,140.952 222.400,140.756 222.400 C 140.560 222.400,140.400 223.120,140.400 224.000 C 140.400 224.880,140.220 225.600,140.000 225.600 C 139.780 225.600,139.600 226.230,139.600 227.000 C 139.600 227.770,139.420 228.400,139.200 228.400 C 138.980 228.400,138.800 229.019,138.800 229.776 C 138.800 230.533,138.620 231.264,138.400 231.400 C 138.180 231.536,138.000 232.357,138.000 233.224 C 138.000 234.091,137.820 234.800,137.600 234.800 C 137.380 234.800,137.200 235.520,137.200 236.400 C 137.200 237.280,137.020 238.000,136.800 238.000 C 136.580 238.000,136.400 238.720,136.400 239.600 C 136.400 240.480,136.220 241.200,136.000 241.200 C 135.780 241.200,135.600 241.920,135.600 242.800 C 135.600 243.680,135.420 244.400,135.200 244.400 C 134.980 244.400,134.800 245.109,134.800 245.976 C 134.800 246.843,134.620 247.664,134.400 247.800 C 134.180 247.936,134.000 248.757,134.000 249.624 C 134.000 250.491,133.820 251.200,133.600 251.200 C 133.380 251.200,133.200 251.999,133.200 252.976 C 133.200 253.953,133.020 254.864,132.800 255.000 C 132.580 255.136,132.400 255.957,132.400 256.824 C 132.400 257.691,132.220 258.400,132.000 258.400 C 131.780 258.400,131.600 259.199,131.600 260.176 C 131.600 261.153,131.420 262.064,131.200 262.200 C 130.980 262.336,130.800 263.146,130.800 264.000 C 130.800 264.854,130.620 265.664,130.400 265.800 C 130.180 265.936,130.000 266.746,130.000 267.600 C 130.000 268.454,129.820 269.264,129.600 269.400 C 129.380 269.536,129.200 270.447,129.200 271.424 C 129.200 272.401,129.020 273.200,128.800 273.200 C 128.580 273.200,128.400 274.100,128.400 275.200 C 128.400 276.300,128.237 277.200,128.039 277.200 C 127.840 277.200,127.580 278.055,127.460 279.100 C 127.341 280.145,127.053 282.035,126.822 283.300 C 125.825 288.737,125.560 290.412,125.111 294.100 C 124.851 296.245,124.494 298.000,124.319 298.000 C 124.143 298.000,124.000 299.069,124.000 300.376 C 124.000 301.683,123.820 302.864,123.600 303.000 C 123.380 303.136,123.200 304.407,123.200 305.824 C 123.200 307.275,123.025 308.400,122.800 308.400 C 122.580 308.400,122.400 309.390,122.400 310.600 C 122.400 311.810,122.580 312.800,122.800 312.800 C 123.020 312.800,123.200 313.700,123.200 314.800 C 123.200 315.900,123.380 316.800,123.600 316.800 C 123.820 316.800,124.000 317.072,124.000 317.405 C 124.000 317.738,124.160 318.323,124.356 318.705 C 124.551 319.087,125.046 320.118,125.456 320.996 C 126.294 322.793,130.925 327.600,131.818 327.600 C 132.138 327.600,132.400 327.780,132.400 328.000 C 132.400 328.220,132.760 328.400,133.200 328.400 C 133.640 328.400,134.000 328.580,134.000 328.800 C 134.000 329.020,134.360 329.200,134.800 329.200 C 135.240 329.200,135.600 329.380,135.600 329.600 C 135.600 329.820,136.140 330.000,136.800 330.000 C 137.460 330.000,138.000 330.180,138.000 330.400 C 138.000 330.622,139.067 330.800,140.400 330.800 C 141.733 330.800,142.800 330.978,142.800 331.200 C 142.800 331.420,143.430 331.600,144.200 331.600 C 144.970 331.600,145.600 331.420,145.600 331.200 C 145.600 330.978,146.667 330.800,148.000 330.800 C 149.333 330.800,150.400 330.622,150.400 330.400 C 150.400 330.180,150.940 330.000,151.600 330.000 C 152.260 330.000,152.800 329.820,152.800 329.600 C 152.800 329.380,153.160 329.200,153.600 329.200 C 154.040 329.200,154.400 329.020,154.400 328.800 C 154.400 328.580,154.720 328.400,155.112 328.400 C 155.503 328.400,156.083 328.040,156.400 327.600 C 156.717 327.160,157.192 326.800,157.455 326.800 C 157.718 326.800,158.024 326.575,158.135 326.300 C 158.284 325.932,158.345 325.927,158.368 326.281 C 158.408 326.890,161.735 329.200,162.572 329.200 C 162.917 329.200,163.200 329.380,163.200 329.600 C 163.200 329.820,163.650 330.000,164.200 330.000 C 164.750 330.000,165.200 330.180,165.200 330.400 C 165.200 330.622,166.267 330.800,167.600 330.800 C 168.933 330.800,170.000 330.978,170.000 331.200 C 170.000 331.420,170.810 331.600,171.800 331.600 C 172.790 331.600,173.600 331.420,173.600 331.200 C 173.600 330.978,174.667 330.800,176.000 330.800 C 177.333 330.800,178.400 330.622,178.400 330.400 C 178.400 330.180,178.839 330.000,179.376 330.000 C 179.913 330.000,180.464 329.820,180.600 329.600 C 180.736 329.380,181.197 329.200,181.624 329.200 C 182.051 329.200,182.400 329.020,182.400 328.800 C 182.400 328.580,182.670 328.400,183.000 328.400 C 183.330 328.400,183.600 328.220,183.600 328.000 C 183.600 327.780,183.870 327.600,184.200 327.600 C 184.530 327.600,184.800 327.420,184.800 327.200 C 184.800 326.461,187.006 326.776,187.600 327.600 C 187.917 328.040,188.497 328.400,188.888 328.400 C 189.280 328.400,189.600 328.580,189.600 328.800 C 189.600 329.020,189.960 329.200,190.400 329.200 C 190.840 329.200,191.200 329.380,191.200 329.600 C 191.200 329.820,191.639 330.000,192.176 330.000 C 192.713 330.000,193.264 330.180,193.400 330.400 C 193.536 330.620,194.627 330.800,195.824 330.800 C 197.021 330.800,198.000 330.980,198.000 331.200 C 198.000 331.420,198.709 331.600,199.576 331.600 C 200.443 331.600,201.264 331.420,201.400 331.200 C 201.536 330.980,202.627 330.800,203.824 330.800 C 205.021 330.800,206.000 330.620,206.000 330.400 C 206.000 330.180,206.324 330.000,206.720 330.000 C 207.614 330.000,209.593 329.106,209.597 328.700 C 209.599 328.535,209.960 328.400,210.400 328.400 C 210.840 328.400,211.200 328.220,211.200 328.000 C 211.200 327.780,211.560 327.600,212.000 327.600 C 212.440 327.600,212.800 327.420,212.800 327.200 C 212.800 326.980,213.160 326.800,213.600 326.800 C 214.040 326.800,214.400 326.980,214.400 327.200 C 214.400 327.420,214.760 327.600,215.200 327.600 C 215.640 327.600,216.000 327.780,216.000 328.000 C 216.000 328.220,216.270 328.400,216.600 328.400 C 216.930 328.400,217.200 328.580,217.200 328.800 C 217.200 329.020,217.650 329.200,218.200 329.200 C 218.750 329.200,219.200 329.380,219.200 329.600 C 219.200 329.820,219.549 330.000,219.976 330.000 C 220.403 330.000,220.864 330.180,221.000 330.400 C 221.136 330.620,222.227 330.800,223.424 330.800 C 224.621 330.800,225.600 330.980,225.600 331.200 C 225.600 331.420,226.410 331.600,227.400 331.600 C 228.390 331.600,229.200 331.420,229.200 331.200 C 229.200 330.978,230.267 330.800,231.600 330.800 C 232.933 330.800,234.000 330.622,234.000 330.400 C 234.000 330.180,234.540 330.000,235.200 330.000 C 235.860 330.000,236.400 329.820,236.400 329.600 C 236.400 329.380,236.760 329.200,237.200 329.200 C 237.640 329.200,238.000 329.020,238.000 328.800 C 238.000 328.580,238.225 328.400,238.500 328.400 C 238.775 328.399,239.510 327.961,240.133 327.425 C 241.187 326.518,242.400 326.421,242.400 327.243 C 242.400 327.439,242.670 327.600,243.000 327.600 C 243.330 327.600,243.600 327.780,243.600 328.000 C 243.600 328.220,243.870 328.400,244.200 328.400 C 244.530 328.400,244.800 328.580,244.800 328.800 C 244.800 329.020,245.160 329.200,245.600 329.200 C 246.040 329.200,246.400 329.380,246.400 329.600 C 246.400 329.820,246.940 330.000,247.600 330.000 C 248.260 330.000,248.800 330.180,248.800 330.400 C 248.800 330.622,249.867 330.800,251.200 330.800 C 252.533 330.800,253.600 330.978,253.600 331.200 C 253.600 331.722,256.678 331.722,257.000 331.200 C 257.136 330.980,258.139 330.800,259.229 330.800 C 260.319 330.800,261.523 330.641,261.905 330.447 C 262.287 330.252,263.095 329.892,263.700 329.647 C 265.912 328.748,266.800 328.257,266.800 327.932 C 266.800 327.750,267.062 327.600,267.383 327.600 C 269.235 327.600,275.200 320.162,275.200 317.851 C 275.200 317.273,275.380 316.800,275.600 316.800 C 275.820 316.800,276.000 316.181,276.000 315.424 C 276.000 314.667,276.180 313.936,276.400 313.800 C 276.620 313.664,276.800 311.954,276.800 310.000 C 276.800 308.046,276.620 306.336,276.400 306.200 C 276.180 306.064,276.000 304.883,276.000 303.576 C 276.000 302.269,275.846 301.200,275.657 301.200 C 275.468 301.200,275.186 299.186,275.031 296.725 C 274.875 294.263,274.579 291.935,274.374 291.551 C 274.168 291.167,274.000 290.131,274.000 289.250 C 274.000 288.368,273.820 287.536,273.600 287.400 C 273.380 287.264,273.200 286.209,273.200 285.056 C 273.200 283.903,273.037 282.789,272.839 282.580 C 272.640 282.371,272.370 281.345,272.239 280.300 C 272.107 279.255,271.893 277.545,271.761 276.500 C 271.630 275.455,271.360 274.429,271.161 274.220 C 270.963 274.011,270.800 272.976,270.800 271.920 C 270.800 270.864,270.620 270.000,270.400 270.000 C 270.180 270.000,270.000 269.201,270.000 268.224 C 270.000 267.247,269.820 266.336,269.600 266.200 C 269.380 266.064,269.200 265.153,269.200 264.176 C 269.200 263.199,269.020 262.400,268.800 262.400 C 268.580 262.400,268.400 261.601,268.400 260.624 C 268.400 259.647,268.220 258.736,268.000 258.600 C 267.780 258.464,267.600 257.643,267.600 256.776 C 267.600 255.909,267.420 255.200,267.200 255.200 C 266.980 255.200,266.800 254.401,266.800 253.424 C 266.800 252.447,266.620 251.536,266.400 251.400 C 266.180 251.264,266.000 250.443,266.000 249.576 C 266.000 248.709,265.820 248.000,265.600 248.000 C 265.380 248.000,265.200 247.291,265.200 246.424 C 265.200 245.557,265.020 244.736,264.800 244.600 C 264.580 244.464,264.400 243.643,264.400 242.776 C 264.400 241.909,264.220 241.200,264.000 241.200 C 263.780 241.200,263.600 240.480,263.600 239.600 C 263.600 238.720,263.420 238.000,263.200 238.000 C 262.980 238.000,262.800 237.280,262.800 236.400 C 262.800 235.520,262.620 234.800,262.400 234.800 C 262.180 234.800,262.000 234.080,262.000 233.200 C 262.000 232.320,261.820 231.600,261.600 231.600 C 261.380 231.600,261.200 230.880,261.200 230.000 C 261.200 229.120,261.020 228.400,260.800 228.400 C 260.580 228.400,260.400 227.770,260.400 227.000 C 260.400 226.230,260.220 225.600,260.000 225.600 C 259.780 225.600,259.600 225.071,259.600 224.424 C 259.600 223.777,259.444 223.151,259.253 223.033 C 259.062 222.914,258.783 221.739,258.634 220.421 C 258.485 219.103,258.191 217.918,257.982 217.789 C 257.772 217.659,257.600 217.171,257.600 216.705 C 257.600 215.804,256.935 213.461,256.351 212.305 C 256.158 211.923,256.000 211.259,256.000 210.829 C 256.000 210.399,255.820 209.936,255.600 209.800 C 255.380 209.664,255.200 209.113,255.200 208.576 C 255.200 208.039,255.020 207.600,254.800 207.600 C 254.580 207.600,254.400 207.060,254.400 206.400 C 254.400 205.740,254.220 205.200,254.000 205.200 C 253.780 205.200,253.600 204.660,253.600 204.000 C 253.600 203.340,253.420 202.800,253.200 202.800 C 252.980 202.800,252.800 202.260,252.800 201.600 C 252.800 200.940,252.620 200.400,252.400 200.400 C 252.180 200.400,252.000 199.860,252.000 199.200 C 252.000 198.540,251.820 198.000,251.600 198.000 C 251.380 198.000,251.200 197.651,251.200 197.224 C 251.200 196.797,251.020 196.336,250.800 196.200 C 250.580 196.064,250.400 195.513,250.400 194.976 C 250.400 194.439,250.220 194.000,250.000 194.000 C 249.780 194.000,249.600 193.550,249.600 193.000 C 249.600 192.450,249.420 192.000,249.200 192.000 C 248.980 192.000,248.800 191.640,248.800 191.200 C 248.800 190.760,248.620 190.400,248.400 190.400 C 248.180 190.400,248.000 189.860,248.000 189.200 C 248.000 188.540,247.820 188.000,247.600 188.000 C 247.380 188.000,247.200 187.640,247.200 187.200 C 247.200 186.760,247.020 186.400,246.800 186.400 C 246.580 186.400,246.400 186.051,246.400 185.624 C 246.400 185.197,246.220 184.736,246.000 184.600 C 245.780 184.464,245.600 183.913,245.600 183.376 C 245.600 182.839,245.420 182.400,245.200 182.400 C 244.980 182.400,244.800 182.040,244.800 181.600 C 244.800 181.160,244.620 180.800,244.400 180.800 C 244.180 180.800,244.000 180.440,244.000 180.000 C 244.000 179.297,244.267 179.200,246.207 179.200 C 248.555 179.200,251.560 181.552,254.385 185.600 C 254.922 186.370,255.686 187.291,256.081 187.647 C 256.476 188.003,256.800 188.498,256.800 188.747 C 256.800 188.996,256.980 189.200,257.200 189.200 C 257.420 189.200,257.600 189.470,257.600 189.800 C 257.600 190.130,257.741 190.400,257.914 190.400 C 258.087 190.400,258.762 191.389,259.414 192.599 C 260.066 193.808,260.735 194.798,260.900 194.799 C 261.065 194.799,261.200 195.160,261.200 195.600 C 261.200 196.040,261.358 196.400,261.551 196.400 C 261.745 196.400,262.127 196.940,262.400 197.600 C 262.673 198.260,263.055 198.800,263.249 198.800 C 263.442 198.800,263.600 199.160,263.600 199.600 C 263.600 200.040,263.780 200.400,264.000 200.400 C 264.220 200.400,264.400 200.760,264.400 201.200 C 264.400 201.640,264.580 202.000,264.800 202.000 C 265.020 202.000,265.200 202.360,265.200 202.800 C 265.200 203.240,265.380 203.600,265.600 203.600 C 265.820 203.600,266.000 203.960,266.000 204.400 C 266.000 204.840,266.135 205.201,266.300 205.201 C 266.465 205.202,267.050 206.192,267.600 207.400 C 268.150 208.608,268.735 209.598,268.900 209.599 C 269.065 209.599,269.200 210.039,269.200 210.576 C 269.200 211.113,269.380 211.664,269.600 211.800 C 269.820 211.936,270.000 212.397,270.000 212.824 C 270.000 213.251,270.180 213.600,270.400 213.600 C 270.620 213.600,270.800 213.960,270.800 214.400 C 270.800 214.840,270.980 215.200,271.200 215.200 C 271.420 215.200,271.600 215.740,271.600 216.400 C 271.600 217.060,271.780 217.600,272.000 217.600 C 272.220 217.600,272.400 217.960,272.400 218.400 C 272.400 218.840,272.580 219.200,272.800 219.200 C 273.020 219.200,273.200 219.639,273.200 220.176 C 273.200 220.713,273.380 221.264,273.600 221.400 C 273.820 221.536,274.000 221.997,274.000 222.424 C 274.000 222.851,274.180 223.200,274.400 223.200 C 274.620 223.200,274.800 223.499,274.800 223.865 C 274.800 224.828,276.134 228.976,276.494 229.133 C 276.662 229.207,276.800 229.792,276.800 230.433 C 276.800 231.075,276.980 231.600,277.200 231.600 C 277.420 231.600,277.600 232.140,277.600 232.800 C 277.600 233.460,277.780 234.000,278.000 234.000 C 278.220 234.000,278.400 234.540,278.400 235.200 C 278.400 235.860,278.580 236.400,278.800 236.400 C 279.020 236.400,279.200 236.839,279.200 237.376 C 279.200 237.913,279.380 238.464,279.600 238.600 C 279.820 238.736,280.000 239.276,280.000 239.800 C 280.000 240.324,280.180 240.864,280.400 241.000 C 280.620 241.136,280.800 241.766,280.800 242.400 C 280.800 243.034,280.980 243.664,281.200 243.800 C 281.420 243.936,281.600 244.577,281.600 245.224 C 281.600 245.871,281.780 246.400,282.000 246.400 C 282.220 246.400,282.400 246.940,282.400 247.600 C 282.400 248.260,282.580 248.800,282.800 248.800 C 283.020 248.800,283.200 249.419,283.200 250.176 C 283.200 250.933,283.380 251.664,283.600 251.800 C 283.820 251.936,284.000 252.577,284.000 253.224 C 284.000 253.871,284.180 254.400,284.400 254.400 C 284.620 254.400,284.800 255.030,284.800 255.800 C 284.800 256.570,284.980 257.200,285.200 257.200 C 285.420 257.200,285.600 257.740,285.600 258.400 C 285.600 259.060,285.780 259.600,286.000 259.600 C 286.220 259.600,286.400 260.320,286.400 261.200 C 286.400 262.080,286.580 262.800,286.800 262.800 C 287.020 262.800,287.200 263.520,287.200 264.400 C 287.200 265.280,287.380 266.000,287.600 266.000 C 287.820 266.000,288.000 266.720,288.000 267.600 C 288.000 268.480,288.180 269.200,288.400 269.200 C 288.620 269.200,288.800 269.819,288.800 270.576 C 288.800 271.333,288.980 272.064,289.200 272.200 C 289.420 272.336,289.600 273.067,289.600 273.824 C 289.600 274.581,289.780 275.200,290.000 275.200 C 290.220 275.200,290.400 275.920,290.400 276.800 C 290.400 277.680,290.557 278.400,290.749 278.400 C 290.941 278.400,291.208 279.255,291.342 280.300 C 291.599 282.302,292.554 287.368,293.247 290.400 C 293.473 291.390,293.753 292.965,293.869 293.900 C 293.986 294.835,294.242 295.600,294.440 295.600 C 294.638 295.600,294.800 296.500,294.800 297.600 C 294.800 298.700,294.980 299.600,295.200 299.600 C 295.420 299.600,295.600 300.399,295.600 301.376 C 295.600 302.353,295.780 303.264,296.000 303.400 C 296.220 303.536,296.400 304.447,296.400 305.424 C 296.400 306.401,296.580 307.200,296.800 307.200 C 297.020 307.200,297.200 308.100,297.200 309.200 C 297.200 310.300,297.380 311.200,297.600 311.200 C 297.820 311.200,298.000 312.100,298.000 313.200 C 298.000 314.300,298.180 315.200,298.400 315.200 C 298.620 315.200,298.800 316.089,298.800 317.176 C 298.800 318.263,298.980 319.264,299.200 319.400 C 299.420 319.536,299.600 320.537,299.600 321.624 C 299.600 322.711,299.763 323.600,299.963 323.600 C 300.163 323.600,300.433 324.590,300.563 325.800 C 300.693 327.010,300.907 328.990,301.037 330.200 C 301.167 331.410,301.437 332.400,301.637 332.400 C 301.837 332.400,302.000 333.480,302.000 334.800 C 302.000 336.133,302.178 337.200,302.400 337.200 C 302.620 337.200,302.800 338.190,302.800 339.400 C 302.800 340.610,302.980 341.600,303.200 341.600 C 303.429 341.600,303.600 342.800,303.600 344.400 C 303.600 346.000,303.771 347.200,304.000 347.200 C 304.222 347.200,304.400 348.267,304.400 349.600 C 304.400 350.933,304.578 352.000,304.800 352.000 C 305.022 352.000,305.200 353.067,305.200 354.400 L 305.200 356.800 292.400 356.800 C 284.133 356.800,279.600 356.942,279.600 357.200 C 279.600 357.420,279.232 357.600,278.782 357.600 C 274.856 357.600,273.943 365.408,277.490 368.657 L 278.956 370.000 293.278 370.000 L 307.600 370.000 307.600 371.600 C 307.600 372.480,307.780 373.200,308.000 373.200 C 308.239 373.200,308.400 374.733,308.400 377.000 C 308.400 379.267,308.239 380.800,308.000 380.800 C 307.780 380.800,307.600 381.160,307.600 381.600 C 307.600 382.040,307.420 382.400,307.200 382.400 C 306.980 382.400,306.800 382.676,306.800 383.013 C 306.800 383.809,304.209 386.400,303.413 386.400 C 303.076 386.400,302.800 386.580,302.800 386.800 C 302.800 387.020,302.001 387.200,301.024 387.200 C 300.047 387.200,299.136 387.380,299.000 387.600 C 298.657 388.154,101.343 388.154,101.000 387.600 C 100.864 387.380,99.953 387.200,98.976 387.200 C 97.999 387.200,97.200 387.050,97.200 386.868 C 97.200 386.685,96.706 386.280,96.103 385.968 C 94.599 385.189,92.400 382.960,92.400 382.213 C 92.400 381.876,92.220 381.600,92.000 381.600 C 91.758 381.600,91.600 379.867,91.600 377.200 C 91.600 374.533,91.758 372.800,92.000 372.800 C 92.220 372.800,92.400 372.170,92.400 371.400 L 92.400 370.000 174.800 370.000 C 220.120 370.000,257.200 369.863,257.200 369.695 C 257.200 369.527,257.605 369.212,258.100 368.995 C 258.595 368.778,259.178 368.195,259.395 367.700 C 259.612 367.205,259.927 366.800,260.095 366.800 C 260.263 366.800,260.400 365.270,260.400 363.400 C 260.400 361.400,260.235 360.000,260.000 360.000 C 259.780 360.000,259.600 359.804,259.600 359.564 C 259.600 358.937,257.924 357.629,257.100 357.613 C 256.715 357.606,256.400 357.420,256.400 357.200 C 256.400 356.935,229.012 356.789,175.100 356.768 C 130.385 356.751,94.025 356.646,94.300 356.535 C 94.627 356.403,94.800 355.446,94.800 353.767 C 94.800 352.322,94.975 351.200,95.200 351.200 C 95.422 351.200,95.600 350.133,95.600 348.800 C 95.600 347.467,95.778 346.400,96.000 346.400 C 96.222 346.400,96.400 345.333,96.400 344.000 C 96.400 342.667,96.578 341.600,96.800 341.600 C 97.020 341.600,97.200 340.621,97.200 339.424 C 97.200 338.227,97.380 337.136,97.600 337.000 C 97.820 336.864,98.000 335.773,98.000 334.576 C 98.000 333.379,98.180 332.400,98.400 332.400 C 98.622 332.400,98.800 331.333,98.800 330.000 C 98.800 328.667,98.978 327.600,99.200 327.600 C 99.420 327.600,99.600 326.700,99.600 325.600 C 99.600 324.500,99.780 323.600,100.000 323.600 C 100.220 323.600,100.400 322.610,100.400 321.400 C 100.400 320.190,100.580 319.200,100.800 319.200 C 101.020 319.200,101.200 318.300,101.200 317.200 C 101.200 316.100,101.380 315.200,101.600 315.200 C 101.820 315.200,102.000 314.300,102.000 313.200 C 102.000 312.100,102.180 311.200,102.400 311.200 C 102.620 311.200,102.800 310.311,102.800 309.224 C 102.800 308.137,102.980 307.136,103.200 307.000 C 103.662 306.714,103.753 299.600,103.295 299.600 C 103.127 299.600,102.812 299.195,102.595 298.700 C 102.378 298.205,101.795 297.622,101.300 297.405 C 100.805 297.188,100.400 296.873,100.400 296.705 C 100.400 296.537,98.983 296.400,97.250 296.400 C 93.619 296.400,91.200 297.891,91.200 300.128 C 91.200 300.718,91.020 301.200,90.800 301.200 C 90.580 301.200,90.400 302.100,90.400 303.200 C 90.400 304.300,90.220 305.200,90.000 305.200 C 89.780 305.200,89.600 306.100,89.600 307.200 C 89.600 308.300,89.420 309.200,89.200 309.200 C 88.980 309.200,88.800 310.010,88.800 311.000 C 88.800 311.990,88.620 312.800,88.400 312.800 C 88.180 312.800,88.000 313.689,88.000 314.776 C 88.000 315.863,87.820 316.864,87.600 317.000 C 87.380 317.136,87.200 318.227,87.200 319.424 C 87.200 320.621,87.020 321.600,86.800 321.600 C 86.580 321.600,86.400 322.590,86.400 323.800 C 86.400 325.010,86.220 326.000,86.000 326.000 C 85.780 326.000,85.600 326.990,85.600 328.200 C 85.600 329.410,85.420 330.400,85.200 330.400 C 84.980 330.400,84.800 331.379,84.800 332.576 C 84.800 333.773,84.620 334.864,84.400 335.000 C 84.180 335.136,84.000 336.227,84.000 337.424 C 84.000 338.621,83.820 339.600,83.600 339.600 C 83.378 339.600,83.200 340.659,83.200 341.976 C 83.200 343.283,83.020 344.464,82.800 344.600 C 82.580 344.736,82.400 345.917,82.400 347.224 C 82.400 348.531,82.235 349.600,82.034 349.600 C 81.833 349.600,81.563 350.770,81.434 352.200 C 81.305 353.630,81.095 355.970,80.966 357.400 C 80.837 358.830,80.567 360.000,80.366 360.000 C 80.165 360.000,80.000 361.159,80.000 362.576 C 80.000 363.993,79.820 365.264,79.600 365.400 C 79.380 365.536,79.200 366.861,79.200 368.344 C 79.200 369.827,79.014 371.226,78.787 371.453 C 78.235 372.005,78.237 383.997,78.789 384.549 C 79.015 384.775,79.200 385.267,79.200 385.642 C 79.200 386.271,80.715 389.540,81.219 390.000 C 81.340 390.110,81.877 390.830,82.414 391.600 C 83.773 393.551,86.674 396.400,87.301 396.400 C 87.588 396.400,88.083 396.760,88.400 397.200 C 88.717 397.640,89.297 398.000,89.688 398.000 C 90.080 398.000,90.400 398.180,90.400 398.400 C 90.400 398.620,90.745 398.800,91.167 398.800 C 91.588 398.800,92.008 399.025,92.100 399.300 C 92.345 400.036,307.655 400.036,307.900 399.300 C 307.992 399.025,308.412 398.800,308.833 398.800 C 309.255 398.800,309.600 398.620,309.600 398.400 C 309.600 398.180,309.920 398.000,310.312 398.000 C 310.703 398.000,311.283 397.640,311.600 397.200 C 311.917 396.760,312.378 396.400,312.625 396.400 C 313.146 396.400,316.792 393.042,316.816 392.540 C 316.825 392.353,317.365 391.577,318.016 390.815 C 318.667 390.053,319.200 389.198,319.200 388.915 C 319.200 388.632,319.380 388.400,319.600 388.400 C 319.820 388.400,320.000 387.950,320.000 387.400 C 320.000 386.850,320.180 386.400,320.400 386.400 C 320.620 386.400,320.800 385.860,320.800 385.200 C 320.800 384.540,320.980 384.000,321.200 384.000 C 321.449 384.000,321.600 381.741,321.600 378.024 C 321.600 374.471,321.438 371.947,321.200 371.800 C 320.980 371.664,320.800 370.404,320.800 369.000 C 320.800 367.596,320.620 366.336,320.400 366.200 C 320.180 366.064,320.000 364.804,320.000 363.400 C 320.000 361.996,319.820 360.736,319.600 360.600 C 319.380 360.464,319.200 359.193,319.200 357.776 C 319.200 356.325,319.025 355.200,318.800 355.200 C 318.575 355.200,318.400 354.075,318.400 352.624 C 318.400 351.207,318.220 349.936,318.000 349.800 C 317.780 349.664,317.600 348.584,317.600 347.400 C 317.600 346.216,317.420 345.136,317.200 345.000 C 316.980 344.864,316.800 343.784,316.800 342.600 C 316.800 341.416,316.620 340.336,316.400 340.200 C 316.180 340.064,316.000 338.984,316.000 337.800 C 316.000 336.616,315.820 335.536,315.600 335.400 C 315.380 335.264,315.200 334.173,315.200 332.976 C 315.200 331.779,315.020 330.800,314.800 330.800 C 314.580 330.800,314.400 329.821,314.400 328.624 C 314.400 327.427,314.220 326.336,314.000 326.200 C 313.780 326.064,313.600 324.973,313.600 323.776 C 313.600 322.579,313.420 321.600,313.200 321.600 C 312.980 321.600,312.800 320.700,312.800 319.600 C 312.800 318.500,312.620 317.600,312.400 317.600 C 312.180 317.600,312.000 316.621,312.000 315.424 C 312.000 314.227,311.820 313.136,311.600 313.000 C 311.380 312.864,311.200 311.953,311.200 310.976 C 311.200 309.999,311.020 309.200,310.800 309.200 C 310.580 309.200,310.400 308.300,310.400 307.200 C 310.400 306.100,310.220 305.200,310.000 305.200 C 309.780 305.200,309.600 304.300,309.600 303.200 C 309.600 302.100,309.446 301.200,309.258 301.200 C 309.069 301.200,308.793 299.737,308.644 297.948 C 308.495 296.160,308.199 294.371,307.986 293.974 C 307.774 293.577,307.600 292.711,307.600 292.050 C 307.600 291.388,307.420 290.736,307.200 290.600 C 306.980 290.464,306.800 289.564,306.800 288.600 C 306.800 287.636,306.620 286.736,306.400 286.600 C 306.180 286.464,306.000 285.654,306.000 284.800 C 306.000 283.946,305.820 283.136,305.600 283.000 C 305.380 282.864,305.200 282.054,305.200 281.200 C 305.200 280.346,305.020 279.536,304.800 279.400 C 304.580 279.264,304.400 278.533,304.400 277.776 C 304.400 277.019,304.220 276.400,304.000 276.400 C 303.780 276.400,303.600 275.680,303.600 274.800 C 303.600 273.920,303.420 273.200,303.200 273.200 C 302.980 273.200,302.800 272.491,302.800 271.624 C 302.800 270.757,302.620 269.936,302.400 269.800 C 302.180 269.664,302.000 268.854,302.000 268.000 C 302.000 267.146,301.820 266.336,301.600 266.200 C 301.380 266.064,301.200 265.434,301.200 264.800 C 301.200 264.166,301.020 263.536,300.800 263.400 C 300.580 263.264,300.400 262.533,300.400 261.776 C 300.400 261.019,300.220 260.400,300.000 260.400 C 299.780 260.400,299.600 259.770,299.600 259.000 C 299.600 258.230,299.420 257.600,299.200 257.600 C 298.980 257.600,298.800 256.880,298.800 256.000 C 298.800 255.120,298.620 254.400,298.400 254.400 C 298.180 254.400,298.000 253.871,298.000 253.224 C 298.000 252.577,297.820 251.936,297.600 251.800 C 297.380 251.664,297.200 250.933,297.200 250.176 C 297.200 249.419,297.020 248.800,296.800 248.800 C 296.580 248.800,296.400 248.271,296.400 247.624 C 296.400 246.977,296.220 246.336,296.000 246.200 C 295.780 246.064,295.600 245.434,295.600 244.800 C 295.600 244.166,295.420 243.536,295.200 243.400 C 294.980 243.264,294.800 242.713,294.800 242.176 C 294.800 241.639,294.620 241.200,294.400 241.200 C 294.180 241.200,294.000 240.671,294.000 240.024 C 294.000 239.377,293.820 238.736,293.600 238.600 C 293.380 238.464,293.200 237.733,293.200 236.976 C 293.200 236.219,293.020 235.600,292.800 235.600 C 292.580 235.600,292.400 235.060,292.400 234.400 C 292.400 233.740,292.244 233.200,292.054 233.200 C 291.864 233.200,291.594 232.363,291.454 231.340 C 291.314 230.318,291.049 229.283,290.865 229.040 C 290.682 228.798,290.097 227.206,289.566 225.502 C 289.035 223.798,288.465 222.403,288.300 222.402 C 288.135 222.401,288.000 221.860,288.000 221.200 C 288.000 220.540,287.820 220.000,287.600 220.000 C 287.380 220.000,287.200 219.561,287.200 219.024 C 287.200 218.487,287.020 217.936,286.800 217.800 C 286.580 217.664,286.400 217.203,286.400 216.776 C 286.400 216.349,286.220 216.000,286.000 216.000 C 285.780 216.000,285.600 215.561,285.600 215.024 C 285.600 214.487,285.420 213.936,285.200 213.800 C 284.980 213.664,284.800 213.203,284.800 212.776 C 284.800 212.349,284.620 212.000,284.400 212.000 C 284.180 212.000,284.000 211.550,284.000 211.000 C 284.000 210.450,283.820 210.000,283.600 210.000 C 283.380 210.000,283.200 209.640,283.200 209.200 C 283.200 208.760,283.020 208.400,282.800 208.400 C 282.580 208.400,282.400 208.040,282.400 207.600 C 282.400 207.160,282.220 206.800,282.000 206.800 C 281.780 206.800,281.600 206.260,281.600 205.600 C 281.600 204.940,281.420 204.400,281.200 204.400 C 280.980 204.400,280.800 204.040,280.800 203.600 C 280.800 203.160,280.620 202.800,280.400 202.800 C 280.180 202.800,280.000 202.440,280.000 202.000 C 280.000 201.560,279.820 201.200,279.600 201.200 C 279.380 201.200,279.200 200.840,279.200 200.400 C 279.200 199.960,279.020 199.600,278.800 199.600 C 278.580 199.600,278.400 199.240,278.400 198.800 C 278.400 198.360,278.220 198.000,278.000 198.000 C 277.780 198.000,277.600 197.640,277.600 197.200 C 277.600 196.760,277.420 196.400,277.200 196.400 C 276.980 196.400,276.800 196.040,276.800 195.600 C 276.800 195.160,276.657 194.800,276.482 194.800 C 276.307 194.800,275.830 193.990,275.422 193.000 C 275.013 192.010,274.527 191.200,274.340 191.200 C 274.153 191.200,274.000 190.840,274.000 190.400 C 274.000 189.960,273.820 189.600,273.600 189.600 C 273.380 189.600,273.200 189.322,273.200 188.983 C 273.200 188.644,272.840 187.980,272.400 187.508 C 271.960 187.036,271.600 186.413,271.600 186.125 C 271.600 185.836,271.420 185.600,271.200 185.600 C 270.980 185.600,270.800 185.364,270.800 185.075 C 270.800 184.787,270.440 184.164,270.000 183.692 C 269.560 183.220,269.200 182.673,269.200 182.476 C 269.200 182.279,268.660 181.554,268.000 180.863 C 267.340 180.172,266.800 179.469,266.800 179.299 C 266.800 178.890,264.432 176.168,261.054 172.693 L 258.308 169.868 258.597 162.834 C 258.756 158.965,259.046 155.740,259.243 155.667 C 259.439 155.593,259.600 154.378,259.600 152.967 C 259.600 151.522,259.775 150.400,260.000 150.400 C 260.222 150.400,260.400 149.333,260.400 148.000 C 260.400 146.667,260.578 145.600,260.800 145.600 C 261.020 145.600,261.200 144.880,261.200 144.000 C 261.200 143.120,261.380 142.400,261.600 142.400 C 261.820 142.400,262.000 141.680,262.000 140.800 C 262.000 139.920,262.180 139.200,262.400 139.200 C 262.620 139.200,262.800 138.660,262.800 138.000 C 262.800 137.340,262.980 136.800,263.200 136.800 C 263.420 136.800,263.600 136.361,263.600 135.824 C 263.600 135.287,263.780 134.736,264.000 134.600 C 264.220 134.464,264.400 133.913,264.400 133.376 C 264.400 132.839,264.580 132.400,264.800 132.400 C 265.020 132.400,265.200 131.860,265.200 131.200 C 265.200 130.540,265.380 130.000,265.600 130.000 C 265.820 130.000,266.000 129.460,266.000 128.800 C 266.000 128.140,266.180 127.600,266.400 127.600 C 266.620 127.600,266.800 127.060,266.800 126.400 C 266.800 125.740,266.980 125.200,267.200 125.200 C 267.420 125.200,267.600 124.581,267.600 123.824 C 267.600 123.067,267.780 122.336,268.000 122.200 C 268.220 122.064,268.400 121.254,268.400 120.400 C 268.400 119.546,268.580 118.736,268.800 118.600 C 269.020 118.464,269.200 117.654,269.200 116.800 C 269.200 115.946,269.380 115.136,269.600 115.000 C 269.820 114.864,270.000 113.593,270.000 112.176 C 270.000 110.725,270.175 109.600,270.400 109.600 C 270.661 109.600,270.800 103.533,270.800 92.200 L 270.800 74.800 286.594 74.800 C 296.673 74.800,303.078 74.641,304.294 74.359 C 307.677 73.577,309.391 73.068,309.780 72.730 C 309.989 72.549,310.450 72.400,310.805 72.400 C 311.159 72.400,311.836 72.040,312.308 71.600 C 312.780 71.160,313.364 70.800,313.604 70.800 C 314.280 70.800,320.800 64.107,320.800 63.413 C 320.800 63.076,320.935 62.799,321.100 62.797 C 321.459 62.793,322.400 60.856,322.400 60.120 C 322.400 59.834,322.541 59.600,322.713 59.600 C 322.885 59.600,323.228 58.835,323.475 57.900 C 324.982 52.208,325.047 50.650,323.981 45.800 C 323.740 44.700,323.447 43.035,323.331 42.100 C 323.214 41.165,322.976 40.400,322.800 40.400 C 322.624 40.400,322.381 39.635,322.259 38.700 C 321.820 35.337,321.506 34.000,321.156 34.000 C 320.960 34.000,320.800 33.460,320.800 32.800 C 320.800 32.140,320.620 31.600,320.400 31.600 C 320.180 31.600,320.000 31.265,320.000 30.856 C 320.000 30.061,317.715 25.334,316.926 24.498 C 316.666 24.221,316.338 23.636,316.199 23.198 C 316.060 22.759,315.778 22.400,315.573 22.400 C 315.368 22.400,315.200 22.112,315.200 21.760 C 315.200 21.409,314.660 20.617,314.000 20.000 C 313.340 19.383,312.800 18.697,312.800 18.474 C 312.800 18.085,309.313 14.473,306.936 12.400 C 304.864 10.592,301.610 8.400,300.999 8.400 C 300.670 8.400,300.400 8.220,300.400 8.000 C 300.400 7.780,300.040 7.600,299.600 7.600 C 299.160 7.600,298.800 7.420,298.800 7.200 C 298.800 6.980,298.440 6.800,298.000 6.800 C 297.560 6.800,297.200 6.620,297.200 6.400 C 297.200 6.180,296.840 6.000,296.400 6.000 C 295.960 6.000,295.600 5.820,295.600 5.600 C 295.600 5.380,295.240 5.200,294.800 5.200 C 294.360 5.200,294.000 5.020,294.000 4.800 C 294.000 4.580,293.651 4.400,293.224 4.400 C 292.797 4.400,292.336 4.220,292.200 4.000 C 292.064 3.780,291.513 3.600,290.976 3.600 C 290.439 3.600,290.000 3.420,290.000 3.200 C 290.000 2.980,289.460 2.800,288.800 2.800 C 288.140 2.800,287.600 2.620,287.600 2.400 C 287.600 2.180,286.970 2.000,286.200 2.000 C 285.430 2.000,284.800 1.820,284.800 1.600 C 284.800 1.380,284.116 1.200,283.280 1.200 C 282.444 1.200,281.535 0.975,281.260 0.700 C 280.879 0.319,276.447 0.167,262.619 0.063 C 243.923 -0.079,242.604 0.015,241.200 1.581 C 241.090 1.704,240.325 2.308,239.500 2.923 C 238.675 3.538,238.000 4.262,238.000 4.532 C 238.000 4.802,237.640 5.283,237.200 5.600 C 236.760 5.917,236.400 6.497,236.400 6.888 C 236.400 7.280,236.220 7.600,236.000 7.600 C 235.780 7.600,235.600 8.140,235.600 8.800 C 235.600 9.460,235.420 10.000,235.200 10.000 C 234.948 10.000,234.800 12.767,234.800 17.500 L 234.799 25.000 228.100 25.000 C 221.169 25.000,218.613 25.585,216.316 27.698 C 214.483 29.382,213.541 29.344,211.445 27.500 C 211.007 27.115,210.413 26.800,210.125 26.800 C 209.836 26.800,209.600 26.660,209.600 26.489 C 209.600 25.647,204.787 24.800,200.000 24.800 C 195.213 24.800,190.400 25.647,190.400 26.489 C 190.400 26.660,190.080 26.800,189.688 26.800 C 189.297 26.800,188.717 27.160,188.400 27.600 C 188.083 28.040,187.518 28.400,187.145 28.400 C 186.772 28.400,186.398 28.605,186.315 28.854 C 186.158 29.327,184.815 28.737,183.684 27.698 C 181.387 25.585,178.831 25.000,171.900 25.000 L 165.201 25.000 165.200 17.500 C 165.200 12.767,165.052 10.000,164.800 10.000 C 164.580 10.000,164.400 9.460,164.400 8.800 C 164.400 8.140,164.220 7.600,164.000 7.600 C 163.780 7.600,163.600 7.280,163.600 6.888 C 163.600 6.497,163.240 5.917,162.800 5.600 C 162.360 5.283,162.000 4.769,162.000 4.458 C 162.000 3.796,160.028 2.001,159.300 2.000 C 159.025 2.000,158.800 1.820,158.800 1.600 C 158.800 1.380,158.545 1.200,158.233 1.200 C 157.922 1.200,157.592 0.975,157.500 0.700 C 157.338 0.214,128.465 -0.119,121.700 0.288 M150.400 12.400 C 150.400 12.620,150.760 12.800,151.200 12.800 C 151.992 12.800,152.000 13.067,152.000 39.800 C 152.000 57.533,152.137 66.800,152.400 66.800 C 152.620 66.800,152.800 67.160,152.800 67.600 C 152.800 68.040,152.937 68.400,153.105 68.400 C 153.273 68.400,153.588 68.790,153.805 69.267 C 154.022 69.744,154.560 70.329,155.000 70.567 C 155.440 70.805,155.890 71.118,156.000 71.262 C 156.479 71.888,164.010 75.200,164.956 75.200 C 165.530 75.200,166.000 75.380,166.000 75.600 C 166.000 75.820,166.362 76.000,166.805 76.000 C 167.248 76.000,167.968 76.180,168.405 76.400 C 168.842 76.620,169.558 76.980,169.995 77.200 C 170.432 77.420,171.332 77.600,171.995 77.600 C 172.658 77.600,173.200 77.780,173.200 78.000 C 173.200 78.220,173.740 78.400,174.400 78.400 C 175.060 78.400,175.600 78.580,175.600 78.800 C 175.600 79.020,176.410 79.200,177.400 79.200 C 178.390 79.200,179.200 79.380,179.200 79.600 C 179.200 79.820,179.740 80.000,180.400 80.000 L 181.600 80.000 181.600 84.000 L 181.600 88.000 175.800 88.000 C 172.200 88.000,170.000 88.152,170.000 88.400 C 170.000 88.620,169.717 88.800,169.371 88.800 C 167.532 88.800,166.644 91.189,166.759 95.822 C 166.817 98.125,168.902 100.400,170.954 100.400 C 171.749 100.400,172.400 100.580,172.400 100.800 C 172.400 101.043,174.200 101.200,177.000 101.200 L 181.600 101.200 181.600 106.200 L 181.600 111.200 176.200 111.200 C 172.867 111.200,170.800 111.353,170.800 111.600 C 170.800 111.820,170.524 112.000,170.187 112.000 C 168.268 112.000,166.765 114.672,166.758 118.096 C 166.753 120.066,166.921 121.440,167.175 121.525 C 167.409 121.603,167.600 121.910,167.600 122.206 C 167.600 122.503,167.960 122.860,168.400 123.000 C 168.840 123.140,169.200 123.393,169.200 123.563 C 169.200 124.389,171.601 124.800,176.419 124.800 L 181.600 124.800 181.600 129.576 C 181.600 132.329,181.769 134.458,182.000 134.600 C 182.220 134.736,182.400 135.197,182.400 135.624 C 182.400 136.051,182.580 136.400,182.800 136.400 C 183.020 136.400,183.200 136.672,183.200 137.005 C 183.200 138.489,187.676 144.000,188.880 144.000 C 189.179 144.000,189.683 144.360,190.000 144.800 C 190.317 145.240,190.897 145.600,191.288 145.600 C 191.680 145.600,192.000 145.780,192.000 146.000 C 192.000 146.220,192.450 146.400,193.000 146.400 C 193.550 146.400,194.000 146.580,194.000 146.800 C 194.000 147.020,194.709 147.200,195.576 147.200 C 196.443 147.200,197.264 147.380,197.400 147.600 C 197.722 148.121,202.278 148.121,202.600 147.600 C 202.736 147.380,203.557 147.200,204.424 147.200 C 205.291 147.200,206.000 147.020,206.000 146.800 C 206.000 146.580,206.362 146.400,206.805 146.400 C 207.757 146.400,209.133 145.677,210.043 144.700 C 210.401 144.315,210.912 144.000,211.178 144.000 C 211.445 144.000,212.324 143.300,213.131 142.444 C 215.412 140.027,216.000 139.239,216.000 138.595 C 216.000 138.268,216.180 138.000,216.400 138.000 C 216.620 138.000,216.800 137.640,216.800 137.200 C 216.800 136.760,216.980 136.400,217.200 136.400 C 217.420 136.400,217.600 135.860,217.600 135.200 C 217.600 134.540,217.780 134.000,218.000 134.000 C 218.243 134.000,218.400 132.200,218.400 129.400 L 218.400 124.800 223.626 124.800 C 229.264 124.800,229.762 124.665,231.859 122.568 C 234.621 119.805,233.110 112.000,229.813 112.000 C 229.476 112.000,229.200 111.820,229.200 111.600 C 229.200 111.353,227.133 111.200,223.800 111.200 L 218.400 111.200 218.400 106.200 L 218.400 101.200 223.000 101.200 C 225.800 101.200,227.600 101.043,227.600 100.800 C 227.600 100.580,228.185 100.400,228.900 100.400 C 230.349 100.399,232.400 98.907,232.400 97.853 C 232.400 97.494,232.580 97.200,232.800 97.200 C 233.031 97.200,233.200 95.933,233.200 94.200 C 233.200 92.467,233.031 91.200,232.800 91.200 C 232.580 91.200,232.400 90.917,232.400 90.571 C 232.400 89.763,231.437 88.800,230.629 88.800 C 230.283 88.800,230.000 88.620,230.000 88.400 C 230.000 88.152,227.800 88.000,224.200 88.000 L 218.400 88.000 218.400 84.000 L 218.400 80.000 219.576 80.000 C 220.223 80.000,220.864 79.820,221.000 79.600 C 221.136 79.380,221.957 79.200,222.824 79.200 C 223.691 79.200,224.400 79.020,224.400 78.800 C 224.400 78.580,224.940 78.400,225.600 78.400 C 226.260 78.400,226.800 78.220,226.800 78.000 C 226.800 77.780,227.342 77.600,228.005 77.600 C 228.668 77.600,229.568 77.420,230.005 77.200 C 230.442 76.980,231.158 76.620,231.595 76.400 C 232.032 76.180,232.752 76.000,233.195 76.000 C 233.638 76.000,234.000 75.820,234.000 75.600 C 234.000 75.380,234.465 75.200,235.034 75.200 C 236.174 75.200,244.000 71.644,244.000 71.125 C 244.000 70.946,244.283 70.800,244.629 70.800 C 245.437 70.800,246.400 69.837,246.400 69.029 C 246.400 68.683,246.580 68.400,246.800 68.400 C 247.020 68.400,247.200 68.040,247.200 67.600 C 247.200 67.160,247.380 66.800,247.600 66.800 C 247.863 66.800,248.000 57.588,248.000 39.963 C 248.000 13.462,248.010 13.122,248.800 12.916 C 249.240 12.801,249.600 12.548,249.600 12.353 C 249.600 12.159,251.400 12.000,253.600 12.000 L 257.600 12.000 257.600 59.800 C 257.600 91.400,257.464 107.600,257.200 107.600 C 256.978 107.600,256.800 108.659,256.800 109.976 C 256.800 111.283,256.620 112.464,256.400 112.600 C 256.180 112.736,256.000 113.546,256.000 114.400 C 256.000 115.254,255.820 116.064,255.600 116.200 C 255.380 116.336,255.200 117.056,255.200 117.800 C 255.200 118.544,255.020 119.264,254.800 119.400 C 254.580 119.536,254.400 120.267,254.400 121.024 C 254.400 121.781,254.220 122.400,254.000 122.400 C 253.780 122.400,253.600 122.940,253.600 123.600 C 253.600 124.260,253.420 124.800,253.200 124.800 C 252.980 124.800,252.800 125.239,252.800 125.776 C 252.800 126.313,252.620 126.864,252.400 127.000 C 252.180 127.136,252.000 127.687,252.000 128.224 C 252.000 128.761,251.820 129.200,251.600 129.200 C 251.380 129.200,251.200 129.639,251.200 130.176 C 251.200 130.713,251.020 131.264,250.800 131.400 C 250.580 131.536,250.400 132.177,250.400 132.824 C 250.400 133.471,250.220 134.000,250.000 134.000 C 249.780 134.000,249.600 134.529,249.600 135.176 C 249.600 135.823,249.439 136.452,249.242 136.574 C 248.906 136.782,248.754 137.501,248.159 141.700 C 248.026 142.635,247.756 143.571,247.559 143.780 C 247.362 143.989,247.200 145.013,247.200 146.056 C 247.200 147.099,247.020 148.064,246.800 148.200 C 246.580 148.336,246.400 149.596,246.400 151.000 C 246.400 152.404,246.220 153.664,246.000 153.800 C 245.779 153.936,245.600 155.730,245.600 157.800 C 245.600 159.870,245.421 161.664,245.200 161.800 C 244.980 161.936,244.800 163.117,244.800 164.424 L 244.800 166.800 226.387 166.800 L 207.973 166.800 206.587 168.187 C 205.528 169.246,205.200 169.907,205.200 170.987 C 205.200 171.764,205.020 172.400,204.800 172.400 C 204.580 172.400,204.400 172.670,204.400 173.000 C 204.400 173.330,204.580 173.600,204.800 173.600 C 205.020 173.600,205.200 174.236,205.200 175.013 C 205.200 176.093,205.528 176.754,206.587 177.813 L 207.973 179.200 218.015 179.200 C 228.511 179.200,229.200 179.309,229.200 180.971 C 229.200 181.317,229.380 181.600,229.600 181.600 C 229.820 181.600,230.000 181.960,230.000 182.400 C 230.000 182.840,230.180 183.200,230.400 183.200 C 230.620 183.200,230.800 183.560,230.800 184.000 C 230.800 184.440,230.980 184.800,231.200 184.800 C 231.420 184.800,231.600 185.160,231.600 185.600 C 231.600 186.040,231.780 186.400,232.000 186.400 C 232.220 186.400,232.400 186.760,232.400 187.200 C 232.400 187.640,232.580 188.000,232.800 188.000 C 233.020 188.000,233.200 188.450,233.200 189.000 C 233.200 189.550,233.380 190.000,233.600 190.000 C 233.820 190.000,234.000 190.360,234.000 190.800 C 234.000 191.240,234.180 191.600,234.400 191.600 C 234.620 191.600,234.800 191.960,234.800 192.400 C 234.800 192.840,234.980 193.200,235.200 193.200 C 235.420 193.200,235.600 193.740,235.600 194.400 C 235.600 195.060,235.780 195.600,236.000 195.600 C 236.220 195.600,236.400 195.960,236.400 196.400 C 236.400 196.840,236.580 197.200,236.800 197.200 C 237.020 197.200,237.200 197.740,237.200 198.400 C 237.200 199.060,237.380 199.600,237.600 199.600 C 237.820 199.600,238.000 199.949,238.000 200.376 C 238.000 200.803,238.180 201.264,238.400 201.400 C 238.620 201.536,238.800 202.087,238.800 202.624 C 238.800 203.161,238.980 203.600,239.200 203.600 C 239.420 203.600,239.600 204.140,239.600 204.800 C 239.600 205.460,239.780 206.000,240.000 206.000 C 240.220 206.000,240.400 206.450,240.400 207.000 C 240.400 207.550,240.580 208.000,240.800 208.000 C 241.020 208.000,241.200 208.529,241.200 209.176 C 241.200 209.823,241.380 210.464,241.600 210.600 C 241.820 210.736,242.000 211.176,242.000 211.578 C 242.000 212.422,243.102 216.272,243.637 217.295 C 243.837 217.677,244.000 218.431,244.000 218.971 C 244.000 219.511,244.180 220.064,244.400 220.200 C 244.620 220.336,244.800 220.876,244.800 221.400 C 244.800 221.924,244.980 222.464,245.200 222.600 C 245.420 222.736,245.600 223.377,245.600 224.024 C 245.600 224.671,245.780 225.200,246.000 225.200 C 246.220 225.200,246.400 225.920,246.400 226.800 C 246.400 227.680,246.580 228.400,246.800 228.400 C 247.020 228.400,247.200 228.940,247.200 229.600 C 247.200 230.260,247.380 230.800,247.600 230.800 C 247.820 230.800,248.000 231.520,248.000 232.400 C 248.000 233.280,248.180 234.000,248.400 234.000 C 248.620 234.000,248.800 234.619,248.800 235.376 C 248.800 236.133,248.980 236.864,249.200 237.000 C 249.420 237.136,249.600 237.856,249.600 238.600 C 249.600 239.344,249.780 240.064,250.000 240.200 C 250.220 240.336,250.400 241.067,250.400 241.824 C 250.400 242.581,250.562 243.200,250.760 243.200 C 251.098 243.200,251.216 243.781,251.832 248.500 C 251.969 249.545,252.242 250.400,252.440 250.400 C 252.638 250.400,252.800 251.109,252.800 251.976 C 252.800 252.843,252.980 253.664,253.200 253.800 C 253.420 253.936,253.600 254.757,253.600 255.624 C 253.600 256.491,253.780 257.200,254.000 257.200 C 254.220 257.200,254.400 258.100,254.400 259.200 C 254.400 260.300,254.580 261.200,254.800 261.200 C 255.020 261.200,255.200 261.999,255.200 262.976 C 255.200 263.953,255.380 264.864,255.600 265.000 C 255.820 265.136,256.000 266.047,256.000 267.024 C 256.000 268.001,256.180 268.800,256.400 268.800 C 256.620 268.800,256.800 269.599,256.800 270.576 C 256.800 271.553,256.980 272.464,257.200 272.600 C 257.420 272.736,257.600 273.737,257.600 274.824 C 257.600 275.911,257.746 276.800,257.925 276.800 C 258.104 276.800,258.454 278.465,258.702 280.500 C 258.950 282.535,259.354 285.280,259.601 286.600 C 259.847 287.920,260.144 289.945,260.261 291.100 C 260.378 292.255,260.637 293.200,260.837 293.200 C 261.037 293.200,261.200 294.154,261.200 295.320 C 261.200 296.486,261.363 297.611,261.563 297.820 C 261.908 298.181,262.139 299.691,262.647 304.900 C 262.770 306.165,263.035 307.200,263.236 307.200 C 263.733 307.200,263.700 311.091,263.200 311.400 C 262.980 311.536,262.800 312.007,262.800 312.447 C 262.800 313.359,259.745 316.800,258.935 316.800 C 258.641 316.800,258.400 316.980,258.400 317.200 C 258.400 317.420,257.875 317.600,257.233 317.600 C 256.592 317.600,255.985 317.825,255.886 318.100 C 255.741 318.500,255.535 318.500,254.858 318.100 C 254.392 317.825,253.558 317.600,253.005 317.600 C 252.452 317.600,252.000 317.420,252.000 317.200 C 252.000 316.980,251.757 316.800,251.459 316.800 C 250.959 316.800,249.557 315.592,247.928 313.757 C 246.847 312.539,246.076 312.000,245.417 312.000 C 245.078 312.000,244.800 311.820,244.800 311.600 C 244.800 311.365,243.400 311.200,241.400 311.200 C 239.400 311.200,238.000 311.365,238.000 311.600 C 238.000 311.820,237.722 312.000,237.383 312.000 C 236.724 312.000,235.953 312.539,234.872 313.757 C 233.243 315.592,231.841 316.800,231.341 316.800 C 231.043 316.800,230.800 316.980,230.800 317.200 C 230.800 317.420,230.348 317.600,229.795 317.600 C 229.242 317.600,228.408 317.825,227.942 318.100 C 227.265 318.500,227.059 318.500,226.914 318.100 C 226.815 317.825,226.208 317.600,225.567 317.600 C 224.925 317.600,224.400 317.420,224.400 317.200 C 224.400 316.980,224.152 316.800,223.848 316.800 C 223.545 316.800,222.485 315.908,221.493 314.818 C 216.851 309.717,211.239 309.599,206.342 314.500 C 205.078 315.765,203.764 316.800,203.422 316.800 C 203.080 316.800,202.800 316.980,202.800 317.200 C 202.800 317.420,202.260 317.600,201.600 317.600 C 200.940 317.600,200.400 317.780,200.400 318.000 C 200.400 318.220,200.040 318.400,199.600 318.400 C 199.160 318.400,198.800 318.220,198.800 318.000 C 198.800 317.780,198.260 317.600,197.600 317.600 C 196.940 317.600,196.400 317.420,196.400 317.200 C 196.400 316.980,196.114 316.800,195.765 316.800 C 195.416 316.800,194.153 315.782,192.958 314.539 C 191.763 313.295,190.318 312.035,189.747 311.739 C 187.731 310.693,180.816 311.282,180.803 312.500 C 180.801 312.665,180.601 312.800,180.358 312.800 C 180.115 312.800,178.860 313.880,177.568 315.200 C 175.577 317.235,175.006 317.600,173.810 317.600 C 173.034 317.600,172.400 317.780,172.400 318.000 C 172.400 318.220,172.130 318.400,171.800 318.400 C 171.470 318.400,171.200 318.220,171.200 318.000 C 171.200 317.780,170.610 317.600,169.888 317.600 C 169.035 317.600,168.375 317.320,168.000 316.800 C 167.683 316.360,167.214 316.000,166.958 316.000 C 166.702 316.000,166.168 315.505,165.773 314.900 C 164.031 312.236,161.755 311.200,157.646 311.200 C 155.749 311.200,154.400 311.366,154.400 311.600 C 154.400 311.820,154.120 312.000,153.778 312.000 C 153.436 312.000,152.096 313.080,150.800 314.400 C 149.504 315.720,148.164 316.800,147.822 316.800 C 147.480 316.800,147.200 316.980,147.200 317.200 C 147.200 317.420,146.675 317.600,146.033 317.600 C 145.392 317.600,144.785 317.825,144.686 318.100 C 144.541 318.500,144.335 318.500,143.658 318.100 C 143.192 317.825,142.358 317.600,141.805 317.600 C 141.252 317.600,140.800 317.420,140.800 317.200 C 140.800 316.980,140.614 316.800,140.387 316.800 C 139.411 316.800,136.400 313.028,136.400 311.805 C 136.400 311.472,136.220 311.200,136.000 311.200 C 135.780 311.200,135.600 310.660,135.600 310.000 C 135.600 309.340,135.780 308.800,136.000 308.800 C 136.220 308.800,136.400 307.810,136.400 306.600 C 136.400 305.390,136.563 304.400,136.763 304.400 C 137.104 304.400,137.219 303.699,137.831 297.900 C 137.965 296.635,138.237 295.600,138.437 295.600 C 138.637 295.600,138.800 294.700,138.800 293.600 C 138.800 292.500,138.963 291.600,139.161 291.600 C 139.360 291.600,139.625 290.745,139.751 289.700 C 140.342 284.766,140.508 283.772,140.799 283.400 C 140.971 283.180,141.241 281.334,141.398 279.297 C 141.556 277.261,141.846 275.495,142.043 275.374 C 142.239 275.252,142.400 274.443,142.400 273.576 C 142.400 272.709,142.580 272.000,142.800 272.000 C 143.020 272.000,143.200 271.201,143.200 270.224 C 143.200 269.247,143.380 268.336,143.600 268.200 C 143.820 268.064,144.000 267.153,144.000 266.176 C 144.000 265.199,144.180 264.400,144.400 264.400 C 144.620 264.400,144.800 263.500,144.800 262.400 C 144.800 261.300,144.980 260.400,145.200 260.400 C 145.420 260.400,145.600 259.590,145.600 258.600 C 145.600 257.610,145.780 256.800,146.000 256.800 C 146.220 256.800,146.400 256.080,146.400 255.200 C 146.400 254.320,146.580 253.600,146.800 253.600 C 147.020 253.600,147.200 252.801,147.200 251.824 C 147.200 250.847,147.380 249.936,147.600 249.800 C 147.820 249.664,148.000 248.843,148.000 247.976 C 148.000 247.109,148.180 246.400,148.400 246.400 C 148.620 246.400,148.800 245.680,148.800 244.800 C 148.800 243.920,148.980 243.200,149.200 243.200 C 149.420 243.200,149.600 242.480,149.600 241.600 C 149.600 240.720,149.780 240.000,150.000 240.000 C 150.220 240.000,150.400 239.381,150.400 238.624 C 150.400 237.867,150.580 237.136,150.800 237.000 C 151.020 236.864,151.200 236.144,151.200 235.400 C 151.200 234.656,151.380 233.936,151.600 233.800 C 151.820 233.664,152.000 232.933,152.000 232.176 C 152.000 231.419,152.180 230.800,152.400 230.800 C 152.620 230.800,152.800 230.271,152.800 229.624 C 152.800 228.977,152.980 228.336,153.200 228.200 C 153.420 228.064,153.600 227.333,153.600 226.576 C 153.600 225.819,153.780 225.200,154.000 225.200 C 154.220 225.200,154.400 224.671,154.400 224.024 C 154.400 223.377,154.580 222.736,154.800 222.600 C 155.020 222.464,155.200 221.823,155.200 221.176 C 155.200 220.529,155.380 220.000,155.600 220.000 C 155.820 220.000,156.000 219.548,156.000 218.995 C 156.000 218.442,156.163 217.677,156.361 217.295 C 157.023 216.023,158.800 209.959,158.800 208.972 C 158.800 208.438,158.980 208.000,159.200 208.000 C 159.420 208.000,159.600 207.550,159.600 207.000 C 159.600 206.450,159.780 206.000,160.000 206.000 C 160.220 206.000,160.400 205.460,160.400 204.800 C 160.400 204.140,160.580 203.600,160.800 203.600 C 161.020 203.600,161.200 203.161,161.200 202.624 C 161.200 202.087,161.380 201.536,161.600 201.400 C 161.820 201.264,162.000 200.803,162.000 200.376 C 162.000 199.949,162.180 199.600,162.400 199.600 C 162.620 199.600,162.800 199.060,162.800 198.400 C 162.800 197.740,162.980 197.200,163.200 197.200 C 163.420 197.200,163.600 196.840,163.600 196.400 C 163.600 195.960,163.780 195.600,164.000 195.600 C 164.220 195.600,164.400 195.060,164.400 194.400 C 164.400 193.740,164.580 193.200,164.800 193.200 C 165.020 193.200,165.200 192.840,165.200 192.400 C 165.200 191.960,165.380 191.600,165.600 191.600 C 165.820 191.600,166.000 191.240,166.000 190.800 C 166.000 190.360,166.180 190.000,166.400 190.000 C 166.620 190.000,166.800 189.550,166.800 189.000 C 166.800 188.450,166.980 188.000,167.200 188.000 C 167.420 188.000,167.600 187.640,167.600 187.200 C 167.600 186.760,167.780 186.400,168.000 186.400 C 168.220 186.400,168.400 186.040,168.400 185.600 C 168.400 185.160,168.580 184.800,168.800 184.800 C 169.020 184.800,169.200 184.440,169.200 184.000 C 169.200 183.560,169.380 183.200,169.600 183.200 C 169.820 183.200,170.000 182.840,170.000 182.400 C 170.000 181.960,170.180 181.600,170.400 181.600 C 170.620 181.600,170.800 181.317,170.800 180.971 C 170.800 179.362,171.622 179.200,179.771 179.200 C 184.724 179.200,187.600 179.053,187.600 178.800 C 187.600 178.580,187.793 178.400,188.029 178.400 C 189.372 178.400,190.500 175.935,190.500 173.000 C 190.500 170.065,189.372 167.600,188.029 167.600 C 187.793 167.600,187.600 167.420,187.600 167.200 C 187.600 166.940,181.933 166.800,171.400 166.800 L 155.200 166.800 155.200 164.224 C 155.200 162.807,155.020 161.536,154.800 161.400 C 154.580 161.264,154.400 159.554,154.400 157.600 C 154.400 155.646,154.220 153.936,154.000 153.800 C 153.780 153.664,153.600 152.404,153.600 151.000 C 153.600 149.596,153.420 148.336,153.200 148.200 C 152.980 148.064,152.800 146.973,152.800 145.776 C 152.800 144.579,152.620 143.600,152.400 143.600 C 152.180 143.600,152.000 142.801,152.000 141.824 C 152.000 140.847,151.820 139.936,151.600 139.800 C 151.380 139.664,151.200 138.843,151.200 137.976 C 151.200 137.109,151.020 136.400,150.800 136.400 C 150.580 136.400,150.400 135.871,150.400 135.224 C 150.400 134.577,150.220 133.936,150.000 133.800 C 149.780 133.664,149.600 133.023,149.600 132.376 C 149.600 131.729,149.420 131.200,149.200 131.200 C 148.980 131.200,148.800 130.660,148.800 130.000 C 148.800 129.340,148.620 128.800,148.400 128.800 C 148.180 128.800,148.000 128.350,148.000 127.800 C 148.000 127.250,147.820 126.800,147.600 126.800 C 147.380 126.800,147.200 126.350,147.200 125.800 C 147.200 125.250,147.020 124.800,146.800 124.800 C 146.580 124.800,146.400 124.181,146.400 123.424 C 146.400 122.667,146.220 121.936,146.000 121.800 C 145.780 121.664,145.600 121.023,145.600 120.376 C 145.600 119.729,145.420 119.200,145.200 119.200 C 144.980 119.200,144.800 118.480,144.800 117.600 C 144.800 116.720,144.620 116.000,144.400 116.000 C 144.180 116.000,144.000 115.280,144.000 114.400 C 144.000 113.520,143.820 112.800,143.600 112.800 C 143.380 112.800,143.200 111.900,143.200 110.800 C 143.200 109.700,143.020 108.800,142.800 108.800 C 142.562 108.800,142.400 107.275,142.400 105.024 C 142.400 102.937,142.221 101.137,142.000 101.000 C 141.780 100.864,141.600 100.313,141.600 99.776 C 141.600 99.239,141.780 98.800,142.000 98.800 C 142.262 98.800,142.400 90.067,142.400 73.400 C 142.400 56.733,142.262 48.000,142.000 48.000 C 141.780 48.000,141.600 47.595,141.600 47.100 C 141.597 43.185,134.498 41.722,131.056 44.928 L 129.200 46.656 129.200 53.928 L 129.200 61.200 113.624 61.200 C 103.671 61.200,97.958 61.056,97.800 60.800 C 97.664 60.580,97.139 60.400,96.632 60.400 C 96.126 60.400,95.049 59.950,94.238 59.400 C 93.428 58.850,92.587 58.400,92.370 58.400 C 92.153 58.400,91.863 58.085,91.727 57.700 C 91.590 57.315,91.229 56.708,90.923 56.351 C 89.538 54.731,88.347 49.927,89.200 49.400 C 89.420 49.264,89.600 48.454,89.600 47.600 C 89.600 46.746,89.780 45.936,90.000 45.800 C 90.220 45.664,90.400 44.854,90.400 44.000 C 90.400 43.146,90.562 42.347,90.761 42.224 C 90.959 42.102,91.247 40.921,91.400 39.601 C 91.553 38.280,91.841 37.200,92.039 37.200 C 92.238 37.200,92.400 36.750,92.400 36.200 C 92.400 35.650,92.580 35.200,92.800 35.200 C 93.020 35.200,93.200 34.966,93.200 34.680 C 93.200 33.944,94.141 32.007,94.500 32.003 C 94.665 32.001,94.800 31.730,94.800 31.400 C 94.800 31.070,94.980 30.800,95.200 30.800 C 95.420 30.800,95.600 30.544,95.600 30.231 C 95.600 29.408,103.484 21.600,104.314 21.600 C 104.498 21.600,104.998 21.275,105.425 20.878 C 105.851 20.480,106.785 19.897,107.500 19.580 C 108.215 19.264,108.800 18.869,108.800 18.702 C 108.800 18.536,109.160 18.400,109.600 18.400 C 110.040 18.400,110.400 18.220,110.400 18.000 C 110.400 17.780,110.760 17.600,111.200 17.600 C 111.640 17.600,112.000 17.420,112.000 17.200 C 112.000 16.980,112.360 16.800,112.800 16.800 C 113.240 16.800,113.600 16.620,113.600 16.400 C 113.600 16.180,114.140 16.000,114.800 16.000 C 115.460 16.000,116.000 15.820,116.000 15.600 C 116.000 15.380,116.529 15.200,117.176 15.200 C 117.823 15.200,118.464 15.020,118.600 14.800 C 118.736 14.580,119.467 14.400,120.224 14.400 C 120.981 14.400,121.600 14.220,121.600 14.000 C 121.600 13.780,122.590 13.600,123.800 13.600 C 125.010 13.600,126.000 13.420,126.000 13.200 C 126.000 12.980,126.720 12.800,127.600 12.800 L 129.200 12.800 129.200 18.826 C 129.200 22.535,129.374 25.177,129.651 25.696 C 130.322 26.950,131.881 28.400,132.558 28.400 C 132.885 28.400,133.264 28.580,133.400 28.800 C 133.536 29.020,134.627 29.200,135.824 29.200 C 137.021 29.200,138.000 29.020,138.000 28.800 C 138.000 28.580,138.288 28.400,138.640 28.400 C 139.588 28.400,141.600 26.060,141.600 24.958 C 141.600 24.431,141.780 24.000,142.000 24.000 C 142.249 24.000,142.400 21.733,142.400 18.000 L 142.400 12.000 146.400 12.000 C 148.800 12.000,150.400 12.160,150.400 12.400 M274.800 13.200 C 274.800 13.420,275.700 13.600,276.800 13.600 C 277.900 13.600,278.800 13.780,278.800 14.000 C 278.800 14.220,279.419 14.400,280.176 14.400 C 280.933 14.400,281.664 14.580,281.800 14.800 C 281.936 15.020,282.667 15.200,283.424 15.200 C 284.181 15.200,284.800 15.380,284.800 15.600 C 284.800 15.820,285.239 16.000,285.776 16.000 C 286.313 16.000,286.864 16.180,287.000 16.400 C 287.136 16.620,287.597 16.800,288.024 16.800 C 288.451 16.800,288.800 16.980,288.800 17.200 C 288.800 17.420,289.160 17.600,289.600 17.600 C 290.040 17.600,290.400 17.780,290.400 18.000 C 290.400 18.220,290.760 18.400,291.200 18.400 C 291.640 18.400,292.000 18.536,292.000 18.702 C 292.000 18.869,292.495 19.226,293.100 19.497 C 293.705 19.768,294.830 20.531,295.600 21.194 C 296.370 21.856,297.143 22.399,297.318 22.399 C 297.493 22.400,298.053 22.805,298.562 23.300 C 299.071 23.795,300.228 24.830,301.135 25.600 C 302.041 26.370,302.786 27.249,302.791 27.553 C 302.796 27.857,303.116 28.397,303.503 28.753 C 303.889 29.109,304.460 29.895,304.770 30.500 C 305.081 31.105,305.485 31.600,305.668 31.600 C 305.850 31.600,306.000 31.960,306.000 32.400 C 306.000 32.840,306.180 33.200,306.400 33.200 C 306.620 33.200,306.800 33.560,306.800 34.000 C 306.800 34.440,306.980 34.800,307.200 34.800 C 307.420 34.800,307.600 35.340,307.600 36.000 C 307.600 36.660,307.746 37.200,307.924 37.200 C 308.206 37.200,308.641 38.978,309.438 43.400 C 309.557 44.060,309.811 44.960,310.002 45.400 C 310.194 45.840,310.452 46.875,310.575 47.700 C 310.699 48.525,310.907 49.809,311.038 50.553 C 311.180 51.356,311.098 52.016,310.838 52.176 C 310.597 52.325,310.400 52.802,310.400 53.237 C 310.400 56.165,306.152 60.400,303.215 60.400 C 302.793 60.400,302.336 60.580,302.200 60.800 C 302.042 61.056,296.329 61.200,286.376 61.200 L 270.800 61.200 270.800 37.000 L 270.800 12.800 272.800 12.800 C 273.900 12.800,274.800 12.980,274.800 13.200 M174.800 38.400 C 174.800 38.620,175.016 38.800,175.281 38.800 C 175.937 38.800,178.400 41.231,178.400 41.878 C 178.400 42.165,178.580 42.400,178.800 42.400 C 179.020 42.400,179.200 42.940,179.200 43.600 C 179.200 44.260,179.380 44.800,179.600 44.800 C 179.820 44.800,180.000 45.091,180.000 45.446 C 180.000 45.801,180.665 46.701,181.478 47.446 C 184.411 50.133,191.600 48.778,191.600 45.539 C 191.600 45.132,191.780 44.800,192.000 44.800 C 192.220 44.800,192.400 44.260,192.400 43.600 C 192.400 42.940,192.580 42.400,192.800 42.400 C 193.020 42.400,193.200 42.214,193.200 41.987 C 193.200 41.342,195.901 38.800,196.587 38.800 C 196.924 38.800,197.200 38.620,197.200 38.400 C 197.200 38.171,198.400 38.000,200.000 38.000 C 201.600 38.000,202.800 38.171,202.800 38.400 C 202.800 38.620,203.076 38.800,203.413 38.800 C 204.099 38.800,206.800 41.342,206.800 41.987 C 206.800 42.214,206.980 42.400,207.200 42.400 C 207.420 42.400,207.600 42.940,207.600 43.600 C 207.600 44.260,207.780 44.800,208.000 44.800 C 208.220 44.800,208.400 45.132,208.400 45.539 C 208.400 46.388,209.675 48.000,210.347 48.000 C 210.596 48.000,210.800 48.180,210.800 48.400 C 210.800 48.980,216.243 48.896,217.283 48.300 C 218.665 47.508,220.000 46.092,220.000 45.418 C 220.000 45.078,220.180 44.800,220.400 44.800 C 220.620 44.800,220.800 44.260,220.800 43.600 C 220.800 42.940,220.980 42.400,221.200 42.400 C 221.420 42.400,221.600 42.184,221.600 41.919 C 221.600 41.263,224.031 38.800,224.678 38.800 C 224.965 38.800,225.200 38.620,225.200 38.400 C 225.200 38.171,226.400 38.000,228.000 38.000 C 229.600 38.000,230.800 38.171,230.800 38.400 C 230.800 38.620,231.076 38.800,231.413 38.800 C 231.751 38.800,232.651 39.424,233.413 40.187 L 234.800 41.573 234.800 51.197 L 234.800 60.820 233.600 61.060 C 232.940 61.192,232.400 61.458,232.400 61.650 C 232.400 61.843,232.040 62.000,231.600 62.000 C 231.160 62.000,230.800 62.180,230.800 62.400 C 230.800 62.620,230.361 62.800,229.824 62.800 C 229.287 62.800,228.736 62.980,228.600 63.200 C 228.464 63.420,227.913 63.600,227.376 63.600 C 226.839 63.600,226.400 63.736,226.400 63.903 C 226.400 64.269,223.533 65.200,222.406 65.200 C 221.963 65.200,221.600 65.380,221.600 65.600 C 221.600 65.820,220.981 66.000,220.224 66.000 C 219.467 66.000,218.736 66.180,218.600 66.400 C 218.464 66.620,217.654 66.800,216.800 66.800 C 215.946 66.800,215.136 66.980,215.000 67.200 C 214.864 67.420,214.133 67.600,213.376 67.600 C 212.619 67.600,212.000 67.780,212.000 68.000 C 212.000 68.220,211.653 68.400,211.229 68.400 C 210.278 68.400,206.800 71.661,206.800 72.552 C 206.800 72.908,206.620 73.200,206.400 73.200 C 206.180 73.200,206.000 73.740,206.000 74.400 C 206.000 75.060,205.820 75.600,205.600 75.600 C 205.351 75.600,205.200 77.933,205.200 81.800 L 205.200 88.000 200.000 88.000 L 194.800 88.000 194.800 82.200 C 194.800 78.600,194.648 76.400,194.400 76.400 C 194.180 76.400,194.000 75.680,194.000 74.800 C 194.000 73.920,193.820 73.200,193.600 73.200 C 193.380 73.200,193.200 72.936,193.200 72.613 C 193.200 71.873,190.775 69.200,190.103 69.200 C 189.826 69.200,189.600 69.020,189.600 68.800 C 189.600 68.580,189.240 68.400,188.800 68.400 C 188.360 68.400,188.000 68.220,188.000 68.000 C 188.000 67.780,187.280 67.600,186.400 67.600 C 185.520 67.600,184.800 67.420,184.800 67.200 C 184.800 66.980,184.091 66.800,183.224 66.800 C 182.357 66.800,181.536 66.620,181.400 66.400 C 181.264 66.180,180.533 66.000,179.776 66.000 C 179.019 66.000,178.400 65.820,178.400 65.600 C 178.400 65.380,178.037 65.200,177.594 65.200 C 176.467 65.200,173.600 64.269,173.600 63.903 C 173.600 63.736,173.161 63.600,172.624 63.600 C 172.087 63.600,171.536 63.420,171.400 63.200 C 171.264 62.980,170.713 62.800,170.176 62.800 C 169.639 62.800,169.200 62.620,169.200 62.400 C 169.200 62.180,168.840 62.000,168.400 62.000 C 167.960 62.000,167.600 61.820,167.600 61.600 C 167.600 61.380,167.276 61.200,166.880 61.200 C 165.301 61.200,165.200 60.580,165.200 50.880 L 165.200 41.520 166.510 40.260 C 167.230 39.567,168.175 38.786,168.610 38.524 C 169.576 37.941,174.800 37.836,174.800 38.400 M205.200 106.200 L 205.200 111.200 200.000 111.200 L 194.800 111.200 194.800 106.200 L 194.800 101.200 200.000 101.200 L 205.200 101.200 205.200 106.200 M205.200 127.800 C 205.200 129.533,205.031 130.800,204.800 130.800 C 204.580 130.800,204.400 131.094,204.400 131.453 C 204.400 132.239,202.451 133.999,201.580 134.000 C 201.239 134.000,200.721 134.225,200.430 134.500 C 200.006 134.900,199.863 134.900,199.717 134.500 C 199.616 134.225,199.090 134.000,198.548 134.000 C 196.394 134.000,194.800 131.280,194.800 127.605 L 194.800 124.800 200.000 124.800 L 205.200 124.800 205.200 127.800 " stroke="none" fill="#22a45d" fill-rule="evenodd"></path><path id="path1" d="" stroke="none" fill="#080404" fill-rule="evenodd"></path><path id="path2" d="" stroke="none" fill="#080404" fill-rule="evenodd"></path><path id="path3" d="" stroke="none" fill="#080404" fill-rule="evenodd"></path><path id="path4" d="" stroke="none" fill="#080404" fill-rule="evenodd"></path></g></svg>